<?xml version="1.0" standalone="no"?>
<!DOCTYPE svg PUBLIC "-//W3C//DTD SVG 1.1//EN" "http://www.w3.org/Graphics/SVG/1.1/DTD/svg11.dtd" >
<svg>
<metadata>
Created by FontForge 20090622 at Wed Jul 15 15:22:27 2020
 By deploy user
Rasel Utshob &#194;&#169; All Rights Reserved by Lipighor Font Foundry
</metadata>
<defs>
<font id="RaselUtshob-Unicode" horiz-adv-x="468" >
  <font-face 
    font-family="Rasel Utshob Unicode"
    font-weight="400"
    font-stretch="normal"
    units-per-em="1000"
    panose-1="2 0 5 6 0 0 0 2 0 3"
    ascent="800"
    descent="-200"
    x-height="367"
    cap-height="485"
    bbox="-401.44 -240.2 900.722 742.182"
    underline-thickness="50"
    underline-position="-50"
    unicode-range="U+0020-U+25CC"
  />
<missing-glyph horiz-adv-x="599" 
d="M408 411v-27l81 27h67v-386h-69l-16 93v209l-63 -21v-70h-81v91l-60 -20v-207h60v71h81v-146h-226v330l162 56h64zM476 486l-232 -16l-98 -30v-415h-90v475l222 65h278v-125h-80v46z" />
    <glyph glyph-name=".notdef" horiz-adv-x="599" 
d="M408 411v-27l81 27h67v-386h-69l-16 93v209l-63 -21v-70h-81v91l-60 -20v-207h60v71h81v-146h-226v330l162 56h64zM476 486l-232 -16l-98 -30v-415h-90v475l222 65h278v-125h-80v46z" />
    <glyph glyph-name="uni0000" horiz-adv-x="1" 
 />
    <glyph glyph-name="uni0000" horiz-adv-x="1" 
 />
    <glyph glyph-name="nonmarkingreturn" horiz-adv-x="1" 
 />
    <glyph glyph-name="space" unicode=" " horiz-adv-x="200" 
 />
    <glyph glyph-name="exclam" unicode="!" horiz-adv-x="255" 
d="M152 124v0q22 -7 39.5 -22.5t22.5 -38.5q5 -40 -34 -51q-29 -6 -58.5 5.5t-39.5 40.5q-7 29 10 53q4 5 10 7q8 10 24 9.5t26 -3.5zM194 176v0q-2 -20 -23.5 -22t-43.5 8.5t-24 26.5q1 70 4 140q2 69 3 139q1 19 23 21t44 -8t23 -27q0 -69 -3 -139q-2 -70 -3 -139z" />
    <glyph glyph-name="quotedbl" unicode="&#x22;" horiz-adv-x="366" 
d="M129 400q-29 0 -50 14q-9 6 -9 15l1 8q7 20 7 36l-2 49q0 20 32 20q55 0 56 -14q4 -50 4 -69q0 -7 -1 -21t-14 -30q-9 -8 -24 -8zM257 400q-29 0 -50 14q-9 6 -9 15l1 8q7 20 7 36l-2 49q0 20 32 20q55 0 56 -14q4 -50 4 -69q0 -7 -1 -21t-14 -30q-9 -8 -24 -8z" />
    <glyph glyph-name="numbersign" unicode="#" horiz-adv-x="627" 
d="M545 401v0q16 0 33 -6.5t26 -21.5q7 -14 -3.5 -21t-22.5 -7h-97l-21 -75l-22 -74h40q16 0 33 -7t26 -21q7 -14 -3.5 -21t-22.5 -7h-89q-8 -30 -17 -60t-17 -60q-7 -16 -30 -15t-43 13t-17 30l26 92h-101l-28 -98l-6 -22q-7 -16 -30 -15t-43 13t-17 30q7 23 13 46
q7 23 13 46h-44q-15 0 -32.5 6.5t-26.5 20.5q-7 15 4 22t23 7h93l35 122l8 27h-37q-15 0 -32.5 7t-26.5 21q-7 14 4 21t23 7h85l23 80q6 16 29.5 15t43.5 -13t17 -30l-8 -26t-7 -26h101l23 80q6 16 29.5 15t43.5 -13t17 -30l-8 -26l-8 -26h48zM340 196v0l22 74l22 75h-102
l-21 -75l-22 -74h101z" />
    <glyph glyph-name="percent" unicode="%" horiz-adv-x="584" 
d="M153 384q3 14 -3 25q-2 3 -4 5q0 -1 -1 -1q-2 0 -4.5 -1t-4.5 -2q-8 -7 -15 -15q-5 -8 -8 -17.5t-2 -19.5q2 -9 6 -17l1 1h1q27 13 34 42zM472 134q3 13 -3 24q-2 3 -4 5l-2 -1q-2 0 -4.5 -1t-3.5 -2q-9 -7 -15 -15q-5 -8 -8 -17.5t-2 -19.5q1 -9 6 -16h1q27 13 35 43z
M243 357q-8 -29 -31 -48.5t-53 -23.5q-44 -5 -89.5 19t-49.5 73q2 45 30.5 68.5t70.5 23.5q9 2 18 0.5t15 -3.5q37 -12 67 -39t22 -70zM486 426q-60 -15 -96 -65t-55 -106q-25 -69 -43 -140q-12 -45 -26 -90q-7 -16 -30.5 -15t-43.5 13.5t-16 29.5q12 39 24 85
q24 111 73.5 212.5t159.5 128.5q17 4 34.5 -1.5t29.5 -17.5q10 -11 7 -21t-18 -13zM473 216q36 -13 66.5 -40t22.5 -70q-8 -29 -31.5 -48t-52.5 -24q-44 -4 -89.5 20t-49.5 72q1 45 30 68.5t70 24.5q10 1 19 0t15 -3z" />
    <glyph glyph-name="quotesingle" unicode="'" horiz-adv-x="238" 
d="M129 400q-29 0 -50 14q-9 6 -9 15l1 8q7 20 7 36l-2 49q0 20 32 20q55 0 56 -14q4 -50 4 -69q0 -7 -1 -21t-14 -30q-9 -8 -24 -8z" />
    <glyph glyph-name="parenleft" unicode="(" horiz-adv-x="287" 
d="M179 596v0q10 8 27.5 6t34 -9.5t23.5 -17.5t-3 -19q-134 -117 -150.5 -301.5t135.5 -297.5q11 -7 15.5 -18.5t-9.5 -19.5q-16 -6 -33 -2t-31 12q-172 124 -168 327.5t159 339.5z" />
    <glyph glyph-name="parenright" unicode=")" horiz-adv-x="287" 
d="M108 596q155 -136 159 -339.5t-168 -327.5q-14 -8 -31 -12t-33 2q-14 8 -9.5 19.5t15.5 18.5q152 113 135.5 297.5t-150.5 301.5q-10 9 -3 19t23.5 17.5t34 9.5t27.5 -6v0z" />
    <glyph glyph-name="asterisk" unicode="*" horiz-adv-x="446" 
d="M345 277v0q15 0 32 -6.5t26 -20.5q7 -14 -3.5 -21t-22.5 -7h-82l24 -24l49 -48q10 -11 7 -21t-18 -14q-17 -3 -34 2.5t-30 17.5l-12 12q-6 7 -13 13v-69q0 -20 -22.5 -21.5t-45 8.5t-22.5 26v39q-11 -10 -21 -21q-14 -11 -38 -6t-40 18.5t-5 27.5l20 20l40 40h-32
t-33 6.5t-26 20.5q-7 14 3.5 21t22.5 7h82l-36 37l-36 36q-11 10 -7.5 20.5t17.5 13.5q17 3 34.5 -2.5t29.5 -17.5l25 -25v69q0 20 22.5 22t45 -8.5t22.5 -26.5v-39q6 5 11 10q5 6 10 11q14 11 38 6t40 -18.5t5 -27.5l-20 -20l-40 -40h33z" />
    <glyph glyph-name="plus" unicode="+" horiz-adv-x="407" 
d="M325 277q16 0 33 -6.5t26 -20.5q7 -14 -4 -21t-22 -7h-109v-131q0 -20 -22.5 -21.5t-45.5 8.5t-23 26v118h-76q-15 0 -32.5 6.5t-26.5 20.5q-7 14 4 21t22 7h109v131q0 20 23 22t45.5 -8.5t22.5 -26.5v-118h76z" />
    <glyph glyph-name="comma" unicode="," horiz-adv-x="207" 
d="M64 138v0q38 5 76 -14.5t47 -58.5q3 -37 -20.5 -65.5t-55.5 -44.5q-15 -7 -33 -3t-31 13q-11 7 -15 18.5t9 19.5q28 14 46 40q-46 -1 -65 40q-6 20 9 36t33 19z" />
    <glyph glyph-name="hyphen" unicode="-" horiz-adv-x="327" 
d="M226 281v0q15 0 32.5 -6.5t26.5 -21.5q7 -14 -4 -21t-23 -7h-156q-16 0 -33 6.5t-26 21.5q-7 14 4 21t22 7h157z" />
    <glyph glyph-name="period" unicode="." horiz-adv-x="221" 
d="M144 22v0q-30 -7 -60.5 5t-41.5 42q-8 32 11 59q4 5 11 8q8 10 24 10t27 -3q24 -7 42 -24t23 -41q6 -44 -36 -56z" />
    <glyph glyph-name="slash" unicode="/" horiz-adv-x="336" 
d="M155 481v0q7 16 30 15t43 -13t17 -30l-125 -433q-6 -16 -29.5 -15t-43.5 13t-17 30z" />
    <glyph glyph-name="colon" unicode=":" horiz-adv-x="261" 
d="M164 316v0q-30 -7 -60.5 5t-41.5 42q-8 32 11 59q4 5 11 8q8 10 24 10t27 -3q24 -7 42 -24t23 -41q6 -44 -36 -56zM164 62v0q-30 -7 -60.5 5t-41.5 42q-8 32 11 59q4 5 11 8q8 10 24 10t27 -3q24 -7 42 -24t23 -41q6 -44 -36 -56zM164 62v0q-30 -7 -60.5 5t-41.5 42
q-8 32 11 59q4 5 11 8q8 10 24 10t27 -3q24 -7 42 -24t23 -41q6 -44 -36 -56z" />
    <glyph glyph-name="semicolon" unicode=";" horiz-adv-x="261" 
d="M163 316v0q-30 -7 -60.5 5t-41.5 42q-8 32 11 59q4 5 11 8q8 10 24 10t27 -3q24 -7 42 -24t23 -41q6 -44 -36 -56zM90 185v0q38 5 76 -14.5t47 -58.5q3 -37 -20.5 -65.5t-55.5 -44.5q-15 -7 -33 -3t-31 13q-11 7 -15 18.5t9 19.5q28 14 46 40q-46 -1 -65 40q-6 20 9 36
t33 19z" />
    <glyph glyph-name="less" unicode="&#x3c;" horiz-adv-x="295" 
d="M195 391v0q14 8 38 1t36.5 -21.5t-4.5 -27.5q-18 -12 -37 -23q-57 -33 -105 -77q33 -22 63 -47q31 -27 65 -50q11 -7 15.5 -18.5t-9.5 -19.5q-15 -7 -32.5 -3t-31.5 13q-31 21 -59 46q-40 37 -88 61q-7 3 -14.5 9.5t-10.5 14t3 16.5q56 60 130 101q21 12 41 25z" />
    <glyph glyph-name="equal" unicode="=" horiz-adv-x="407" 
d="M315 337q16 0 33 -6.5t26 -20.5q7 -14 -4 -21t-22 -7h-256q-15 0 -32.5 6.5t-26.5 20.5q-7 14 4 21t22 7h256zM315 217q16 0 33 -6.5t26 -20.5q7 -14 -4 -21t-22 -7h-256q-15 0 -32.5 6.5t-26.5 20.5q-7 14 4 21t22 7h256z" />
    <glyph glyph-name="greater" unicode="&#x3e;" horiz-adv-x="295" 
d="M101 391l40 -25q74 -41 131 -101q6 -9 3 -16.5t-11 -14t-15 -9.5q-48 -24 -88 -61q-28 -25 -59 -46q-13 -9 -30.5 -13t-33.5 3q-13 8 -9 19.5t15 18.5q34 23 66 50q30 25 62 47q-47 44 -104 77q-19 11 -37 23q-18 13 -5 27.5t36.5 21.5t38.5 -1v0z" />
    <glyph glyph-name="question" unicode="?" horiz-adv-x="395" 
d="M208 124v0q22 -7 39 -22.5t22 -38.5q5 -40 -34 -51q-28 -6 -57.5 5.5t-40.5 40.5q-7 29 10 53q4 5 10 7q8 10 24 9.5t27 -3.5zM316 448v0q40 -30 47.5 -70t-28.5 -75q-13 -12 -30 -24q-29 -20 -51.5 -45.5t-15.5 -61.5q3 -17 -17.5 -19t-44 7t-28.5 26q-9 44 14 73.5
t56 53.5l29 24q18 16 26 34t-8 40q-11 13 -28 19.5t-34 -1.5q-10 -4 -18 -11t-11 -18q-3 -6 -3 -12q31 5 57 -13q5 -4 10.5 -11.5t5.5 -15t-10 -11.5q-34 -11 -75.5 -3.5t-65.5 33.5t-4 71q35 58 107 51t120 -41z" />
    <glyph glyph-name="bracketleft" unicode="[" horiz-adv-x="258" 
d="M79 591h97q15 0 32.5 -6.5t26.5 -20.5q7 -15 -4 -22t-22 -7h-79v-548h46q16 0 33 -7t26 -21q7 -14 -4 -21t-22 -7h-100q-22 -3 -45.5 7.5t-23.5 26.5v605q0 20 23 21q8 1 16 0z" />
    <glyph glyph-name="backslash" unicode="\" horiz-adv-x="336" 
d="M180 481l125 -433q3 -18 -17 -30t-43 -13t-30 15l-125 433q-3 18 17 30t43.5 13t29.5 -15v0z" />
    <glyph glyph-name="bracketright" unicode="]" horiz-adv-x="258" 
d="M178 591q9 1 17 0q23 -1 23 -21v-605q0 -16 -23.5 -26.5t-45.5 -7.5h-100q-11 0 -22 7t-4 21q9 14 26 21t33 7h46v548h-79q-11 0 -22 7t-4 22q9 14 26.5 20.5t32.5 6.5h96z" />
    <glyph glyph-name="underscore" unicode="_" horiz-adv-x="407" 
d="M325 25q16 0 33 -6.5t26 -20.5q7 -14 -4 -21t-22 -7h-276q-15 0 -32.5 6.5t-26.5 20.5q-7 14 4 21t22 7h276z" />
    <glyph glyph-name="grave" unicode="`" horiz-adv-x="218" 
d="M160 396q-25 -15 -50 -13q-11 0 -16 8l-3 8q-4 21 -12 35l-36 58q-10 18 18 34q47 27 55 16l49 -75q3 -6 9 -19t3 -33q-4 -12 -17 -19z" />
    <glyph glyph-name="braceleft" unicode="{" horiz-adv-x="318" 
d="M206 361v0q-10 -31 -26.5 -62.5t-43.5 -49.5q41 -47 51 -116q1 -4 2 -9q5 -38 17 -75q9 -26 23 -50q5 -9 11 -16l3 -3q19 -2 36 -15t18 -25.5t-27 -14.5q-59 -2 -96 37t-55 91q-5 18 -11 52q-6 43 -17 83t-33 47q-12 3 -25.5 12.5t-12.5 23.5q0 10 9.5 15t19.5 4
q25 1 41.5 31t25.5 66.5t12 56.5q7 50 26.5 94t72.5 58q17 3 39 -8t30.5 -25t-16.5 -21q-34 -10 -46.5 -48t-17.5 -81q-4 -31 -10 -52z" />
    <glyph glyph-name="bar" unicode="|" horiz-adv-x="171" 
d="M131 3v0q-2 -19 -23.5 -21t-43.5 8t-24 27l1 479q1 19 23 21t44 -8t23 -27v-479z" />
    <glyph glyph-name="braceright" unicode="}" horiz-adv-x="318" 
d="M113 361q-6 21 -10 52q-5 43 -18 81t-46 48q-25 7 -17 21t30 25t40 8q52 -14 71.5 -58t26.5 -94q3 -20 12 -56.5t25.5 -66.5t41.5 -31q11 1 20 -4t9 -15q1 -14 -12.5 -23.5t-25.5 -12.5q-21 -7 -32.5 -47t-17.5 -83q-5 -34 -11 -52q-17 -52 -54 -91t-96 -37
q-28 2 -27 14.5t17.5 25.5t35.5 15q2 1 3 3q7 7 12 16q14 24 22 50q12 37 18 75q0 5 1 9q10 69 51 116q-26 18 -43 49.5t-26 62.5v0z" />
    <glyph glyph-name="periodcentered" unicode="&#xb7;" horiz-adv-x="221" 
d="M144 192v0q-30 -7 -60.5 5t-41.5 42q-8 32 11 59q4 5 11 8q8 10 24 10t27 -3q24 -7 42 -24t23 -41q6 -44 -36 -56z" />
    <glyph glyph-name="multiply" unicode="&#xd7;" horiz-adv-x="386" 
d="M289 198l49 -48q10 -11 7 -21t-18 -14q-17 -3 -34 2.5t-30 17.5l-12 12l-50 49l-74 -74q-14 -11 -38 -6t-40 18.5t-5 27.5l96 96l-55 56l-36 36q-11 10 -7.5 20.5t17.5 13.5q17 3 34.5 -2.5t29.5 -17.5l65 -65l71 78q14 11 38 6t40 -18.5t5 -27.5l-96 -96z" />
    <glyph glyph-name="divide" unicode="&#xf7;" horiz-adv-x="407" 
d="M315 277q16 0 33 -6.5t26 -20.5q7 -14 -4 -21t-22 -7h-256q-15 0 -32.5 6.5t-26.5 20.5q-7 14 4 21t22 7h256zM237 319v0q-30 -7 -60.5 5t-41.5 42q-8 32 11 59q4 5 12 8q7 10 23.5 10t26.5 -3q24 -7 42 -24t23 -41q7 -44 -36 -56zM237 58v0q-30 -7 -60.5 5t-41.5 42
q-8 32 11 59q4 5 12 8q7 10 23.5 10t26.5 -3q24 -7 42 -24t23 -41q7 -44 -36 -56z" />
    <glyph glyph-name="quoteleft" unicode="&#x2018;" horiz-adv-x="267" 
d="M173 376v0q-37 -5 -75.5 14.5t-47.5 59.5q-3 37 20.5 65.5t55.5 44.5q15 7 33 3t31 -13q11 -8 15 -19t-9 -20q-28 -13 -46 -39q46 0 66 -41q6 -20 -9.5 -35.5t-33.5 -19.5z" />
    <glyph glyph-name="quoteright" unicode="&#x2019;" horiz-adv-x="267" 
d="M94 563v0q38 5 76 -14.5t47 -58.5q3 -37 -20.5 -65.5t-55.5 -44.5q-15 -7 -33 -3t-31 13q-11 7 -15 18.5t9 19.5q28 14 46 40q-46 -1 -65 40q-6 20 9 36t33 19z" />
    <glyph glyph-name="quotesinglbase" unicode="&#x201a;" horiz-adv-x="207" 
d="M64 138v0q38 5 76 -14.5t47 -58.5q3 -37 -20.5 -65.5t-55.5 -44.5q-15 -7 -33 -3t-31 13q-11 7 -15 18.5t9 19.5q28 14 46 40q-46 -1 -65 40q-6 20 9 36t33 19z" />
    <glyph glyph-name="quotedblleft" unicode="&#x201c;" horiz-adv-x="444" 
d="M173 376v0q-37 -5 -75.5 14.5t-47.5 59.5q-3 37 20.5 65.5t55.5 44.5q15 7 33 3t31 -13q11 -8 15 -19t-9 -20q-28 -13 -46 -39q46 0 66 -41q6 -20 -9.5 -35.5t-33.5 -19.5zM350 376v0q-37 -5 -75.5 14.5t-47.5 59.5q-3 37 20.5 65.5t55.5 44.5q15 7 33 3t31 -13
q11 -8 15 -19t-9 -20q-28 -13 -46 -39q46 0 66 -41q6 -20 -9.5 -35.5t-33.5 -19.5z" />
    <glyph glyph-name="quotedblright" unicode="&#x201d;" horiz-adv-x="444" 
d="M94 563v0q38 5 76 -14.5t47 -58.5q3 -37 -20.5 -65.5t-55.5 -44.5q-15 -7 -33 -3t-31 13q-11 7 -15 18.5t9 19.5q28 14 46 40q-46 -1 -65 40q-6 20 9 36t33 19zM271 563v0q38 5 76 -14.5t47 -58.5q3 -37 -20.5 -65.5t-55.5 -44.5q-15 -7 -33 -3t-31 13q-11 7 -15 18.5
t9 19.5q28 14 46 40q-46 -1 -65 40q-6 20 9 36t33 19z" />
    <glyph glyph-name="uni0981" unicode="&#x981;" horiz-adv-x="0" 
d="M-62 625v0q3 16 25.5 15.5t43.5 -12.5t20 -30q-9 -55 -49 -64.5t-86 9.5q-48 20 -88 52q-22 16 -45 31q-11 7 -15 18.5t9 19.5q16 7 33.5 3t30.5 -13q21 -13 40 -28q21 -16 44 -30q4 -2 10 -4l8.5 -3.5t2.5 -3.5q8 6 11 16.5t4 21.5q0 1 1 2zM-89 649v0q-15 0 -32.5 7
t-26.5 21q-7 14 4 21t22 7q16 0 33 -6.5t26 -20.5q7 -14 -3.5 -21.5t-22.5 -7.5z" />
    <glyph glyph-name="uni0982" unicode="&#x982;" horiz-adv-x="359" 
d="M256 244v0q31 -22 43 -56.5t18 -72.5q5 -43 19 -78q8 -21 -10.5 -25.5t-42 2.5t-32.5 22q-16 40 -22 82q-5 29 -13 58q-6 22 -15.5 33t-33.5 5q-30 -10 -56 -27q-16 -8 -39.5 -0.5t-36 21.5t4.5 27q107 69 216 9zM202 304v0q-44 -5 -89.5 19t-49.5 72q1 45 30 68.5
t71 24.5q9 1 18 0t15 -3q37 -13 67 -40t22 -70q-8 -29 -31.5 -48t-52.5 -23zM196 403v0q3 13 -3 24q-2 3 -4 5h-1q-3 -1 -5 -2l-4 -2q-9 -6 -15 -15q-5 -8 -8 -17.5t-2 -18.5q2 -10 6 -17h1h1q26 14 34 43z" />
    <glyph glyph-name="uni0983" unicode="&#x983;" horiz-adv-x="264" 
d="M145 404v0h-4h4v0v0zM154 456v0q36 -13 66.5 -40t21.5 -70q-8 -29 -31 -48t-53 -23q-43 -5 -88.5 19t-49.5 72q1 45 30 68.5t70 24.5q9 1 18.5 0t15.5 -3zM145 404v0v0v0h-4h4zM153 374v0q3 13 -3 24q-2 3 -4 5h-2q-2 -1 -4.5 -2t-3.5 -2q-9 -6 -15 -15q-5 -8 -8.5 -17.5
t-1.5 -18.5q1 -10 6 -17h1v0q27 14 35 43zM154 222v0q36 -13 66.5 -40t21.5 -70q-8 -29 -31 -48t-53 -24q-43 -4 -88.5 20t-49.5 72q1 45 30 68.5t70 24.5q9 1 18.5 0t15.5 -3zM153 140v0q3 13 -3 24q-2 3 -4 5q-1 0 -2 -1q-2 0 -4.5 -1t-3.5 -2q-9 -7 -15 -15
q-5 -8 -8.5 -17.5t-1.5 -19.5q1 -9 6 -16h1v0q27 13 35 43z" />
    <glyph glyph-name="uni0985" unicode="&#x985;" horiz-adv-x="686" 
d="M361 327q-12 -50 37 -53q1 28 -12 50q-7 12 -18 24q-5 -10 -7 -21zM666 500q16 0 33 -7t26 -21q7 -14 -4 -21t-22 -7h-58q5 -6 5 -13v-410q0 -20 -23 -21.5t-45.5 9t-22.5 26.5v63l-4 8q-12 24 -29 44.5t-43 21.5q-4 0 -9 1q-15 -35 -47 -59q-39 -27 -89.5 -32t-94.5 10
q-88 35 -137 109t-80 160q-7 22 12 26.5t42.5 -3t30.5 -22.5l6 -14q31 -98 95 -174q35 -42 88 -36q65 12 90 72q2 6 4 14q-54 9 -93.5 40.5t-25.5 89.5q21 58 69.5 55.5t93 -39.5t52.5 -84q3 -31 -1 -61q38 -6 70 -26v245h-535q-15 0 -32 6.5t-26 21.5q-8 14 3 21t23 7h678z
" />
    <glyph glyph-name="uni0986" unicode="&#x986;" horiz-adv-x="856" 
d="M361 327q-12 -50 37 -53q1 28 -12 50q-7 12 -18 24q-5 -10 -7 -21zM836 500q16 0 33 -7t26 -21q7 -14 -4 -21t-22 -7h-58q5 -6 5 -13v-410q0 -20 -22.5 -21.5t-45 9t-22.5 26.5v409h-85q5 -6 5 -13v-410q0 -20 -23 -21.5t-45.5 9t-22.5 26.5v63l-4 8q-12 24 -29 44.5
t-43 21.5q-4 0 -9 1q-15 -35 -47 -59q-39 -27 -89.5 -32t-94.5 10q-88 35 -137 109t-80 160q-7 22 12 26.5t42.5 -3t30.5 -22.5l6 -14q31 -98 95 -174q35 -42 88 -36q65 12 90 72q2 6 4 14q-54 9 -93.5 40.5t-25.5 89.5q21 58 69.5 55.5t93 -39.5t52.5 -84q3 -31 -1 -61
q38 -6 70 -26v245h-535q-15 0 -32 6.5t-26 21.5q-8 14 3 21t23 7h848z" />
    <glyph glyph-name="uni0987" unicode="&#x987;" horiz-adv-x="363" 
d="M160 331q11 18 15 39q2 16 3 33q-17 1 -32 -13q-17 -16 -24.5 -41t6.5 -46h1q0 1 1 1q0 1 2 2l10 7.5t11 9.5t7 8zM343 500q15 0 32.5 -7t26.5 -21q7 -14 -4 -21t-23 -7h-108l1 -7q1 -8 1 -17v-6q88 -62 71 -169q-16 -60 -63 -90t-106 -39q57 -31 112 -65q66 -41 135 -77
q27 -15 24.5 -27.5t-21.5 -17t-41 4.5q-66 35 -129 75q-93 62 -195 104q-14 6 -25.5 18.5t-10 23t26.5 10.5q42 -1 88 7t78 37q41 41 38 94q-6 -12 -17 -21q-65 -56 -144 -21q-64 35 -59.5 92.5t56.5 90.5h-67q-15 0 -32 6.5t-26 21.5q-8 14 3 21t23 7h201q6 16 7 33
q1 9 3 12v3t-1 1h-4q-19 0 -37 -1q-64 -6 -128 5q-32 6 -64 19t-51 40q-15 22 -17.5 47t19.5 43q11 7 28.5 5t34 -9.5t23.5 -17t-3 -17.5q-14 -12 -11 -29.5t21 -23.5q26 -7 52 -8q28 -1 55 1q34 4 68 0q62 -4 97 -53q11 -23 5 -50h57z" />
    <glyph glyph-name="uni0988" unicode="&#x988;" horiz-adv-x="586" 
d="M196 325q7 16 7.5 32t-10.5 30l-4 6q-9 -6 -13 -17q-5 -15 -5 -35.5t6 -37.5q12 9 19 22zM566 500q16 0 33 -7t26 -21q7 -14 -3.5 -21t-22.5 -7h-267q-5 -14 -23 -15q92 -47 91 -153q53 21 104 31q17 3 34.5 -2.5t29.5 -17.5q10 -11 7 -21t-17 -13q-50 -9 -101.5 -30
t-84.5 -59q-21 -26 -26 -63.5t10.5 -68t57.5 -34.5q16 -1 32.5 -7t26.5 -21q6 -14 -4 -21.5t-23 -6.5q-68 5 -129 46t-67 111q-84 -21 -168 -21q-15 0 -32.5 6.5t-26.5 21.5q-7 14 4 21t23 7q51 0 106.5 7t97.5 43q37 36 51 91t-17 101q-3 5 -9 9q27 -57 -5.5 -104.5
t-100.5 -40.5q-83 20 -91 106q-8 71 49 98h-111q-15 0 -32.5 6.5t-26.5 21.5q-7 14 4 21t23 7h264q5 15 7 32q1 9 2 12q1 2 1 3t-1.5 1h-4.5q-18 0 -36 -1q-65 -6 -129 5q-31 6 -63 19t-52 40q-15 22 -17.5 47t20.5 43q11 7 28.5 5t33.5 -9.5t23 -17t-2 -17.5
q-15 -12 -12 -29.5t21 -23.5q26 -7 53 -8t55 1q34 4 68 0q61 -4 96 -53q12 -23 5 -49h218z" />
    <glyph glyph-name="uni0989" unicode="&#x989;" 
d="M448 500q16 0 33 -7t26 -21q7 -14 -4 -21t-22 -7h-169q-1 -5 -3 -11q-16 -46 -15 -92q3 -27 17 -28.5t27.5 13t16.5 34.5q3 16 24.5 15.5t42.5 -10.5t23 -25q0 -19 1 -39q4 -57 -3.5 -113.5t-49.5 -93.5q-41 -30 -93 -29t-98 20q-217 88 -175 315q6 16 29 15.5t43 -13
t18 -30.5q-42 -159 98 -237q35 -16 72.5 -10.5t53.5 45.5q14 42 14 87q-60 -3 -107 24q-42 28 -44 72.5t11 90.5h-195q-15 0 -32.5 6.5t-26.5 21.5q-7 14 4 21t23 7h240q6 16 8 33q0 9 2 12q1 2 1 3t-1.5 1h-4.5q-18 0 -37 -1q-64 -6 -128 5q-32 6 -64 19t-51 40
q-15 22 -17.5 47t20.5 43q10 7 27.5 5t34 -9.5t23.5 -17t-3 -17.5q-14 -12 -11 -29.5t21 -23.5q26 -7 52 -8q28 -1 55 1q34 4 68 0q62 -4 97 -53q12 -23 5 -50h123z" />
    <glyph glyph-name="uni098A" unicode="&#x98a;" horiz-adv-x="595" 
d="M575 500q15 0 32.5 -7t26.5 -21q7 -14 -4 -21t-22 -7h-168q-1 -5 -3 -11q-17 -46 -15 -92q3 -27 16.5 -28.5t27 13t16.5 34.5q4 16 25.5 15.5t42.5 -10.5t23 -25q0 -19 1 -39q4 -57 -3.5 -113.5t-49.5 -93.5q-41 -30 -93.5 -29t-97.5 20q-91 36 -139 102
q-76 24 -134.5 74.5t-22.5 136.5q10 16 34 14t43 -14t13 -28q-14 -26 -14 -52t23 -47q11 -9 23 -15q-20 64 -1 144q5 16 28.5 15.5t43.5 -13t18 -30.5q-42 -159 98 -237q35 -16 72 -10.5t54 45.5q13 42 14 87q-60 -3 -107 24q-42 28 -44.5 72.5t11.5 90.5h-323
q-16 0 -33 6.5t-26 21.5q-7 14 4 21t22 7h369q6 16 7 33q1 9 3 12v3t-1 1h-4q-19 0 -37 -1q-64 -6 -128 5q-32 6 -64 19t-51 40q-15 22 -17.5 47t19.5 43q11 7 28.5 5t33.5 -9.5t23.5 -17t-2.5 -17.5q-14 -12 -11 -29.5t21 -23.5q26 -7 52 -8q28 -1 55 1q34 4 68 0
q62 -4 97 -53q11 -23 5 -50h122z" />
    <glyph glyph-name="uni098B" unicode="&#x98b;" horiz-adv-x="568" 
d="M286 170q-6 79 -3 157q-12 -12 -26 -24l-23 -17q-36 -22 -60 -55q8 -4 17 -8q49 -19 95 -53zM548 500q15 0 32.5 -7t26.5 -21q7 -14 -4 -21t-22 -7h-33q0 -4 -1 -8q-42 -149 -19 -301q3 -33 5 -65q0 -19 -21.5 -21t-44 8t-25.5 27q0 14 -1 28q-7 4 -11 9q-25 29 -54 50
l2 -32q3 -51 5 -102q2 -6 0 -10v-9q-1 -19 -23 -21t-44 8t-23 27q0 5 -1 10v4l-11 19q-13 25 -30 49.5t-38 39.5q-31 19 -65 33q-24 9 -47 21q-5 3 -12.5 8t-12 11.5t-1.5 14.5q25 49 70 78q15 11 29 23q17 14 31 30q-2 1 -5 2q-10 -4 -20 -6q-31 -7 -62 2q-62 15 -92 72
q-10 22 -4.5 44t27.5 34q27 14 56.5 11t56.5 -15q6 -3 14 -9.5t11.5 -14.5t-3.5 -16q-12 -11 -30 -8.5t-31 8.5q2 -1 2 -1.5t-1 -0.5l-4 -2t-4 -3q-7 -9 -6 -20q3 -15 14 -27q1 0 1 -1h1q1 1 3 1q28 15 59 14q31 -4 54 -23q20 23 42 44q9 7 23 6q13 9 34 5.5t37 -15
t13 -26.5q-23 -97 -18 -196q33 -13 61 -33q-16 134 23 265q3 7 9 10q-4 13 6.5 19.5t21.5 6.5h54z" />
    <glyph glyph-name="uni098F" unicode="&#x98f;" horiz-adv-x="457" 
d="M410 39v0q2 -8 3 -16q1 -18 -20 -20.5t-44 7.5t-26 27q-7 34 -42 50t-68 23l-6 2q-70 18 -141 27q-24 4 -37 18.5t-8 26.5t35 9q105 -12 205 -44q29 -10 61 -26l4 40q3 30 5 60q1 11 2 24q4 42 3.5 87.5t-16.5 81.5h-2l-1 -1q-49 -10 -89 -38q-20 -16 -35 -39t-15 -50
q10 10 19 21q15 19 28 39q10 13 33.5 9.5t40.5 -17.5t8 -31q-20 -36 -53.5 -68t-78.5 -26q-97 20 -84 116q17 64 74.5 100t121.5 43q82 6 111.5 -47t28.5 -132.5t-10 -154.5q-7 -59 -7 -96v-5z" />
    <glyph glyph-name="uni0990" unicode="&#x990;" horiz-adv-x="569" 
d="M410 39v0q2 -8 3 -16q1 -18 -20 -20.5t-44 7.5t-26 27q-7 34 -42 50t-68 23l-6 2q-70 18 -141 27q-24 4 -37 18.5t-8 26.5t35 9q105 -12 205 -44q29 -10 61 -26l4 40q3 30 5 60q1 11 2 24q4 42 3.5 87.5t-16.5 81.5h-2l-1 -1q-49 -10 -89 -38q-20 -16 -35 -39t-15 -50
q10 10 19 21q15 19 28 39q10 13 33.5 9.5t40.5 -17.5t8 -31q-20 -36 -53.5 -68t-78.5 -26q-97 20 -84 116q17 64 74.5 100t121.5 43q82 6 111.5 -47t28.5 -132.5t-10 -154.5q-7 -59 -7 -96v-5zM328 592v0v0q-7 3 -15 9.5t-11 14.5t3 16q12 10 30 8t31 -8q52 -22 99 -56
t71 -87q23 -60 6 -124.5t-49 -117.5q-10 -15 -34.5 -13t-43 14.5t-11.5 26.5q27 46 44.5 101t3.5 108q-14 42 -49.5 67t-74.5 41z" />
    <glyph glyph-name="uni0993" unicode="&#x993;" horiz-adv-x="455" 
d="M378 268q31 -22 47.5 -52.5t2.5 -69.5q-40 -100 -146 -116q-104 -6 -185 69.5t-77 179.5q3 16 25.5 15.5t43.5 -12t21 -30.5q-3 -58 33 -105q16 -22 43 -44t56 -18q34 9 64 39t35.5 65t-33.5 60q-4 2 -7 4q-12 7 -17 16.5t1 20.5q1 2 2 3q13 20 23 42t6 45
q-3 15 -9.5 28.5t-22.5 13.5q-20 -1 -38 -10t-23 -30q-2 -11 -1 -21q15 3 32.5 -2.5t29 -16t8.5 -23.5q-14 -38 -46 -42t-63.5 15t-43.5 50q-15 44 1 80t63 49q47 11 94.5 1.5t81.5 -46.5q32 -38 27 -79t-28 -79z" />
    <glyph glyph-name="uni0994" unicode="&#x994;" horiz-adv-x="539" 
d="M378 268q31 -22 47.5 -52.5t2.5 -69.5q-40 -100 -146 -116q-104 -6 -185 69.5t-77 179.5q3 16 25.5 15.5t43.5 -12t21 -30.5q-3 -58 33 -105q16 -22 43 -44t56 -18q34 9 64 39t35.5 65t-33.5 60q-4 2 -7 4q-12 7 -17 16.5t1 20.5q1 2 2 3q13 20 23 42t6 45
q-3 15 -9.5 28.5t-22.5 13.5q-20 -1 -38 -10t-23 -30q-2 -11 -1 -21q15 3 32.5 -2.5t29 -16t8.5 -23.5q-14 -38 -46 -42t-63.5 15t-43.5 50q-15 44 1 80t63 49q47 11 94.5 1.5t81.5 -46.5q32 -38 27 -79t-28 -79zM297 589v0v0q-6 3 -14 9.5t-11.5 14.5t3.5 16q12 10 29.5 8
t31.5 -8q51 -22 98.5 -56t71.5 -87q22 -60 5.5 -124.5t-48.5 -117.5q-11 -15 -35 -13t-42.5 14.5t-12.5 26.5q28 46 45 101t3 108q-14 42 -49.5 67t-74.5 41z" />
    <glyph glyph-name="uni0995" unicode="&#x995;" horiz-adv-x="601" 
d="M251 355q-22 -25 -48 -47l-33 -27q-27 -22 -49 -46q8 -4 16 -7q49 -19 92 -51q13 -11 25 -24v6q-12 99 -3 196zM356 444q2 -6 1 -12q-30 -143 -13 -290q4 -60 5 -120q-1 -19 -23 -21t-43.5 8t-24.5 20.5t-6 15.5l-14 25q-14 25 -35.5 49.5t-43.5 39.5q-31 19 -65 32
q-24 10 -47 22q-5 2 -12.5 7t-12 12t-1.5 12q26 42 60 70l39 33q31 28 57 59q17 20 35 38h-192q-16 0 -33 7t-26 21q-7 14 3.5 21t22.5 7h594q16 0 33 -6.5t26 -20.5q7 -14 -4 -21.5t-22 -7.5h-258zM539 372v0q40 -45 42 -105t-46 -102q-40 -26 -88.5 -10t-69.5 57
q-21 49 8 72.5t77 20.5q13 -1 28 -5q-1 40 -38 67q-55 36 -120 34q-16 0 -33 7t-26 21q-7 14 3 21t23 7q63 1 128.5 -19.5t111.5 -65.5zM462 216v0q6 7 10.5 15.5t6.5 14.5q1 3 2 7q-14 -2 -21 -10.5t2 -25.5v0v-1z" />
    <glyph glyph-name="uni0996" unicode="&#x996;" 
d="M337 36q-87 118 -213 149q-21 3 -34 15t-12.5 24t19.5 15q2 2 6 4q33 13 66 35t44 59q14 67 -36 85q20 -45 -4 -86t-82 -50q-37 -4 -64 20q-9 10 -6.5 21t17.5 13q21 3 39.5 19.5t23 38t-17.5 39.5q-14 10 -15.5 23t17.5 17q64 11 131.5 -12t88.5 -91q11 -55 -17 -94
t-73 -64q66 -27 122 -85v414q0 20 22.5 21.5t45.5 -8.5t23 -27v-31h20q15 0 32.5 -6.5t26.5 -20.5q7 -14 -4 -21.5t-23 -7.5h-52v-422q0 -20 -22.5 -21.5t-45.5 9t-23 26.5z" />
    <glyph glyph-name="uni0997" unicode="&#x997;" horiz-adv-x="449" 
d="M429 500q15 0 32 -7t26 -21q7 -14 -3.5 -21.5t-22.5 -7.5h-52v-421q0 -20 -22.5 -22t-45.5 8.5t-23 26.5v231q0 2 -1 4q-9 42 -32.5 91.5t-71.5 57.5q-38 1 -60.5 -25t-32.5 -63q62 -2 109 -44t46 -107q-2 -19 -24 -21t-43.5 8t-22.5 27q1 27 -8.5 49.5t-27 28
t-42.5 -19.5q-10 -9 -30 -8t-37.5 10.5t-19.5 24.5q-1 83 46.5 143t136.5 51q71 -12 115 -54v125q0 20 23 21.5t45.5 -8.5t22.5 -27v-30h20z" />
    <glyph glyph-name="uni0998" unicode="&#x998;" horiz-adv-x="459" 
d="M329 125v319h-153q-14 -5 -25 -13t-19 -19q-10 -14 -15 -31q-4 -15 -6 -33.5t5 -33.5q11 -19 26 -15.5t27.5 19.5t15.5 31q5 16 27.5 15.5t43 -12.5t19.5 -30q-2 -8 -4 -14q6 -10 -3 -18q-62 -61 -101 -139q87 5 162 -26zM439 500q16 0 33 -6.5t26 -20.5q7 -14 -4 -21.5
t-22 -7.5h-53v-422q0 -20 -22.5 -21.5t-45 9t-22.5 26.5v16q-16 6 -23 16q-18 27 -62 29.5t-85 -1.5q-21 -2 -35 -2q-16 0 -33 6.5t-26 20.5q-1 3 -2 5q-8 9 -3 19q26 54 59 105q-46 13 -75 44q-26 31 -24.5 74t26.5 76h-26q-15 0 -32 7t-26 21q-8 14 3 21t23 7h451z" />
    <glyph glyph-name="uni0999" unicode="&#x999;" horiz-adv-x="497" 
d="M312 400q-2 8 -6 9t-10 -6q-13 -18 -14 -41q12 6 22.5 15.5t7.5 22.5zM472 293q2 -3 2 -6q0 -18 1 -35q5 -58 -5 -111t-68 -83q-113 -54 -227 -4q-80 47 -129.5 151.5t-1.5 190.5q10 13 34 9t41 -17.5t8 -30.5q-33 -59 -0.5 -140t82.5 -119q31 -19 76 -10.5t71 33.5
q29 34 30 77q-35 -20 -84 -21q-10 0 -26 4.5t-28 14t-8 22.5q0 1 -1 1q0 1 -1 2q-2 3 -4.5 9l-4.5 11v1q-9 19 -16 38h-7q-16 0 -33 6.5t-26 20.5q-7 14 3 21.5t23 7.5q11 -1 23 0q-9 34 -2 66q14 49 56 58.5t87 -7.5q24 -10 43.5 -30.5t22.5 -45t-24 -45.5q-37 -27 -85 -41
q3 -7 5 -13q4 -10 12 -24q2 -5 5 -10q42 27 67 77q11 16 35 14t42.5 -14.5t12.5 -26.5v-1h-1z" />
    <glyph glyph-name="uni099A" unicode="&#x99a;" horiz-adv-x="316" 
d="M200 213q-7 26 -27 46t-44 37q-7 -108 6 -214q34 20 53.5 56.5t11.5 74.5zM296 500q16 0 33 -6.5t26 -20.5q7 -14 -4 -21.5t-22 -7.5h-194q-1 -42 -3 -84q19 -6 32 -18q19 -18 40 -34q34 -26 60 -56.5t28 -76.5q-1 -61 -43 -107t-102 -55q-11 -1 -22 1q-21 -2 -43.5 7
t-28.5 26q-27 146 -13 296q3 51 4 101h-24q-15 0 -32 7t-26 21q-7 14 3.5 21t22.5 7h308z" />
    <glyph glyph-name="uni099B" unicode="&#x99b;" horiz-adv-x="435" 
d="M161 337q-2 1 -3 2q-17 7 -34 15q-5 -54 4 -106q28 8 51.5 25t17.5 42q-3 7 -12 11.5t-18 7.5q-3 2 -6 3zM415 500q15 0 32.5 -6.5t26.5 -20.5q7 -14 -4 -21.5t-22 -7.5h-317l-2 -35q7 -2 13 -5q16 -9 38 -18q46 -17 82 -45q47 13 96 -10q31 -16 46.5 -45.5t8.5 -64.5
q-30 -100 -122 -129q59 -13 103 -43t57 -81q5 -18 -17 -20t-45 7t-28 25q-17 50 -81 63t-119 10h-21q-19 0 -38 13t-21.5 27t27.5 16h7l35 8q73 10 127 53q36 32 46 79q3 20 -4 38q-5 -1 -14 -4t-19 -11q-15 -43 -63.5 -63t-89.5 -22q-7 0 -15 1q-19 -2 -39 5.5t-27 20.5
q-28 90 -15 181q2 25 3 49h-20q-15 0 -32.5 7t-26.5 21q-7 14 4 21t23 7h427z" />
    <glyph glyph-name="uni099C" unicode="&#x99c;" horiz-adv-x="607" 
d="M645 473q7 -14 -3.5 -21.5t-22.5 -7.5h-304q1 -4 0 -8l-2 -6v-2q75 4 149 -2q38 -3 73 -26.5t48 -60.5q7 -23 2 -41.5t-14 -36.5q-11 -21 -16 -46q-8 -39 -4 -80q2 -21 8 -34q3 -7 5 -10t11.5 -6.5t15 -18t-7 -23t-40.5 -1.5q-63 23 -77.5 82t-0.5 119q4 17 14 37
q12 23 16.5 45.5t-12.5 39.5q-10 8 -30 8.5t-40 -0.5q-13 -1 -23 -1h-14q-33 1 -65 -2h-14q-5 -24 -4 -48q4 -27 17.5 -28.5t27 13t16.5 34.5q4 16 25.5 15.5t42.5 -10.5t23 -25q0 -19 1 -39q3 -57 -4 -113.5t-49 -93.5q-42 -30 -94 -29t-97 20q-218 88 -175 315
q5 16 28 15.5t43.5 -13t17.5 -30.5q-42 -159 99 -237q34 -16 71.5 -10.5t53.5 45.5q14 42 15 87q-61 -3 -107 24q-46 31 -45 82t17 100h-200q-15 0 -32.5 7t-26.5 21q-7 14 4 21t23 7h599q15 0 32 -6.5t26 -20.5z" />
    <glyph glyph-name="uni099D" unicode="&#x99d;" horiz-adv-x="537" 
d="M251 355q-22 -25 -48 -47l-33 -27q-27 -22 -49 -46q8 -4 16 -7q49 -19 92 -51q13 -11 25 -24v6q-12 99 -3 196zM423 444h-67q2 -6 1 -12q-20 -96 -19 -194q33 -13 63 -33q-10 121 22 239zM341 178q1 -18 3 -36q4 -60 5 -120q0 -19 -22.5 -21t-44 8t-24.5 20.5t-6 15.5
l-14 25q-14 25 -35.5 49.5t-43.5 39.5q-31 19 -65 32q-24 10 -47 22q-5 2 -12.5 7t-12 12t-1.5 12q26 42 60 70l39 33q31 28 57 59q17 20 35 38h-192q-16 0 -33 7t-26 21q-7 14 3.5 21t22.5 7h530q16 0 33 -6.5t26 -20.5q7 -14 -4 -21.5t-22 -7.5h-35q3 -7 1 -15
q-41 -144 -18 -292l4 -63q0 -19 -21.5 -21t-44 8t-24.5 27l-2 28q-6 4 -11 9q-25 32 -58 53z" />
    <glyph glyph-name="uni099E" unicode="&#x99e;" horiz-adv-x="630" 
d="M400 424q5 1 11 3q62 13 124 -19t74 -97q6 -64 -40 -92q16 -13 22 -32q5 -17 -1.5 -33t-18.5 -27q-42 -37 -95 -36q-33 0 -63 10q-3 -33 -3 -57v-5q2 -8 3 -22q1 -12 -20 -14.5t-44 7.5t-26 27q-7 34 -42 50t-68 23l-6 2q-70 18 -141 27q-24 4 -37 18.5t-8 26.5t35 9
q105 -12 205 -44q29 -10 61 -26l4 40q3 30 5 60q1 11 2 24q4 42 3.5 87.5t-16.5 81.5h-2l-1 -1q-49 -10 -89 -38q-20 -16 -35 -39t-15 -50q10 10 19 21q15 19 28 39q10 13 33.5 9.5t40.5 -17.5t8 -31q-20 -36 -53.5 -68t-78.5 -26q-97 20 -84 116q17 64 74.5 100t121.5 43
q82 6 112 -47q0 -2 1 -3zM423 203l-4 -49q8 -3 15 -7q-4 2 1 -1h1q2 0 3 -1h2h4.5t3.5 0.5l6 1.5q1 1 2 1q7 2 17 7.5t17 12.5q13 14 11 27q-41 -4 -79 8zM427 295q0 -13 -1 -26q11 -21 30 -20q9 6 21 5q20 10 32.5 29.5t9.5 41.5q-3 15 -13.5 32t-28.5 18q-25 -1 -36.5 -21
t-13.5 -43v-16z" />
    <glyph glyph-name="uni099F" unicode="&#x99f;" horiz-adv-x="366" 
d="M346 500q15 0 32.5 -6.5t26.5 -20.5q7 -14 -4 -21.5t-23 -7.5h-246q-15 -177 6 -353q16 7 31 17q35 24 63 56q24 25 23 60q0 19 -6 37q-3 9 -9 18q-32 -1 -55 20q-9 10 -6.5 21t17.5 13q45 5 84 -14t56 -63q28 -73 -21 -131q-54 -64 -132 -92q-53 -16 -101 11
q-25 10 -30 28q-1 2 -1 4v3q-4 7 -2 12q-22 176 -9 353h-20q-15 0 -32 7t-26 21q-7 14 3.5 21t22.5 7h191q2 7 4 13q8 21 11 43q1 9 2 12q1 2 1 2.5t-1.5 1t-4.5 0.5q-18 0 -36 -1q-65 -7 -129 4q-32 6 -64 19t-51 41q-15 22 -17.5 47t20.5 43q11 7 28.5 5t33.5 -10
t23 -17.5t-3 -17.5q-14 -12 -11 -29.5t21 -23.5q26 -6 53 -7t54 1q34 3 68 0q62 -5 97 -54q9 -16 7.5 -34.5t-7.5 -37.5h68z" />
    <glyph glyph-name="uni09A0" unicode="&#x9a0;" horiz-adv-x="447" 
d="M324 156q21 63 0 119t-62 105q9 -38 3 -73.5t-41 -65.5q-52 -41 -112 -34q2 -35 16 -64t50 -40q44 -14 85 -3.5t61 56.5zM238 500h189q16 0 33 -6.5t26 -20.5q7 -14 -4 -21.5t-22 -7.5h-168q85 -82 126 -185q17 -52 3 -110.5t-64 -88.5q-57 -27 -121.5 -21t-119.5 35
q-101 58 -96 177q2 18 22 21q14 5 31.5 3t30.5 -11t30 7t29.5 38t14.5 33q1 51 -19 100q-1 1 -1 2h-138q-16 0 -33 7t-26 21q-7 14 4 21t22 7h165l-11 13l-25 28q-29 34 -29 78q0 51 33.5 81t82.5 29q17 -1 33.5 -7t25.5 -21q7 -13 -3 -20.5t-23 -7.5q-26 0 -41 -19t-17 -44
q-3 -32 15 -54q23 -30 45 -56z" />
    <glyph glyph-name="uni09A1" unicode="&#x9a1;" 
d="M448 500q16 0 33 -7t26 -21q7 -14 -4 -21t-22 -7h-169q-1 -5 -3 -11q-16 -46 -15 -92q3 -27 17 -28.5t27.5 13t16.5 34.5q3 16 24.5 15.5t42.5 -10.5t23 -25q0 -19 1 -39q4 -57 -3.5 -113.5t-49.5 -93.5q-41 -30 -93 -29t-98 20q-217 88 -175 315q6 16 29 15.5t43 -13
t18 -30.5q-42 -159 98 -237q35 -16 72.5 -10.5t53.5 45.5q14 42 14 87q-60 -3 -107 24q-42 28 -44 72.5t11 90.5h-195q-15 0 -32.5 6.5t-26.5 21.5q-7 14 4 21t23 7h460z" />
    <glyph glyph-name="uni09A2" unicode="&#x9a2;" horiz-adv-x="366" 
d="M346 500q15 0 32.5 -6.5t26.5 -20.5q7 -14 -4 -21.5t-23 -7.5h-246q-15 -177 6 -353q16 7 31 17q35 24 63 56q24 25 23 60q0 19 -6 37q-3 9 -9 18q-32 -1 -55 20q-9 10 -6.5 21t17.5 13q45 5 84 -14t56 -63q28 -73 -21 -131q-54 -64 -132 -92q-53 -16 -101 11
q-25 10 -30 28q-1 2 -1 4v3q-4 7 -2 12q-22 176 -9 353h-20q-15 0 -32 7t-26 21q-7 14 3.5 21t22.5 7h358z" />
    <glyph glyph-name="uni09A3" unicode="&#x9a3;" horiz-adv-x="464" 
d="M444 500v0q16 0 33 -7t26 -21q7 -14 -4 -21t-22 -7h-57q-10 -203 14 -423q1 -19 -20 -21t-44 7.5t-26 26.5q-19 169 -17 321v0v0q-15 24 -44 51.5t-63 40.5t-64 -6q-22 -15 -39 -46t-3 -58q12 -19 33 -22.5t42 1.5q16 3 33.5 -2.5t29.5 -17.5q10 -10 7 -20.5t-17 -13.5
q-49 -9 -101.5 1.5t-90.5 45.5q-34 37 -29.5 83.5t42.5 80.5q60 46 132 32.5t134 -61.5q2 58 6 116q2 16 24 15.5t43.5 -12t21.5 -30.5l-2 -33h22z" />
    <glyph glyph-name="uni09A4" unicode="&#x9a4;" horiz-adv-x="508" 
d="M361 307q-12 -50 37 -53q1 27 -12 50q-8 12 -18 24q-5 -10 -7 -21zM271 334q20 57 69 55t93.5 -39t51.5 -84q16 -105 -63 -173q-38 -27 -88.5 -32t-94.5 11q-88 35 -137 109t-80 160q-7 21 11.5 26t42 -2.5t31.5 -22.5q3 -7 6 -15q31 -97 95 -173q35 -42 88 -36
q64 11 89 72q3 6 5 13q-54 10 -94 41.5t-25 89.5zM488 500q16 0 33 -6.5t26 -20.5q7 -14 -4 -21.5t-22 -7.5h-501q-16 0 -33 7t-26 21q-7 14 4 21t22 7h501z" />
    <glyph glyph-name="uni09A5" unicode="&#x9a5;" horiz-adv-x="424" 
d="M162 219q5 -1 9 -3q66 -27 122 -85v414q0 20 22.5 21.5t45.5 -8.5t23 -27v-31h20q15 0 32.5 -6.5t26.5 -20.5q7 -14 -4 -21.5t-23 -7.5h-52v-422q0 -20 -22.5 -21.5t-45.5 9t-23 26.5q-87 118 -213 151q-15 4 -29 9q-11 4 -23 15q-9 10 -8 19t9 14t15 7t14 2
q40 1 68.5 30.5t34.5 69.5q4 26 1.5 45.5t-8.5 21.5q-9 3 -19 4q1 -9 1 -18q2 -21 0.5 -42t-14.5 -37q-13 -12 -37 -7.5t-40.5 18t-5.5 28.5q8 10 8 26t-1 32q-1 9 -1 17t5 13q-6 13 4 20t23 7q54 0 113.5 -20.5t59.5 -105.5q-1 -64 -39 -102q-20 -19 -49 -34z" />
    <glyph glyph-name="uni09A6" unicode="&#x9a6;" horiz-adv-x="397" 
d="M377 500q15 0 32 -6.5t27 -20.5q7 -14 -4 -21.5t-23 -7.5h-279v-162q48 35 102 45t108 -23q5 -3 10.5 -9t5.5 -12q-1 -28 -9 -62q-11 -45 -15 -102t20 -72q28 -15 25 -27.5t-22 -17.5t-41 5q-59 32 -64.5 92t6.5 116q5 23 8 55q-25 -6 -46 -21q-32 -23 -61 -51
q-8 -7 -15 -14q-15 -12 -36 -8.5t-35 14.5q-22 15 -26.5 31t-4.5 38v185h-20q-16 0 -33 7t-26 21q-7 14 3.5 21t22.5 7h390z" />
    <glyph glyph-name="uni09A7" unicode="&#x9a7;" horiz-adv-x="387" 
d="M251 355q-22 -25 -48 -47l-33 -27q-27 -22 -49 -46q8 -4 16 -7q49 -19 92 -51q13 -11 25 -24v6q-12 99 -3 196zM172 400q3 3 5 6q17 20 35 38q28 29 50 41q4 15 24 15h81q16 0 33 -6.5t26 -20.5q7 -14 -4 -21.5t-22 -7.5h-44q2 -6 1 -12q-30 -143 -13 -290q4 -60 5 -120
q0 -19 -22.5 -21t-44 8t-24.5 20.5t-6 15.5l-14 25q-14 25 -35.5 49.5t-43.5 39.5q-31 19 -65 32q-24 10 -47 22q-5 2 -12.5 7t-12 12t-1.5 12q26 42 60 70l39 33q7 6 13 12q-25 8 -47 21t-33 38q-7 17 -7.5 38.5t11.5 37.5q12 14 30 18t35 3q17 0 33.5 -6.5t25.5 -20.5
q7 -14 -3 -21.5t-23 -6.5q-8 0 -12 -2t-5 -11q-2 -8 -1.5 -19.5t5.5 -17.5q1 -1 4 -3q7 -3 12 -4q8 -2 14 -3z" />
    <glyph glyph-name="uni09A8" unicode="&#x9a8;" horiz-adv-x="470" 
d="M509 473v0q7 -14 -3 -21.5t-23 -7.5h-53v-4q-18 -201 10 -419q1 -18 -20 -20t-43.5 7.5t-27.5 26.5q-10 86 -14 153q-5 4 -8 9q-15 24 -44 51.5t-63 40.5t-64 -6q-22 -15 -39 -46t-3 -58q12 -19 33 -22.5t42 1.5q16 3 33.5 -2.5t29.5 -17.5q10 -10 7 -20.5t-17 -13.5
q-49 -9 -101.5 1.5t-90.5 45.5q-34 37 -30 83.5t43 80.5q61 47 134.5 32t135.5 -64q0 81 6 161h-319q-17 0 -33.5 6.5t-25.5 20.5q-7 14 3 21.5t23 7.5h463q17 0 33.5 -6.5t25.5 -20.5z" />
    <glyph glyph-name="uni09AA" unicode="&#x9aa;" 
d="M183 295q52 41 116 42q-19 35 -48.5 63.5t-66.5 19.5q-21 -7 -34.5 -24t-24.5 -36q36 -24 58 -65zM448 500q16 0 32.5 -6.5t25.5 -20.5q7 -15 -3 -22t-23 -7h-56q-9 -203 14 -423q2 -19 -19.5 -21t-45 7.5t-25.5 26.5q-14 133 -16 246q-7 1 -12 0q-10 -1 -19 -6
q-21 -11 -40 -25q-24 -19 -41 -44q-9 -12 -26.5 -10t-34.5 11t-23 19q-9 16 -16 33q-6 15 -14 29q-3 6 -5 11q-5 11 -11.5 18.5t-19.5 8.5q-9 1 -23.5 7.5t-22.5 16.5t0 22q10 14 18 28q20 40 56 62q53 25 112 13q72 -15 122 -69q2 78 7 156q2 16 24 15.5t43.5 -12
t22.5 -30.5l-2 -34h21z" />
    <glyph glyph-name="uni09AB" unicode="&#x9ab;" horiz-adv-x="567" 
d="M298 365q0 13 15 29q26 29 67.5 28t74.5 -19q74 -41 90 -127q5 -33 -3.5 -65t-48.5 -34q-85 5 -84 88q2 12 16 14.5t32 -2.5q-2 20 -7 39q-3 14 -13 28t-21 21q-5 3 -18 -8q-9 -7 -9 -12v-310q0 -10 -7.5 -15t-20.5 -7q-36 -5 -63 20q2 -2 1.5 -2.5t-3 0t-4.5 1.5
q-3 1 -5 2q-19 3 -38 5q-13 2 -26 3q-29 3 -58 7q-36 5 -76.5 18.5t-60.5 45.5q-16 33 -1 66.5t39 62.5q12 16 20 31q4 6 12 16q14 20 27 43.5t10 39.5q-7 17 -29.5 30.5t-39.5 17.5q-9 2 -20 8.5t-16 15.5h-10q-16 0 -33 7t-26 21q-7 14 3.5 21t23.5 7h559q17 0 33.5 -7
t25.5 -21q7 -14 -3 -21t-23 -7h-439q35 -18 61.5 -44t22.5 -56q-11 -42 -36 -77q-9 -15 -17 -30q-10 -18 -25 -36q-28 -33 -37 -70q-1 -15 14.5 -22.5t38 -9.5t41.5 -3q12 0 18 -1h4q36 -3 72 -11v281z" />
    <glyph glyph-name="uni09AC" unicode="&#x9ac;" horiz-adv-x="387" 
d="M251 355q-22 -25 -48 -47l-33 -27q-27 -22 -49 -46q8 -4 16 -7q49 -19 92 -51q13 -11 25 -24v6q-12 99 -3 196zM356 444q2 -6 1 -12q-30 -143 -13 -290q4 -60 5 -120q0 -19 -22.5 -21t-44 8t-24.5 20.5t-6 15.5l-14 25q-14 25 -35.5 49.5t-43.5 39.5q-31 19 -65 32
q-24 10 -47 22q-5 2 -12.5 7t-12 12t-1.5 12q26 42 60 70l39 33q31 28 57 59q17 20 35 38h-192q-16 0 -33 7t-26 21q-7 14 3.5 21t22.5 7h380q16 0 33 -6.5t26 -20.5q7 -14 -4 -21.5t-22 -7.5h-44z" />
    <glyph glyph-name="uni09AD" unicode="&#x9ad;" horiz-adv-x="483" 
d="M20 444q-16 0 -32.5 7t-25.5 21q-8 14 2.5 21t23.5 7h475q16 0 33 -7t26 -21q7 -14 -3.5 -21t-23.5 -7h-475zM452 286v0q20 -58 3.5 -118t-70.5 -93q-124 -58 -245 22.5t-120 215.5q4 16 26 15.5t43 -12t21 -30.5q-2 -48 28.5 -97.5t79 -73t97.5 7.5q32 22 47 59t10 75
q-3 27 -17 56q5 -26 2 -53q-6 -65 -68 -81q-66 -8 -111.5 37.5t-20.5 110.5q10 16 34 14t43 -14t13 -27q-7 -15 -10 -34.5t9 -30.5q0 1 1 2q11 11 16 26q11 39 -2 79q-3 9 -8 17q-4 7 -7 14.5t-2 16.5q2 6 7 9t11.5 4t10.5 1q128 0 179 -118z" />
    <glyph glyph-name="uni09AE" unicode="&#x9ae;" horiz-adv-x="465" 
d="M160 149q19 17 28 40q-24 3 -46.5 -2.5t-27.5 -27.5q-1 -16 7 -20.5t19 -1t20 11.5zM329 193q-11 127 13 251h-180l-1 -4q-7 -24 -24 -41q-13 -14 -21 -32q-6 -9 -3 -19h1l1 -1q16 -2 31 -5q36 -6 70 -26t51 -54q10 -23 13 -45q25 -11 49 -24zM434 444q2 -6 1 -12
q-30 -143 -13 -290q4 -60 5 -120q-1 -20 -23 -22t-43.5 8.5t-23.5 26.5q-1 44 -3 88q0 1 -1 1q-26 22 -58 39q-27 -77 -124 -82q-32 0 -68.5 16t-51.5 48q-21 59 37 87q58 22 120 12q-4 17 -14.5 30t-28.5 16q-4 1 -10 2q-21 2 -42.5 7.5t-37.5 18.5q-16 11 -27.5 29
t-4.5 39q9 20 23 36q9 10 16 22h-42q-16 0 -33 6.5t-26 20.5q-7 14 3.5 21.5t23.5 7.5h457q16 0 32.5 -7t25.5 -21q7 -14 -3 -21t-23 -7h-43z" />
    <glyph glyph-name="uni09AF" unicode="&#x9af;" horiz-adv-x="429" 
d="M298 84v360h-157q35 -18 61.5 -44t22.5 -56q-11 -42 -36 -77q-9 -15 -17 -30q-10 -18 -25 -36q-28 -33 -37 -70q-1 -15 14.5 -22.5t38 -9.5t41.5 -3q12 0 18 -1h4q36 -3 72 -11zM409 500q17 0 33.5 -7t25.5 -21q7 -14 -3 -21t-23 -7h-53v-409q0 -10 -7.5 -15t-20.5 -7
q-36 -5 -63 20q2 -2 1.5 -2.5t-3 0t-4.5 1.5q-3 1 -5 2q-19 3 -38 5q-13 2 -26 3q-29 3 -58 7q-36 5 -76.5 18.5t-60.5 45.5q-16 33 -1 66.5t39 62.5q12 16 20 31q4 6 12 16q14 20 27 43.5t10 39.5q-7 17 -29.5 30.5t-39.5 17.5q-9 2 -20 8.5t-16 15.5h-10q-16 0 -33 7
t-26 21q-7 14 3.5 21t23.5 7h421z" />
    <glyph glyph-name="uni09B0" unicode="&#x9b0;" horiz-adv-x="387" 
d="M251 355q-22 -25 -48 -47l-33 -27q-27 -22 -49 -46q8 -4 16 -7q49 -19 92 -51q13 -11 25 -24v6q-12 99 -3 196zM356 444q2 -6 1 -12q-30 -143 -13 -290q4 -60 5 -120q0 -19 -22.5 -21t-44 8t-24.5 20.5t-6 15.5l-14 25q-14 25 -35.5 49.5t-43.5 39.5q-31 19 -65 32
q-24 10 -47 22q-5 2 -12.5 7t-12 12t-1.5 12q26 42 60 70l39 33q31 28 57 59q17 20 35 38h-192q-16 0 -33 7t-26 21q-7 14 3.5 21t22.5 7h380q16 0 33 -6.5t26 -20.5q7 -14 -4 -21.5t-22 -7.5h-44zM81 138q27 5 56.5 -5t44.5 -35q17 -37 -18 -58q-15 -7 -33 -3t-31 13
q-11 8 -15.5 19t9.5 19v1q-14 5 -23 15q-10 11 -7 21t17 13z" />
    <glyph glyph-name="uni09B2" unicode="&#x9b2;" horiz-adv-x="456" 
d="M436 500q16 0 33 -7t26 -21q7 -14 -3.5 -21t-23.5 -7h-44q3 -6 1 -13q-30 -143 -13 -290q5 -60 6 -120q0 -19 -23 -21t-44.5 8t-22.5 27l-4 84q-5 6 -8 13q-11 34 -32 64q-13 -49 -11 -99q0 -15 -14.5 -19t-34 0.5t-32.5 15.5q-10 5 -18 12q-18 18 -33 38l-10 12l-8 10
v-12q2 -55 -12 -108q-7 -17 -30.5 -15.5t-43.5 13.5t-16 29q14 53 12 109q0 27 2 53q1 6 7 9.5t11 3.5q69 6 119 -41q8 -8 15 -16q9 44 24 87q7 13 23.5 13.5t28.5 -3.5q30 -10 54 -29q-5 93 15 185h-312q-17 0 -33.5 7t-25.5 21q-7 14 3 21t23 7h449z" />
    <glyph glyph-name="uni09B6" unicode="&#x9b6;" horiz-adv-x="457" 
d="M480 500q16 0 33 -6.5t26 -20.5q7 -14 -3 -21.5t-23 -7.5h-92q-9 -134 0 -270q5 -76 6 -152q0 -19 -23 -21t-44.5 8t-22.5 30q-2 74 -6 152q-4 77 -5 155q-11 9 -21 19l-12 12q-1 0 -2 1l-1 1q-35 -17 -59 -45q-16 -24 -2 -39t36 -25l13 -8q11 -6 15 -18t-9 -20
q-16 -7 -33.5 -2.5t-31.5 12.5l-8 6q-22 12 -45 29l-27 -18q-17 -10 -30 -20q-11 -7 -28.5 -5.5t-33.5 9.5t-23.5 17.5t2.5 17.5q16 12 33 22q23 13 42 30l5 3q5 4 9 9t0 11q-14 18 -31 33l-39 36q-29 25 -57 52q-10 10 -7 20.5t18 13.5q17 3 34 -2.5t29 -16.5l47 -43
q29 -24 55 -49q24 20 53 37q15 8 29 18q13 8 34 2.5t35 -17.5q7 -3 12 -7q3 72 17 142q5 16 28 15.5t43.5 -12.5t18.5 -30q-4 -19 -7 -37h53z" />
    <glyph glyph-name="uni09B7" unicode="&#x9b7;" horiz-adv-x="429" 
d="M184 258l-12 -21q-10 -18 -25 -36q-28 -33 -37 -70q-1 -15 14.5 -22.5t38 -9.5t41.5 -3q12 0 18 -1h4q36 -3 72 -11v72q-4 3 -6 7q-16 33 -44 62t-64 33zM298 260v184h-157q35 -18 61.5 -44t22.5 -56q-5 -20 -14 -38q48 -14 87 -46zM409 500q17 0 33.5 -7t25.5 -21
q7 -14 -3 -21t-23 -7h-53v-409q0 -10 -7.5 -15t-20.5 -7q-36 -5 -63 20q2 -2 1.5 -2.5t-3 0t-4.5 1.5q-3 1 -5 2q-19 3 -38 5q-13 2 -26 3q-29 3 -58 7q-36 5 -76.5 18.5t-60.5 45.5q-16 33 -1 66.5t39 62.5q12 16 20 31q4 6 12 16q14 20 27 43.5t10 39.5q-7 17 -29.5 30.5
t-39.5 17.5q-9 2 -20 8.5t-16 15.5h-10q-16 0 -33 7t-26 21q-7 14 3.5 21t23.5 7h421z" />
    <glyph glyph-name="uni09B8" unicode="&#x9b8;" horiz-adv-x="472" 
d="M194 444q-4 -2 -11 -4q-24 -7 -42 -33.5t-25 -48.5v-2q-3 -9 -5 -19t0.5 -18.5t13.5 -10.5q8 -2 16 -3q23 -3 45 -10q4 -1 7 -3q73 2 135 -39q3 -2 5 -4q-2 98 17 195h-156zM278 220q11 -26 5 -59q-27 -91 -111.5 -114.5t-138.5 64.5q-8 20 10 24.5t42 -2.5t33 -21l2 -4
q2 -5 5 -9q7 3 13 7q31 20 46 53q6 15 10 32.5t-4 33.5t-23 21.5t-31 7.5q-13 2 -26 5q-47 13 -73.5 44.5t-9.5 81.5q11 32 32 59h-39q-17 0 -33.5 7t-25.5 21q-7 14 3 21t23 7h465q16 0 33 -6.5t26 -20.5q7 -14 -3.5 -21t-23.5 -8h-43q2 -6 1 -13q-29 -142 -13 -289
q5 -60 6 -121q-2 -19 -23.5 -21t-43.5 8t-24 27q-1 56 -4 109q-17 35 -47 64q-7 7 -15 12z" />
    <glyph glyph-name="uni09B9" unicode="&#x9b9;" horiz-adv-x="363" 
d="M160 331q11 18 15 39q2 16 3 33q-17 1 -32 -13q-17 -16 -24.5 -41t6.5 -46h1q0 1 1 1q0 1 2 2l10 7.5t11 9.5t7 8zM343 500q15 0 32.5 -7t26.5 -21q7 -14 -4 -21t-23 -7h-108l1 -7q1 -8 1 -17v-6q88 -62 71 -169q-16 -60 -63 -90t-106 -39q57 -31 112 -65q66 -41 135 -77
q27 -15 24.5 -27.5t-21.5 -17t-41 4.5q-66 35 -129 75q-93 62 -195 104q-14 6 -25.5 18.5t-10 23t26.5 10.5q42 -1 88 7t78 37q41 41 38 94q-6 -12 -17 -21q-65 -56 -144 -21q-64 35 -59.5 92.5t56.5 90.5h-67q-15 0 -32 6.5t-26 21.5q-8 14 3 21t23 7h355z" />
    <glyph glyph-name="uni09DC" unicode="&#x9dc;" 
d="M448 500q16 0 33 -7t26 -21q7 -14 -4 -21t-22 -7h-169q-1 -5 -3 -11q-16 -46 -15 -92q3 -27 17 -28.5t27.5 13t16.5 34.5q3 16 24.5 15.5t42.5 -10.5t23 -25q0 -19 1 -39q4 -57 -3.5 -113.5t-49.5 -93.5q-41 -30 -93 -29t-98 20q-217 88 -175 315q6 16 29 15.5t43 -13
t18 -30.5q-42 -159 98 -237q35 -16 72.5 -10.5t53.5 45.5q14 42 14 87q-60 -3 -107 24q-42 28 -44 72.5t11 90.5h-195q-15 0 -32.5 6.5t-26.5 21.5q-7 14 4 21t23 7h460zM190 45q27 5 56.5 -5t44.5 -35q17 -37 -18 -58q-15 -7 -33 -3t-31 13q-11 8 -15.5 19t9.5 19v1
q-14 5 -23 15q-10 11 -7 21t17 13z" />
    <glyph glyph-name="uni09DD" unicode="&#x9dd;" horiz-adv-x="366" 
d="M346 500q15 0 32.5 -6.5t26.5 -20.5q7 -14 -4 -21.5t-23 -7.5h-246q-15 -177 6 -353q16 7 31 17q35 24 63 56q24 25 23 60q0 19 -6 37q-3 9 -9 18q-32 -1 -55 20q-9 10 -6.5 21t17.5 13q45 5 84 -14t56 -63q28 -73 -21 -131q-54 -64 -132 -92q-53 -16 -101 11
q-25 10 -30 28q-1 2 -1 4v3q-4 7 -2 12q-22 176 -9 353h-20q-15 0 -32 7t-26 21q-7 14 3.5 21t22.5 7h358zM139 -5q27 5 56.5 -5t44.5 -35q17 -37 -18 -58q-15 -7 -33 -3t-31 13q-11 8 -15.5 19t9.5 19v1q-14 5 -23 15q-10 11 -7 21t17 13z" />
    <glyph glyph-name="uni09DF" unicode="&#x9df;" horiz-adv-x="429" 
d="M298 84v360h-157q35 -18 61.5 -44t22.5 -56q-11 -42 -36 -77q-9 -15 -17 -30q-10 -18 -25 -36q-28 -33 -37 -70q-1 -15 14.5 -22.5t38 -9.5t41.5 -3q12 0 18 -1h4q36 -3 72 -11zM409 500q17 0 33.5 -7t25.5 -21q7 -14 -3 -21t-23 -7h-53v-409q0 -10 -7.5 -15t-20.5 -7
q-36 -5 -63 20q2 -2 1.5 -2.5t-3 0t-4.5 1.5q-3 1 -5 2q-19 3 -38 5q-13 2 -26 3q-29 3 -58 7q-36 5 -76.5 18.5t-60.5 45.5q-16 33 -1 66.5t39 62.5q12 16 20 31q4 6 12 16q14 20 27 43.5t10 39.5q-7 17 -29.5 30.5t-39.5 17.5q-9 2 -20 8.5t-16 15.5h-10q-16 0 -33 7
t-26 21q-7 14 3.5 21t23.5 7h421zM134 16q27 5 56.5 -5t44.5 -35q17 -37 -18 -58q-15 -7 -33 -3t-31 13q-11 8 -15.5 19t9.5 19v1q-14 5 -23 15q-10 11 -7 21t17 13z" />
    <glyph glyph-name="uni09F0" unicode="&#x9f0;" horiz-adv-x="387" 
d="M247 280q1 38 4 75q-22 -25 -48 -47l-8 -7q27 -9 52 -21zM156 269q-19 -16 -35 -34q8 -4 16 -7q49 -19 92 -51q13 -11 25 -24v6q-4 30 -5 59q-38 34 -91 51h-2zM356 444q2 -6 1 -12q-30 -143 -13 -290q4 -60 5 -120q0 -19 -22.5 -21t-44 8t-24.5 20.5t-6 15.5l-14 25
q-14 25 -35.5 49.5t-43.5 39.5q-31 19 -65 32q-24 10 -47 22q-5 2 -12.5 7t-12 12t-1.5 12q26 42 60 70l39 33q31 28 57 59q17 20 35 38h-192q-16 0 -33 7t-26 21q-7 14 3.5 21t22.5 7h400q16 0 33 -6.5t26 -20.5q7 -14 -4 -21.5t-22 -7.5h-64z" />
    <glyph glyph-name="uni09F1" unicode="&#x9f1;" horiz-adv-x="387" 
d="M251 355q-22 -25 -48 -47l-33 -27q-27 -22 -49 -46q8 -4 16 -7q49 -19 92 -51q13 -11 25 -24v6q-12 99 -3 196zM356 444q2 -6 1 -12q-30 -143 -13 -290q4 -60 5 -120q0 -19 -22.5 -21t-44 8t-24.5 20.5t-6 15.5l-14 25q-14 25 -35.5 49.5t-43.5 39.5q-31 19 -65 32
q-24 10 -47 22q-5 2 -12.5 7t-12 12t-1.5 12q26 42 60 70l39 33q31 28 57 59q17 20 35 38h-192q-16 0 -33 7t-26 21q-7 14 3.5 21t22.5 7h400q16 0 33 -6.5t26 -20.5q7 -14 -4 -21.5t-22 -7.5h-64zM53 123v0v0q-7 3 -16.5 9t-15 14.5t-2.5 18.5q5 9 15 11t20.5 -0.5
t17.5 -5.5q90 -40 146 -121q8 -12 4.5 -21.5t-18.5 -11.5q-16 -1 -33.5 5.5t-27.5 20.5q-34 53 -90 81z" />
    <glyph glyph-name="uni09BC" unicode="&#x9bc;" horiz-adv-x="0" 
d="M-207 -2q27 5 56.5 -5t44.5 -35q17 -37 -18 -58q-15 -7 -33 -3t-31 13q-11 8 -15.5 19t9.5 19v1q-14 5 -23 15q-10 11 -7 21t17 13z" />
    <glyph glyph-name="uni09BE" unicode="&#x9be;" horiz-adv-x="170" 
d="M150 500q16 0 33 -7t26 -21q7 -14 -4 -21t-22 -7h-58q5 -6 5 -13v-410q0 -20 -22.5 -21.5t-45 9t-22.5 26.5v409h-20q-15 0 -32 6.5t-26 21.5q-8 14 3 21t23 7h162z" />
    <glyph glyph-name="uni09BF" unicode="&#x9bf;" horiz-adv-x="170" 
d="M128 500h22q16 0 33 -7t26 -21q7 -14 -4 -21t-22 -7h-58q5 -6 5 -13v-410q0 -20 -22.5 -21.5t-45 9t-22.5 26.5v409h-20q-15 0 -32 6.5t-26 21.5q-8 14 3 21t23 7h54q-17 18 -28.5 53t-8.5 59q11 52 61 71q101 36 210 32q55 1 113 -8t106 -40q34 -25 31 -51.5t-26 -50.5
t-49 -41q-15 -8 -38.5 -1t-36 21.5t4.5 28.5q16 10 33 25t20 29.5t-25 22.5q-66 13 -134 8q-7 0 -14 -1q-71 2 -133 -26q-37 -22 -30 -63t30 -68z" />
    <glyph glyph-name="uni09C0" unicode="&#x9c0;" horiz-adv-x="170" 
d="M150 500q16 0 33 -7t26 -21q7 -14 -4 -21t-22 -7h-58q5 -6 5 -13v-410q0 -20 -22.5 -21.5t-45 9t-22.5 26.5v409h-20q-15 0 -32 6.5t-26 21.5q-8 14 3 21t23 7h33q21 14 48.5 39t40.5 53.5t-9 52.5q-40 37 -96.5 41.5t-107.5 -8.5h-4q-24 -5 -56 -17t-39 -36
q-3 -22 11.5 -30t33.5 -10q6 -1 11 -3q35 -7 64.5 -26.5t33.5 -55.5q2 -15 -10 -20t-30.5 -2.5t-33 12t-16.5 22.5q-1 13 -5.5 16.5t-14.5 4.5q-4 1 -10 2q-4 1 -9 2q-26 4 -50 16q-24 13 -47 36.5t-20 53.5q19 61 96 81t134 18q66 2 139 -19t113 -79q23 -41 9 -78t-47 -66z
" />
    <glyph glyph-name="uni09C1" unicode="&#x9c1;" horiz-adv-x="0" 
d="M60 -87v0q6 -3 14 -9.5t11.5 -14.5t-3.5 -15q-12 -11 -29.5 -9t-30.5 9q-33 15 -63 37q-4 -21 -19 -37q-20 -19 -50.5 -14.5t-52.5 16.5q-19 11 -42 37t-31.5 56t13.5 52q18 15 42.5 14t49.5 -11q0 12 2 24q5 15 25.5 15t42.5 -12t21 -31q-1 -20 0 -43q30 -18 60 -38
q4 -3 8 -5l23 -16q2 -1 3.5 -2t2 -1.5l0.5 -0.5h0.5t2.5 -1zM-130 -54v0q1 11 1 21q-2 0 -3 1l-4 2q-1 0 -2 1q-3 2 -7 3q0 -6 1 -13t2 -10q3 -11 8 -20h1v1q1 1 1 2z" />
    <glyph glyph-name="uni09C2" unicode="&#x9c2;" horiz-adv-x="0" 
d="M3 -49v0q56 -19 73 -75q3 -10 -5 -14.5t-19 -5.5t-17 0q-16 2 -29.5 10t-20.5 23q-1 0 -1 -1q-22 -12 -45 -18q-34 -5 -68.5 7t-56.5 38q-38 42 -12 91q16 24 42 34.5t54 10.5q16 1 33 -6t26 -21q5 -10 1.5 -16t-11.5 -9t-16 -4q-18 -1 -34 -13t-16 -32q1 -14 11 -24v0h1
q8 4 15 8q44 28 95 17z" />
    <glyph glyph-name="uni09C3" unicode="&#x9c3;" horiz-adv-x="0" 
d="M6 -131v0q22 -19 12.5 -29t-32 -10t-39.5 11q-26 20 -57 32q-40 14 -71 45q-28 33 -10 61t47 50l17 15q13 11 37.5 6t40.5 -18.5t4 -26.5q-5 -4 -13 -11q-14 -10 -28 -23t-19 -26t9 -23q21 -12 44 -21q31 -12 58 -32z" />
    <glyph glyph-name="uni09C7" unicode="&#x9c7;" horiz-adv-x="228" 
d="M208 500q16 0 33 -6.5t26 -20.5q7 -15 -4 -22t-22 -7h-45q-1 0 -2 -1q-49 -28 -67.5 -85t-15.5 -131q1 -48 21 -105.5t73 -70.5q14 -2 30 -10t20 -23q1 -11 -6.5 -15.5t-17.5 -5.5t-17 0q-169 40 -191 215q-16 136 46 232h-49q-17 0 -33.5 7t-25.5 21q-7 14 3 21t23 7
h221z" />
    <glyph glyph-name="bn_ekaar.init" horiz-adv-x="228" 
d="M195 500h13q16 0 33 -6.5t26 -20.5q7 -15 -4 -22t-22 -7h-45v0q-1 0 -2 -1q-49 -28 -67.5 -85t-15.5 -131q1 -48 21 -105.5t73 -70.5q14 -2 30 -10t20 -23q1 -11 -6.5 -15.5t-17.5 -5.5t-17 0q-169 40 -191 215q-16 136 46 232q37 56 126 56z" />
    <glyph glyph-name="uni09C8" unicode="&#x9c8;" horiz-adv-x="228" 
d="M204 500h4q16 0 33 -6.5t26 -20.5q7 -15 -4 -22t-22 -7h-45q-1 0 -2 -1q-49 -28 -67.5 -85t-15.5 -131q1 -48 21 -105.5t73 -70.5q14 -2 30 -10t20 -23q1 -11 -6.5 -15.5t-17.5 -5.5t-17 0q-169 40 -191 215q-16 136 46 232h-49q-17 0 -33.5 7t-25.5 21q-7 14 3 21t23 7
h119q9 24 11 46q1 9 2 12q1 2 1 3t-1.5 1h-4.5q-18 0 -36 -1q-65 -6 -129 5q-31 6 -63 19t-52 40q-15 22 -17.5 47t20.5 43q11 7 28.5 5t33.5 -9.5t23 -17.5t-2 -17q-15 -12 -12 -29.5t22 -23.5q25 -7 52 -8t55 1q34 4 68 0q61 -4 96 -53q14 -29 3 -63z" />
    <glyph glyph-name="bn_aikaar.init" horiz-adv-x="228" 
d="M204 500h4q16 0 33 -6.5t26 -20.5q7 -15 -4 -22t-22 -7h-45q-1 0 -2 -1q-49 -28 -67.5 -85t-15.5 -131q1 -48 21 -105.5t73 -70.5q14 -2 30 -10t20 -23q1 -11 -6.5 -15.5t-17.5 -5.5t-17 0q-169 40 -191 215q-16 136 46 232l24 36l13 20q9 24 11 46q1 9 2 12q1 2 1 3
t-1.5 1h-4.5q-18 0 -36 -1q-65 -6 -129 5q-31 6 -63 19t-52 40q-15 22 -17.5 47t20.5 43q11 7 28.5 5t33.5 -9.5t23 -17.5t-2 -17q-15 -12 -12 -29.5t22 -23.5q25 -7 52 -8t55 1q34 4 68 0q61 -4 96 -53q14 -29 3 -63z" />
    <glyph glyph-name="uni09CB" unicode="&#x9cb;" horiz-adv-x="859" 
d="M305 281q15 0 32.5 -6.5t26.5 -21.5q7 -14 -4 -21t-23 -7h-26q-16 0 -33 6.5t-26 21.5q-7 14 4 21t22 7h27zM591 225q-15 0 -32.5 6.5t-26.5 21.5q-7 14 4 21t23 7h26q16 0 33 -6.5t26 -21.5q7 -14 -4 -21t-22 -7h-27zM367 374q10 -11 18 -28t4 -34q-5 -14 -18 -11.5
t-21 11.5l-19 18q-11 11 -18.5 28t-3.5 34q5 14 18 11.5t21 -10.5zM529 132q-10 11 -18 28t-4 34q5 14 18 11.5t21 -11.5l19 -18q11 -11 18.5 -28t3.5 -34q-5 -14 -18 -11.5t-21 10.5zM476 396q0 -15 -6.5 -32.5t-21.5 -26.5q-14 -7 -21 4t-7 23v26q0 16 6.5 33t21.5 26
q14 7 21 -4t7 -22v-27zM420 110q0 15 6.5 32.5t21.5 26.5q14 7 21 -4t7 -23v-26q0 -16 -6.5 -33t-21.5 -26q-14 -7 -21 4t-7 22v27zM569 334q-11 -10 -28 -18t-34 -4q-14 5 -11.5 18t11.5 21l18 19q11 11 28 18.5t34 3.5q14 -5 11.5 -18t-10.5 -21zM327 172q11 10 28 18
t34 4q14 -5 11.5 -18t-11.5 -21l-18 -19q-11 -11 -28 -18.5t-34 -3.5q-14 5 -11.5 18t10.5 21zM208 500q16 0 33 -6.5t26 -20.5q7 -15 -4 -22t-22 -7h-45q-1 0 -2 -1q-49 -28 -67.5 -85t-15.5 -131q1 -48 21 -105.5t73 -70.5q14 -2 30 -10t20 -23q1 -11 -6.5 -15.5
t-17.5 -5.5t-17 0q-169 40 -191 215q-16 136 46 232h-49q-17 0 -33.5 7t-25.5 21q-7 14 3 21t23 7h221zM839 500q16 0 33 -7t26 -21q7 -14 -4 -21t-22 -7h-58q5 -6 5 -13v-410q0 -20 -22.5 -21.5t-45 9t-22.5 26.5v409h-20q-15 0 -32 6.5t-26 21.5q-8 14 3 21t23 7h162z" />
    <glyph glyph-name="uni09CC" unicode="&#x9cc;" horiz-adv-x="859" 
d="M305 281q15 0 32.5 -6.5t26.5 -21.5q7 -14 -4 -21t-23 -7h-26q-16 0 -33 6.5t-26 21.5q-7 14 4 21t22 7h27zM591 225q-15 0 -32.5 6.5t-26.5 21.5q-7 14 4 21t23 7h26q16 0 33 -6.5t26 -21.5q7 -14 -4 -21t-22 -7h-27zM367 374q10 -11 18 -28t4 -34q-5 -14 -18 -11.5
t-21 11.5l-19 18q-11 11 -18.5 28t-3.5 34q5 14 18 11.5t21 -10.5zM529 132q-10 11 -18 28t-4 34q5 14 18 11.5t21 -11.5l19 -18q11 -11 18.5 -28t3.5 -34q-5 -14 -18 -11.5t-21 10.5zM476 396q0 -15 -6.5 -32.5t-21.5 -26.5q-14 -7 -21 4t-7 23v26q0 16 6.5 33t21.5 26
q14 7 21 -4t7 -22v-27zM420 110q0 15 6.5 32.5t21.5 26.5q14 7 21 -4t7 -23v-26q0 -16 -6.5 -33t-21.5 -26q-14 -7 -21 4t-7 22v27zM569 334q-11 -10 -28 -18t-34 -4q-14 5 -11.5 18t11.5 21l18 19q11 11 28 18.5t34 3.5q14 -5 11.5 -18t-10.5 -21zM327 172q11 10 28 18
t34 4q14 -5 11.5 -18t-11.5 -21l-18 -19q-11 -11 -28 -18.5t-34 -3.5q-14 5 -11.5 18t10.5 21zM208 500q16 0 33 -6.5t26 -20.5q7 -15 -4 -22t-22 -7h-45q-1 0 -2 -1q-49 -28 -67.5 -85t-15.5 -131q1 -48 21 -105.5t73 -70.5q14 -2 30 -10t20 -23q1 -11 -6.5 -15.5
t-17.5 -5.5t-17 0q-169 40 -191 215q-16 136 46 232h-49q-17 0 -33.5 7t-25.5 21q-7 14 3 21t23 7h221zM826 500h13q16 0 33 -7t26 -21q7 -14 -4 -21t-22 -7h-58q5 -6 5 -13v-410q0 -20 -22.5 -21.5t-45 9t-22.5 26.5v409h-20q-15 0 -32 6.5t-26 21.5q-8 14 3 21t23 7h51
q1 2 1 3q8 21 10 43q1 9 3 12q1 2 1 3t-1.5 1h-4.5q-18 0 -37 -1q-64 -6 -128 5q-32 6 -64 19t-51 40q-15 22 -17.5 47t19.5 43q11 7 28.5 5t34 -9.5t23.5 -17.5t-3 -17q-14 -12 -11 -29.5t21 -23.5q26 -7 52 -8q28 -1 55 1q34 4 68 0q62 -4 97 -53q13 -29 2 -63z" />
    <glyph glyph-name="uni09CD" unicode="&#x9cd;" horiz-adv-x="0" 
d="M-148 -17v0q50 -4 100 -27.5t76 -67.5q8 -20 -10 -24.5t-42 2t-33 21.5q-13 21 -35.5 30.5t-45.5 11.5q-15 1 -31 10t-20 24q-1 11 6.5 15.5t17.5 5t17 -0.5z" />
    <glyph glyph-name="uni09CE" unicode="&#x9ce;" horiz-adv-x="390" 
d="M147 284v0q-21 15 -34 33q-1 -31 23.5 -55t53.5 -43q15 -10 27 -20q37 -30 58 -67.5t10 -85.5q-6 -17 -29 -16t-43 13t-18 30q10 47 -18 79.5t-68 60.5q-45 31 -72 67q-28 48 -9.5 86.5t61.5 63.5q2 9 10 12.5t20 2.5q55 23 103 21q53 -3 98.5 -32t49.5 -85
q2 -48 -32 -76t-79 -29q-26 0 -57 11t-55 29zM272 396v0q-12 15 -30.5 15.5t-36.5 -5.5q-13 -3 -27 -10q-4 -28 4.5 -53.5t35.5 -38.5l1.5 -0.5t2.5 -0.5q2 0 3 -1q28 -1 44 25q9 16 11.5 34.5t-8.5 34.5z" />
    <glyph glyph-name="uni09D7" unicode="&#x9d7;" horiz-adv-x="170" 
d="M137 500h13q16 0 33 -7t26 -21q7 -14 -4 -21t-22 -7h-58q5 -6 5 -13v-410q0 -20 -22.5 -21.5t-45 9t-22.5 26.5v409h-20q-15 0 -32 6.5t-26 21.5q-8 14 3 21t23 7h51q1 2 1 3q8 21 10 43q1 9 3 12q1 2 1 3t-1.5 1h-4.5q-18 0 -37 -1q-64 -6 -128 5q-32 6 -64 19t-51 40
q-15 22 -17.5 47t19.5 43q11 7 28.5 5t34 -9.5t23.5 -17.5t-3 -17q-14 -12 -11 -29.5t21 -23.5q26 -7 52 -8q28 -1 55 1q34 4 68 0q62 -4 97 -53q13 -29 2 -63z" />
    <glyph glyph-name="uni09E6" unicode="&#x9e6;" horiz-adv-x="383" 
d="M268 373v0q90 -54 95 -163q-4 -71 -63 -94t-122 -13q-74 11 -121.5 63t-33.5 131q18 74 75 95t126 11q17 -3 28.5 -11.5t15.5 -18.5zM169 157v0q41 -4 73 14t30 63q-1 14 -6.5 37.5t-16 43t-27.5 22.5t-30 12q-59 -3 -77 -66q-8 -36 1.5 -77.5t52.5 -48.5z" />
    <glyph glyph-name="uni09E7" unicode="&#x9e7;" horiz-adv-x="410" 
d="M54 450v0q96 6 195 -47t134 -146q14 -48 -2 -94.5t-57 -76.5q-98 -56 -203 -11q-29 10 -63.5 31.5t-37.5 56.5q1 25 22 38.5t43 18.5q51 11 105.5 -5t80.5 -61q23 29 27 66.5t-17 71.5q-31 48 -84 77t-111 25q-19 -1 -38 11.5t-21 26.5t27 18zM172 112v0q12 -2 24 -1
q-3 5 -3 11q-2 61 -57 44q-26 -11 -22.5 -22.5t22 -20.5t36.5 -11z" />
    <glyph glyph-name="uni09E8" unicode="&#x9e8;" horiz-adv-x="357" 
d="M204 178v0q131 -74 221 -181q17 -20 2.5 -27.5t-39 -3.5t-37.5 16q-45 52 -108 107.5t-135 68.5q-20 -1 -40 1q-17 4 -32.5 16t-16 24.5t27.5 14.5q15 1 30 0q31 5 75 20t74 36t17 45q-21 31 -59 51t-78 35q-28 11 -50 21q-7 3 -15 9.5t-11.5 14.5t3.5 16q12 10 30 8
t31 -8l50 -23q53 -23 103 -52q28 -16 58 -41.5t32 -61.5q-4 -36 -39 -60t-67 -35q-13 -6 -27 -11z" />
    <glyph glyph-name="uni09E9" unicode="&#x9e9;" horiz-adv-x="511" 
d="M319 426v0q102 -8 154 -97q23 -46 16.5 -98t-43.5 -90q-77 -68 -181 -60q-117 4 -193 90q-63 91 -49 202q3 15 25 15t43 -12t22 -30q-5 -58 14.5 -124t84.5 -82q55 -9 107.5 10.5t72.5 77.5q5 16 7 33q-43 -15 -90 -3t-69 51q-17 41 9 79t70 38zM336 312v0q32 15 27 48
q-4 4 -9 7l-4 2q-10 -5 -15.5 -16.5t-7.5 -22.5q-1 -9 0 -15q1 -5 0 -7q5 2 9 4z" />
    <glyph glyph-name="uni09EA" unicode="&#x9ea;" horiz-adv-x="389" 
d="M293 264v0q43 -20 65 -51t1 -78q-23 -45 -79 -63.5t-113.5 -7.5t-84.5 56q-20 41 1 75t60 63h-1h-1q-34 9 -68.5 26.5t-48.5 51.5q-10 33 7 65t48 44q74 23 152 -9.5t104 -106.5q1 -4 1 -6q8 -11 -1 -23q-19 -20 -42 -36zM164 305v0q5 -1 10 -3q11 -2 24 -6q30 21 50 39
l-4 8q-6 19 -25 35.5t-42 21.5t-42 -11q-12 -10 -20.5 -29t0.5 -35q6 -8 17.5 -12t23.5 -6zM195 118v0q21 5 44.5 18.5t34.5 34.5t-7 45q-7 10 -19 16q-24 -16 -45 -35q-12 -11 -25.5 -32t-13 -36.5t30.5 -10.5z" />
    <glyph glyph-name="uni09EB" unicode="&#x9eb;" horiz-adv-x="500" 
d="M393 306v0q37 1 62.5 -19t24.5 -57q-13 -98 -87 -139.5t-168 -27.5q-201 37 -205 239q2 43 25 81.5t68 47.5q76 10 142 -26l-4 18q-3 17 17.5 19t43.5 -7t29 -26q13 -56 13 -112q19 8 39 9zM226 116v0q50 -3 94.5 19.5t59.5 72.5q1 4 3 9q1 5 2 9l-31 -20l-8 -6
q-11 -7 -29.5 -4.5t-34 12t-17.5 23.5q-1 25 -1 50q0 28 -1 55q-9 2 -15 7q-29 24 -64 32t-57 -32q-23 -47 -15 -99q7 -51 33.5 -86.5t80.5 -41.5z" />
    <glyph glyph-name="uni09EC" unicode="&#x9ec;" horiz-adv-x="479" 
d="M350 378v0q11 10 28 9t33 -9t23 -19q48 -102 2.5 -198.5t-164.5 -100.5q-62 3 -120.5 37t-92.5 86q-56 105 -32 224q4 15 26.5 14.5t43 -12t20.5 -30.5q-7 -43 -6 -89.5t21 -86.5q19 -35 56.5 -64.5t80.5 -20.5q49 15 74 57.5t26 93.5q-1 0 -2 -1q-2 -1 -4 -3
q-51 -25 -106 -6q-41 14 -52.5 42.5t-12.5 62.5q-1 29 -9 57q-3 13 8.5 17t29.5 1.5t33 -11t20 -20.5q4 -20 3 -46q0 -17 1.5 -33t8.5 -27q-2 4 4 11.5t15 14.5q7 6 11 10q4 5 7 10z" />
    <glyph glyph-name="uni09ED" unicode="&#x9ed;" horiz-adv-x="373" 
d="M289 400v0q16 0 32.5 -6t25.5 -15.5t4 -19.5q-10 -18 -24 -38q25 -130 -1 -261q-4 -16 -26.5 -15.5t-43 12.5t-20.5 31q3 14 5.5 54.5t2.5 91.5q-42 -31 -90 -32q-90 6 -123.5 81t37.5 140q55 41 116.5 33t104.5 -56zM149 269v0q47 30 85 77q-8 33 -22.5 48t-38.5 4
q-28 -15 -47.5 -43t-13.5 -62q2 -19 14 -34q12 3 23 10z" />
    <glyph glyph-name="uni09EE" unicode="&#x9ee;" horiz-adv-x="357" 
d="M337 423v0q4 -102 -72 -170q13 -26 16 -50q6 -69 -32.5 -116t-111.5 -34q-96 29 -114 126.5t-11 194.5q1 25 1 47q2 20 24 21.5t43.5 -8.5t23.5 -26q0 -26 -1 -53q-1 -25 -1 -50q40 32 102 10h1v-1q45 54 41 122q0 19 21.5 21t44 -8t25.5 -26zM185 153v0q14 41 2 84
q-15 6 -24 15q-3 -3 -6 -5l-12 -10q-16 -10 -41 -4q3 -48 19 -93q5 -17 15 -31q1 -2 2 -3q16 4 28.5 18.5t16.5 28.5z" />
    <glyph glyph-name="uni09EF" unicode="&#x9ef;" horiz-adv-x="391" 
d="M302 317v0q67 -41 68.5 -117.5t-36.5 -138.5q-11 -13 -34.5 -9.5t-40.5 17t-8 31.5l4 8h-1q-1 1 -3 2l-16 12q-23 18 -47 29.5t-55 2.5q-4 -2 -7 -2q-6 -1 -10 -4t-4 -10q0 -12 2 -23q1 -2 2 -3q28 -1 49 -20q9 -11 6.5 -21.5t-17.5 -13.5q-32 -4 -65.5 3.5t-52.5 36.5
q-12 21 -15.5 50.5t18.5 45.5q61 33 121.5 19t114.5 -50q7 29 7 58t-12 49q-10 14 -30 20.5t-40 9.5q-9 2 -16 3q-58 11 -111 40.5t-47 97.5q5 16 27.5 15.5t43 -12.5t19.5 -31q-4 -29 13 -39.5t43 -15.5q3 -1 6 -1q8 -2 17 -4q56 -10 107 -35z" />
    <glyph glyph-name="uni09F3" unicode="&#x9f3;" horiz-adv-x="462" 
d="M435 159v0q21 -57 -17 -103q-43 -50 -105 -72q-46 -13 -89 11q-23 10 -28 27v3v2q-3 6 -2 11q-15 123 -8 247h-71q-15 0 -32.5 6.5t-26.5 20.5q-7 14 4 21.5t23 7.5h107q0 2 1 4q-1 5 0 10t3 10q10 30 14 65t-17 59q-34 29 -67.5 10t-56.5 -50q-12 -12 -36 -8t-40.5 17.5
t-5.5 29.5q102 119 241 47q56 -36 65.5 -86t-7.5 -108h46q16 0 33 -7t26 -21q7 -14 -4 -21t-22 -7h-85q-8 -118 3 -235q1 0 2 1q3 1 5 3q26 17 47 41q17 18 17 43q-1 14 -5 28l-3 6q-25 2 -44 20q-9 10 -6.5 21t17.5 13q39 4 74 -12t50 -55z" />
    <glyph glyph-name="uni0964" unicode="&#x964;" horiz-adv-x="251" 
d="M211 61v0q-2 -19 -23.5 -21t-43.5 8t-24 27l1 363q1 19 23 21t44 -8t23 -27v-363z" />
    <glyph glyph-name="uni0965" unicode="&#x965;" horiz-adv-x="381" 
d="M211 61v0q-2 -19 -23.5 -21t-43.5 8t-24 27l1 363q1 19 23 21t44 -8t23 -27v-363zM341 61v0q-2 -19 -23.5 -21t-43.5 8t-24 27l1 363q1 19 23 21t44 -8t23 -27v-363z" />
    <glyph glyph-name="bn_k_ka" horiz-adv-x="487" 
d="M126 316q29 -9 55 -23q4 2 7 6q-2 29 -1 58q-1 -1 -2 -1q-2 -2 -4 -3q-10 -7 -21 -13q-18 -11 -34 -24zM129 156q31 -9 60 -25q-2 30 -2 60h-1q0 -1 -1 -1l-22 -13q-19 -9 -34 -21zM467 500q15 0 32.5 -6.5t26.5 -20.5q7 -14 -4 -21.5t-23 -7.5h-186q73 -11 122 -59
q29 -31 31.5 -74t-32.5 -72q-32 -22 -73.5 -9.5t-59.5 46.5q-15 37 7 55.5t58 16.5q4 -1 9 -1q-3 17 -19 28q-30 19 -65 18h-10q-7 -48 -5 -98q1 -32 1 -49q89 -6 146 -58q26 -29 28.5 -68t-29.5 -67q-31 -21 -70.5 -8.5t-57.5 44.5q-14 35 6.5 52t55.5 15h4q-3 12 -15 21
q-25 16 -54 14h-14q0 -14 1 -38q1 -31 3 -63q3 -35 4 -70q-1 -19 -23 -21t-43.5 8t-23.5 27v7l-3 3q-12 16 -25.5 31.5t-29.5 23.5q-24 10 -49 18l-41 14q-4 2 -11.5 7.5t-12.5 12.5t-1 14q25 37 66 57l6 4q23 13 42 30l-8 4q-18 8 -37 14q-22 8 -44 17q-4 2 -11.5 7.5
t-12.5 12.5t-1 14q24 39 65 60q3 3 7 5q30 21 55 46q5 4 9 8h-138q-16 0 -33 7t-26 21q-7 14 4 21t22 7h480z" />
    <glyph glyph-name="bn_k_tta" horiz-adv-x="510" 
d="M125 316q34 -11 63 -28q-2 35 -2 69q-1 -1 -2 -1l-3 -3q-10 -7 -22 -13q-18 -11 -34 -24zM490 500q16 0 33 -6.5t26 -20.5q7 -14 -4 -21.5t-22 -7.5h-210q72 -11 122 -59q28 -31 30.5 -74t-32.5 -72q-32 -22 -73.5 -9.5t-59.5 46.5q-15 37 7 55.5t59 16.5q4 -1 8 -1
q-3 17 -19 28q-30 19 -65 18h-4q-6 -107 -1 -217q4 -66 13 -131q12 5 24 11q29 15 54 37q9 7 15 15t8 20q1 8 -0.5 16.5t-5.5 15.5q-1 2 -2 3v1h-1q-20 -1 -39 11.5t-21 26.5t27 17q49 3 86.5 -24.5t45 -68t-34.5 -77.5q-49 -41 -121 -62t-118 40q-4 7 -3 11q-3 4 -3 9
q-10 64 -13 128q-1 10 -2 15q-3 5 -7 9q-12 19 -26.5 36t-33.5 25q-18 8 -37 14q-22 8 -43 17q-5 2 -12.5 7.5t-12 12.5t-1.5 14q24 39 65 60q4 3 8 5q30 21 55 46q4 4 9 8h-138q-16 0 -33 7t-26 21q-7 14 4 21t22 7h347l4 12q8 21 10 43q1 9 2 12q1 2 1 2.5t-1.5 1
t-4.5 0.5q-18 0 -36 -1q-65 -6 -129 5q-31 5 -63 18.5t-52 40.5q-15 22 -17.5 47t20.5 43q11 7 28.5 5t33.5 -10t23 -17.5t-2 -17.5q-15 -11 -12 -28.5t21 -24.5q26 -6 53 -7t55 1q34 3 68 0q61 -5 96 -53q9 -16 7.5 -34.5t-7.5 -37.5h58z" />
    <glyph glyph-name="bn_k_tt_ra" horiz-adv-x="510" 
d="M125 316q34 -11 63 -28q-2 35 -2 69q-1 -1 -2 -1l-3 -3q-10 -7 -22 -13q-18 -11 -34 -24zM379 3q-22 -9 -46 -16q-72 -21 -118 40q-4 7 -3 11q-3 4 -3 9q-10 64 -13 128q-1 10 -2 15q-3 5 -7 9q-12 19 -26.5 36t-33.5 25q-18 8 -37 14q-22 8 -43 17q-5 2 -12.5 7.5
t-12 12.5t-1.5 14q24 39 65 60q4 3 8 5q30 21 55 46q4 4 9 8h-138q-16 0 -33 7t-26 21q-7 14 4 21t22 7h347l4 12q8 21 10 43q1 9 2 12q1 2 1 2.5t-1.5 1t-4.5 0.5q-18 0 -36 -1q-65 -6 -129 5q-31 5 -63 18.5t-52 40.5q-15 22 -17.5 47t20.5 43q11 7 28.5 5t33.5 -10
t23 -17.5t-2 -17.5q-15 -11 -12 -28.5t21 -24.5q26 -6 53 -7t55 1q34 3 68 0q61 -5 96 -53q9 -16 7.5 -34.5t-7.5 -37.5h58q16 0 33 -6.5t26 -20.5q7 -14 -4 -21.5t-22 -7.5h-210q72 -11 122 -59q28 -31 30.5 -74t-32.5 -72q-32 -22 -73.5 -9.5t-59.5 46.5q-15 37 7 55.5
t59 16.5q4 -1 8 -1q-3 17 -19 28q-30 19 -65 18h-4q-6 -107 -1 -217q4 -66 13 -131q12 5 24 11q29 15 54 37q9 7 15 15t8 20q1 8 -0.5 16.5t-5.5 15.5q-1 2 -2 3v1h-1q-20 -1 -39 11.5t-21 26.5t27 17q49 3 86.5 -24.5t45.5 -67.5q5 -32 -19 -62v-191q0 -20 -23 -22t-45 9
q-20 9 -23 22l-20 7q-46 19 -89.5 22t-69.5 -46q-10 -16 -34 -14t-43 14t-13 28q42 77 112.5 74.5t143.5 -29.5q7 -2 13 -4v68z" />
    <glyph glyph-name="bn_k_ta" horiz-adv-x="606" 
d="M586 500q16 0 33 -6.5t26 -20.5q7 -15 -4 -22t-22 -7h-599q-16 0 -33 7t-26 21q-7 14 4 21t22 7h599zM397 266q-6 -14 -17 -29q29 -19 45.5 -45.5t3.5 -60.5q-43 -93 -144 -105q-96 -6 -182 57t-83 165q4 16 26 15.5t43 -12.5t21 -30q-2 -56 43.5 -103t102.5 -35
q29 9 55 33.5t30 52.5t-33 48q-19 10 -23 19q-7 11 0 22q2 3 5 6q11 15 20.5 33t5.5 37q-5 38 -40 33q-17 -2 -33.5 -10t-20.5 -28v-8q15 3 33 -2.5t29.5 -16t7.5 -23.5q-13 -32 -44.5 -37t-62.5 10t-43 43q-34 86 51 119q46 14 98.5 6.5t86.5 -43.5q19 -25 25 -50
q51 20 103 13q38 -9 62.5 -39.5t14.5 -71.5q-13 -35 -52.5 -47.5t-72.5 3.5q-32 20 -25 46t37 44l3 3q-9 8 -24 8q-30 -1 -52 -20z" />
    <glyph glyph-name="bn_k_t_ba" horiz-adv-x="606" 
d="M208 -55q29 -9 54 -23q-2 28 -2 55q-10 -7 -20 -12q-17 -9 -32 -20zM586 500q16 0 33 -6.5t26 -20.5q7 -15 -4 -22t-22 -7h-599q-16 0 -33 7t-26 21q-7 14 4 21t22 7h599zM357 49v-197q0 -13 1 -26q0 -3 -1 -5q0 -13 -16.5 -16t-36 1.5t-29.5 15.5l-10 14
q-11 16 -24.5 30.5t-28.5 22.5q-23 9 -47 17l-40 14q-13 5 -21 16t-1 24q22 30 55 45q11 6 21 13l23 16q-51 14 -99 49q-86 63 -83 165q4 16 26 15.5t43 -12.5t21 -30q-2 -56 43.5 -103t102.5 -35q29 9 55 33.5t30 52.5t-33 48q-19 10 -23 19q-7 11 0 22q2 3 5 6
q11 15 20.5 33t5.5 37q-5 38 -40 33q-17 -2 -33.5 -10t-20.5 -28v-8q15 3 33 -2.5t29.5 -16t7.5 -23.5q-13 -32 -44.5 -37t-62.5 10t-43 43q-34 86 51 119q46 14 98.5 6.5t86.5 -43.5q19 -25 25 -50q51 20 103 13q38 -9 62.5 -39.5t14.5 -71.5q-13 -35 -52.5 -47.5
t-72.5 3.5q-32 20 -25 46t37 44l3 3q-9 8 -24 8q-30 -1 -52 -20q-6 -14 -17 -29q29 -19 45.5 -45.5t3.5 -60.5q-26 -56 -72 -82z" />
    <glyph glyph-name="bn_k_t_ra" horiz-adv-x="606" 
d="M586 500q16 0 33 -6.5t26 -20.5q7 -15 -4 -22t-22 -7h-599q-16 0 -33 7t-26 21q-7 14 4 21t22 7h599zM314 31q-14 -3 -29 -5q-96 -6 -182 57t-83 165q4 16 26 15.5t43 -12.5t21 -30q-2 -56 43.5 -103t102.5 -35q29 9 55 33.5t30 52.5t-33 48q-19 10 -23 19q-7 11 0 22
q2 3 5 6q11 15 20.5 33t5.5 37q-5 38 -40 33q-17 -2 -33.5 -10t-20.5 -28v-8q15 3 33 -2.5t29.5 -16t7.5 -23.5q-13 -32 -44.5 -37t-62.5 10t-43 43q-34 86 51 119q46 14 98.5 6.5t86.5 -43.5q19 -25 25 -50q51 20 103 13q38 -9 62.5 -39.5t14.5 -71.5q-13 -35 -52.5 -47.5
t-72.5 3.5q-32 20 -25 46t37 44l3 3q-9 8 -24 8q-30 -1 -52 -20q-6 -14 -17 -29q29 -19 45.5 -45.5t3.5 -60.5q-10 -22 -24 -40v-169q0 -20 -23 -22t-45 9q-20 9 -23 22l-20 7q-46 19 -89.5 22t-69.5 -46q-10 -16 -34 -14t-43 14t-13 28q42 77 112.5 74.5t143.5 -29.5
q7 -2 13 -4v48z" />
    <glyph glyph-name="bn_k_na" horiz-adv-x="601" 
d="M251 355q-22 -25 -48 -47l-33 -27q-27 -22 -49 -46q8 -4 16 -7q49 -19 92 -51q13 -11 25 -24v6q-12 99 -3 196zM462 216q6 7 10.5 15.5t6.5 14.5q1 3 2 7q-14 -2 -21 -10.5t2 -25.5v-1zM405 444l23 -6q65 -21 111 -66q40 -45 42 -105t-46 -102q-40 -26 -88.5 -10
t-69.5 57q-21 49 8 72.5t77 20.5q13 -1 28 -5q-1 40 -38 67q-47 31 -101 34q-22 -128 -7 -259q4 -55 5 -110v-100q0 -20 -23 -22t-45.5 8.5t-22.5 26.5v41q-3 2 -4 5q-10 15 -30 35.5t-44 30t-43 -6.5q-17 -15 -25 -36.5t0 -36.5t39 -10q16 3 33.5 -2t29.5 -17
q10 -11 7 -21.5t-17 -13.5q-42 -7 -85 2t-75 37q-30 31 -27.5 71t37.5 67q48 31 102 23q35 -5 68 -21l-21 28q-22 24 -44 39q-31 19 -65 32q-24 10 -47 22q-5 2 -12.5 7t-12 12t-1.5 12q26 42 60 70l39 33q31 28 57 59q17 20 35 38h-192q-16 0 -33 7t-26 21q-7 14 3.5 21
t22.5 7h594q16 0 33 -6.5t26 -20.5q7 -14 -4 -21.5t-22 -7.5h-209z" />
    <glyph glyph-name="bn_k_ba" horiz-adv-x="601" 
d="M462 216q6 7 10.5 15.5t6.5 14.5q1 3 2 7q-14 -2 -21 -10.5t2 -25.5v-1zM405 444l23 -6q65 -21 111 -66q40 -45 42 -105t-46 -102q-40 -26 -88.5 -10t-69.5 57q-21 49 8 72.5t77 20.5q13 -1 28 -5q-1 40 -38 67q-47 31 -101 34q-22 -128 -7 -259q4 -60 5 -120v-54
q0 -13 1 -26q0 -3 -1 -5q0 -13 -16.5 -16t-36 1.5t-29.5 15.5l-10 14q-11 16 -24.5 30.5t-28.5 22.5q-23 9 -47 17l-40 14q-13 5 -21 16t-1 24q22 30 55 45q11 6 21 13q5 4 10 7q-11 10 -22 18q-31 19 -65 32q-24 10 -47 22q-5 2 -12.5 7t-12 12t-1.5 12q26 42 60 70l39 33
q31 28 57 59q17 20 35 38h-192q-16 0 -33 7t-26 21q-7 14 3.5 21t22.5 7h594q16 0 33 -6.5t26 -20.5q7 -14 -4 -21.5t-22 -7.5h-209zM227 179q11 10 23 18q-6 80 1 158q-22 -25 -48 -47l-33 -27q-27 -22 -49 -46q8 -4 16 -7q48 -18 90 -49zM200 61v0q29 -9 54 -23
q-2 28 -2 55q-10 -7 -20 -12q-17 -9 -32 -20z" />
    <glyph glyph-name="bn_k_ma" horiz-adv-x="637" 
d="M125 316q34 -11 63 -28q-2 35 -2 69q-1 -1 -2 -1l-3 -3q-10 -7 -22 -13q-18 -11 -34 -24zM512 107q-19 168 -7 337h-192q72 -11 122 -59q28 -31 30.5 -74t-32.5 -72q-32 -22 -73.5 -9.5t-59.5 46.5q-15 37 7 55.5t59 16.5q4 -1 8 -1q-3 17 -19 28q-30 19 -65 18
q-5 0 -9 1q-8 -74 0 -148q2 -30 3 -60l21 -6q106 -30 207 -73zM165 99q20 9 26 21t5 29q-26 1 -48 -8.5t-29 -35.5q-1 -5 -2 -8q-2 -6 -0.5 -7.5t10.5 0.5l10 2q15 2 28 7zM617 500q16 0 33 -6.5t26 -20.5q7 -14 -4 -21.5t-22 -7.5h-53q-17 -194 10 -387q2 -15 -13 -19
q-9 -7 -24.5 -8t-31.5 7q-119 63 -252 98q2 -25 -6 -46t-34 -33q-27 -12 -59 -19t-61 -2q-60 13 -89 55.5t30 89.5q52 32 116 26q-22 36 -56 54q-18 8 -37 14q-22 8 -43 17q-5 2 -12.5 7.5t-12 12.5t-1.5 14q24 39 65 60q4 3 8 5q30 21 55 46q4 4 9 8h-138q-16 0 -33 7
t-26 21q-7 14 4 21t22 7h630z" />
    <glyph glyph-name="bn_k_ra" horiz-adv-x="589" 
d="M569 500q15 0 32 -6.5t26 -20.5q7 -15 -3.5 -22t-22.5 -7h-581q-15 0 -32.5 7t-26.5 21q-7 14 4 21t23 7h581zM394 271q0 -70 -8 -136q-6 -50 -6 -81v-5q2 -6 3 -13q1 -18 -20.5 -20.5t-44 7.5t-26.5 27q-6 27 -36 39.5t-57 17.5q-5 2 -9 3q-61 14 -123 21
q-24 4 -37 18.5t-8.5 26.5t35.5 9q95 -9 187 -38q22 -8 48 -19q2 16 3 31q4 27 6 54q0 9 1 19q3 33 3 69.5t-12 65.5h-1q-1 -1 -2 -1q-39 -9 -73 -30q-15 -10 -27 -25.5t-17 -34.5l3 3q3 3 6 7q12 15 23 31q10 13 34 9t41 -17.5t8 -30.5q-21 -33 -51 -59.5t-71 -21.5
q-40 6 -65 32t-17 69q15 59 67.5 89t110.5 38q76 9 104 -36q16 -27 23 -63h5q89 -6 146 -58q26 -29 28.5 -68t-29.5 -67q-31 -21 -70.5 -8.5t-57.5 44.5q-14 35 6.5 52t55.5 15h4q-3 12 -15 21q-25 16 -54 14h-14z" />
    <glyph glyph-name="bn_k_la" horiz-adv-x="601" 
d="M251 355q-22 -25 -48 -47l-33 -27q-27 -22 -49 -46q8 -4 16 -7q49 -19 92 -51q13 -11 25 -24v6q-12 99 -3 196zM462 216q6 7 10.5 15.5t6.5 14.5q1 3 2 7q-14 -2 -21 -10.5t2 -25.5v-1zM405 444l23 -6q65 -21 111 -66q40 -45 42 -105t-46 -102q-40 -26 -88.5 -10
t-69.5 57q-21 49 8 72.5t77 20.5q13 -1 28 -5q-1 40 -38 67q-47 31 -101 34q-22 -128 -7 -259q4 -60 5 -120v-100q0 -20 -23 -22t-45.5 8.5t-22.5 26.5v23q-15 8 -32 29q-2 -17 -1 -34q0 -15 -14.5 -19t-33.5 0.5t-32 14.5q-8 5 -14 10l-12 12q0 -28 -8 -56
q-7 -16 -30.5 -15t-43.5 13.5t-16 29.5q10 37 9 76q0 18 1 37q1 6 7.5 9.5t11.5 3.5q51 5 91 -26q6 22 13 42q7 14 23.5 14.5t29.5 -3.5q9 -3 20 -8q-11 16 -24 32q-22 24 -44 39q-31 19 -65 32q-24 10 -47 22q-5 2 -12.5 7t-12 12t-1.5 12q26 42 60 70l39 33q31 28 57 59
q17 20 35 38h-192q-16 0 -33 7t-26 21q-7 14 3.5 21t22.5 7h594q16 0 33 -6.5t26 -20.5q7 -14 -4 -21.5t-22 -7.5h-209z" />
    <glyph glyph-name="bn_k_ssa" horiz-adv-x="679" 
d="M384 318q-52 13 -91.5 42.5t-50.5 83.5q-16 0 -33 -1h-32q47 -38 66 -98q11 -32 7 -69q47 -36 65 -95q1 -1 1 -2v-1q41 -9 78 -27q-1 3 -1 6q-5 80 -5 160q-1 1 -2 1h-2zM193 107q27 -2 36 22q-7 -1 -14 -3q-3 -1 -8 -3.5t-9.5 -6t-6 -6t1.5 -3.5zM116 263q23 -3 35 12
q-5 7 -4 14q-5 0 -10 -2q-3 0 -9 -3.5t-11.5 -8t-6.5 -8t6 -4.5zM391 369q3 38 10 75h-72q2 -4 3 -9q4 -30 19.5 -45t39.5 -21zM561 324q35 -16 67.5 -44.5t30.5 -70.5q-6 -37 -36.5 -47.5t-64.5 -4.5q-15 2 -31 10t-19 24q-2 10 5.5 15t17.5 5.5t17 -0.5q13 -1 18 9.5
t1 21.5q-8 25 -32 37t-50 19h-3q-2 1 -3 1q-1 -78 5 -156q4 -61 5 -122q-2 -19 -23.5 -21t-43.5 8t-24 27q0 17 -1 34q-26 43 -75 54q-1 -43 -40 -63q-40 -15 -95.5 -5t-78.5 50q-14 35 6.5 52.5t54 23t59.5 5.5q-4 18 -12 34q-3 -2 -8 -4q-42 -16 -100 -6t-82 53
q-15 37 8 55t59.5 23.5t63.5 5.5q-6 26 -18.5 48t-31.5 30q-7 2 -16 6.5t-16 12.5h-55q-16 0 -33 7t-26 21q-7 14 3 21t23 7h672q17 0 33.5 -6.5t25.5 -21.5q7 -14 -3 -21t-23 -7h-196q1 -3 0 -6q-10 -44 -14 -88q41 -8 79 -26z" />
    <glyph glyph-name="bn_k_ss_nna" horiz-adv-x="679" 
d="M384 318q-52 13 -91.5 42.5t-50.5 83.5q-16 0 -33 -1h-32q47 -38 66 -98q11 -32 7 -69q47 -36 65 -95q1 -1 1 -2v-1q41 -9 78 -27q-1 3 -1 6q-5 80 -5 160q-1 1 -2 1h-2zM391 369q3 38 10 75h-72q2 -4 3 -9q4 -30 19.5 -45t39.5 -21zM116 263q23 -3 35 12q-5 7 -4 14
q-5 0 -10 -2q-3 0 -9 -3.5t-11.5 -8t-6.5 -8t6 -4.5zM193 107q27 -2 36 22q-7 -1 -14 -3q-3 -1 -8 -3.5t-9.5 -6t-6 -6t1.5 -3.5zM398 35q0 17 -1 34q-26 43 -75 54q-1 -43 -40 -63q-40 -15 -95.5 -5t-78.5 50q-14 35 6.5 52.5t54 23t59.5 5.5q-4 18 -12 34q-3 -2 -8 -4
q-42 -16 -100 -6t-82 53q-15 37 8 55t59.5 23.5t63.5 5.5q-6 26 -18.5 48t-31.5 30q-7 2 -16 6.5t-16 12.5h-55q-16 0 -33 7t-26 21q-7 14 3 21t23 7h672q17 0 33.5 -6.5t25.5 -21.5q7 -14 -3 -21t-23 -7h-196q1 -3 0 -6q-10 -44 -14 -88q41 -8 79 -26q35 -16 67.5 -44.5
t30.5 -70.5q-6 -37 -36.5 -47.5t-64.5 -4.5q-15 2 -31 10t-19 24q-2 10 5.5 15t17.5 5.5t17 -0.5q13 -1 18 9.5t1 21.5q-8 25 -32 37t-50 19h-3q-2 1 -3 1q-1 -78 5 -156q4 -61 5 -122v-169q0 -20 -23 -22t-45.5 8.5t-22.5 26.5v41q-3 2 -4 5q-10 15 -30 35.5t-44 30
t-43 -6.5q-17 -15 -25 -36.5t0 -36.5t39 -10q16 3 33.5 -2t29.5 -17q10 -11 7 -21.5t-17 -13.5q-42 -7 -85 2t-75 37q-30 31 -27.5 71t37.5 67q48 31 102 23t102 -40v42z" />
    <glyph glyph-name="bn_k_ss_ba" horiz-adv-x="679" 
d="M384 318q-52 13 -91.5 42.5t-50.5 83.5q-16 0 -33 -1h-32q47 -38 66 -98q11 -32 7 -69q47 -36 65 -95q1 -1 1 -2v-1q41 -9 78 -27q-1 3 -1 6q-5 80 -5 160q-1 1 -2 1h-2zM340 -17q29 -9 54 -23q-2 28 -2 55q-10 -7 -20 -12q-17 -9 -32 -20zM391 369q3 38 10 75h-72
q2 -4 3 -9q4 -30 19.5 -45t39.5 -21zM116 263q23 -3 35 12q-5 7 -4 14q-5 0 -10 -2q-3 0 -9 -3.5t-11.5 -8t-6.5 -8t6 -4.5zM193 107q27 -2 36 22q-7 -1 -14 -3q-3 -1 -8 -3.5t-9.5 -6t-6 -6t1.5 -3.5zM368 102q-20 15 -46 21q-1 -43 -40 -63q-40 -15 -95.5 -5t-78.5 50
q-14 35 6.5 52.5t54 23t59.5 5.5q-4 18 -12 34q-3 -2 -8 -4q-42 -16 -100 -6t-82 53q-15 37 8 55t59.5 23.5t63.5 5.5q-6 26 -18.5 48t-31.5 30q-7 2 -16 6.5t-16 12.5h-55q-16 0 -33 7t-26 21q-7 14 3 21t23 7h672q17 0 33.5 -6.5t25.5 -21.5q7 -14 -3 -21t-23 -7h-196
q1 -3 0 -6q-10 -44 -14 -88q41 -8 79 -26q35 -16 67.5 -44.5t30.5 -70.5q-6 -37 -36.5 -47.5t-64.5 -4.5q-15 2 -31 10t-19 24q-2 10 5.5 15t17.5 5.5t17 -0.5q13 -1 18 9.5t1 21.5q-8 25 -32 37t-50 19h-3q-2 1 -3 1q-1 -78 5 -156q4 -61 5 -122v-131q0 -13 1 -26
q0 -3 -1 -5q0 -13 -16.5 -16t-36 1.5t-29.5 15.5l-10 14q-11 16 -24.5 30.5t-28.5 22.5q-23 9 -47 17l-40 14q-13 5 -21 16t-1 24q22 30 55 45q11 6 21 13q24 16 45 35q6 6 12 11z" />
    <glyph glyph-name="bn_k_ss_ma" horiz-adv-x="741" 
d="M352 383q2 30 8 61h-54q2 -3 2 -6q8 -46 44 -55zM614 30q-16 206 -5 414h-153l-1 -5q-9 -37 -12 -75q42 -10 82 -30q28 -14 53.5 -40t22.5 -60q-7 -35 -35.5 -44t-59.5 -3q-23 4 -36.5 18.5t-8.5 26.5t35 9q10 -1 12.5 4.5t1 13.5t-4.5 15.5t-6 9.5q-10 10 -24 16
q-17 8 -35 13q-1 -69 4 -138q3 -41 4 -82h1v-1q85 -26 165 -62zM317 13q17 2 30 12q13 15 11 31q-24 -1 -39 -23q-3 -6 -7 -11q-5 -6 -5 -9t10 0zM294 210q31 -7 60 -21q-5 71 -5 142q-1 1 -3 1q-5 1 -10 3q-91 23 -117 109h-46q40 -35 56 -87q9 -29 6 -62q42 -32 58 -85h1z
M179 148q17 -2 25 11h-2q-10 -3 -16 -8q-5 -3 -7 -3zM109 287q18 -2 27 9q-2 4 -2 8l-1 -1h-3q-6 -1 -11.5 -4t-7.5 -9q0 -1 -1 -2t-2 -1h1zM721 500q16 0 33 -7t26 -21q7 -14 -3.5 -21t-23.5 -7h-53q-14 -234 8 -467q1 -15 -12 -19q-8 -8 -23.5 -9t-32.5 8q-91 52 -192 83
q1 -20 -5.5 -37.5t-28.5 -28.5q-51 -25 -108 -19q-56 10 -76.5 49.5t21.5 82.5q44 34 105 26q-21 32 -56 42q-3 -38 -38 -55q-37 -14 -89.5 -4.5t-73.5 47.5q-13 32 4.5 48t47 21.5t54.5 5.5q-3 11 -8 22l-1 -1q-39 -14 -93.5 -4.5t-76.5 49.5q-14 34 5.5 50.5t52 22
t57.5 5.5q-5 22 -15 40.5t-24 24.5q-7 2 -15 6t-15 11l-52 1q-17 0 -33.5 6.5t-25.5 20.5q-7 14 3 21t23 7h734z" />
    <glyph glyph-name="bn_k_sa" horiz-adv-x="637" 
d="M126 316q33 -11 63 -28q-3 35 -3 69q-1 -1 -2 -1q-1 -2 -3 -3q-10 -7 -21 -13q-19 -11 -34 -24zM503 201q-6 122 3 243h-193q73 -11 122 -59q29 -31 31.5 -74t-32.5 -72q-32 -22 -73.5 -9.5t-59.5 46.5q-16 37 6.5 55.5t58.5 16.5q4 -1 8 -1q-2 17 -19 28q-29 19 -65 18
q-4 0 -9 1q-8 -74 0 -149q2 -26 3 -53q32 -8 55 -29q32 19 51 26q54 20 113 12zM617 500q15 0 32 -6.5t26 -20.5q7 -14 -3.5 -21.5t-22.5 -7.5h-52q-12 -162 2 -323q1 -3 1 -6q3 -29 8 -58q1 -18 -20 -20.5t-44 7.5t-27 27q-5 32 -8 64q0 1 -1 2q-2 8 -3 11t-4 3t-10 -2
q-4 -1 -10 -3q-29 -6 -56 -19q-23 -12 -45 -25q-27 -17 -56 -30q-61 -29 -126.5 -30t-115.5 50q-17 20 -2 27t39 3.5t37 -15.5q17 -17 50.5 -8.5t71.5 29.5q-2 8 -7 15h-1l-1 -1h-1q-37 -5 -64 20q-5 5 -6 10q-3 5 -4 10v8q-3 5 -6 9q-12 19 -26.5 36t-33.5 25q-18 8 -37 14
q-22 8 -44 17q-5 2 -12.5 7.5t-12 12.5t-1.5 14q25 39 65 60q4 3 8 5q30 21 55 46q5 4 9 8h-158q-15 0 -32.5 7t-26.5 21q-7 14 4 21t23 7h649z" />
    <glyph glyph-name="bn_kh_ba" 
d="M337 182v363q0 20 22.5 21.5t45.5 -8.5t23 -27v-31h20q15 0 32.5 -6.5t26.5 -20.5q7 -14 -4 -21.5t-23 -7.5h-52v-496q0 -13 1 -26q0 -3 -1 -5q0 -13 -16.5 -16t-36 1.5t-29.5 15.5l-10 14q-11 16 -24.5 30.5t-28.5 22.5q-23 9 -47 17l-40 14q-13 5 -21 16t-1 24
q22 30 55 45q11 6 21 13q4 3 8 5q-61 48 -134 66q-21 3 -34 15t-12.5 24t19.5 15q2 2 6 4q33 13 66 35t44 59q14 67 -36 85q20 -45 -4 -86t-82 -50q-37 -4 -64 20q-9 10 -6.5 21t17.5 13q21 3 39.5 19.5t23 38t-17.5 39.5q-14 10 -15.5 23t17.5 17q64 11 131.5 -12t88.5 -91
q11 -55 -17 -94t-73 -64q49 -20 92 -56q12 10 26 20zM279 41v0q29 -9 58 -25v61q-16 -11 -26 -16q-17 -9 -32 -20z" />
    <glyph glyph-name="bn_kh_ra" 
d="M279 102q-69 62 -155 83q-21 3 -34 15t-12.5 24t19.5 15q2 2 6 4q33 13 66 35t44 59q14 67 -36 85q20 -45 -4 -86t-82 -50q-37 -4 -64 20q-9 10 -6.5 21t17.5 13q21 3 39.5 19.5t23 38t-17.5 39.5q-14 10 -15.5 23t17.5 17q64 11 131.5 -12t88.5 -91q11 -55 -17 -94
t-73 -64q66 -27 122 -85v414q0 20 22.5 21.5t45.5 -8.5t23 -27v-31h20q15 0 32.5 -6.5t26.5 -20.5q7 -14 -4 -21.5t-23 -7.5h-52v-422q0 -20 -22.5 -21.5t-45.5 9.5q-19 8 -22 21q-10 3 -21 7q-46 19 -89.5 22t-69.5 -46q-10 -16 -34 -14t-43 14t-13 28q42 77 113 75
q48 -2 98 -15z" />
    <glyph glyph-name="bn_ga_ukaar" horiz-adv-x="550" 
d="M487 393v0q27 -21 36.5 -54t4.5 -65q-9 -52 -51 -79q43 -70 -42 -125q-80 -54 -176 -35q-88 18 -162 74t-77 153q2 19 23.5 21t43.5 -8t23 -27q7 -116 120 -153q61 -21 117 11q31 18 48.5 41.5t-11.5 53.5q-7 7 -8 14q-1 5 1 10t9 8q34 15 48 49.5t0 69.5q-4 -3 -7 -6
q-24 -23 -35 -56q-4 -10 -15 -13.5t-25 -1.5q-20 0 -41 9t-26 25q-2 10 -10 36t-20 47t-26 17q-33 -17 -43 -51q42 -9 72 -42t30 -77q-3 -19 -25 -21t-43.5 8.5t-22.5 26.5q1 12 -1 25t-9 23h-1v0q-7 -5 -12 -12q-10 -10 -30 -8.5t-37.5 11t-19.5 24.5q-1 62 33.5 110
t103.5 38q83 -18 119 -83q61 60 144 12z" />
    <glyph glyph-name="bn_g_ga" horiz-adv-x="449" 
d="M318 134v132q0 2 -1 4q-9 42 -32.5 91.5t-71.5 57.5q-38 1 -60.5 -25t-32.5 -63q62 -2 109 -44t46 -104q-2 -19 -24 -11t-43.5 8t-22.5 17q1 24 -8.5 46.5t-27 28t-42.5 -19.5q-10 -9 -30 -8t-37.5 10.5t-19.5 24.5q-1 83 46.5 143t136.5 51q71 -12 115 -54v125
q0 20 23 21.5t45.5 -8.5t22.5 -27v-30h20q15 0 32 -7t26 -21q7 -14 -3.5 -21.5t-22.5 -7.5h-52v-481q0 -20 -22.5 -22t-45.5 8.5t-23 26.5v11l-10 9q-7 7 -10 15q-7 33 -25.5 73.5t-54.5 46.5q-28 1 -46 -19t-24 -44q48 -3 88.5 -40t40.5 -63q0 -22 -23.5 -23.5t-45.5 8.5
t-22 27q0 12 -5.5 18.5t-17 11t-30.5 -14.5q-10 -10 -30 -9t-37 10.5t-19 25.5q-1 73 41.5 126t121.5 43q62 -11 108 -53z" />
    <glyph glyph-name="bn_g_da" horiz-adv-x="675" 
d="M318 266q0 2 -1 4q-9 42 -32.5 91.5t-71.5 57.5q-38 1 -60.5 -25t-32.5 -63q62 -2 109 -44t46 -107q-2 -19 -24 -21t-43.5 8t-22.5 27q1 27 -8.5 49.5t-27 28t-42.5 -19.5q-10 -9 -30 -8t-37.5 10.5t-19.5 24.5q-1 83 46.5 143t136.5 51q71 -12 115 -54v53q0 14 10.5 21
t22.5 7h304q15 0 32 -6.5t27 -20.5q7 -14 -4 -21.5t-23 -7.5h-279v-162q48 35 102 45t108 -23q5 -3 10.5 -9t5.5 -12q-1 -28 -9 -62q-11 -45 -15 -102t20 -72q28 -15 25 -27.5t-22 -17.5t-41 5q-59 32 -64.5 92t6.5 116q5 23 8 55q-25 -6 -46 -21q-32 -23 -61 -51
q-8 -7 -15 -14q-15 -12 -36 -8.5t-35 14.5q-22 15 -26.5 31t-4.5 38v7z" />
    <glyph glyph-name="bn_g_dha" horiz-adv-x="537" 
d="M265 89q19 -6 37 -14v8q-1 14 -1 28l-10 -6q-14 -7 -26 -16zM517 500q15 0 32.5 -6.5t26.5 -20.5q7 -14 -4 -21.5t-23 -7.5h-157v-224l41 8q19 4 43 -4.5t29 -28.5q3 -28 -4 -63q-6 -29 -6 -56t14 -46q16 -21 1 -28t-39 -3t-36 16q-23 29 -25 59t3 62l2 24q-1 0 -3 -1
l-10 -2q-3 -1 -6 -1q-3 -15 -4 -31v-58q1 -19 3 -37q2 -31 3 -61q-1 -20 -23 -22t-43.5 8.5t-24.5 32.5q-11 16 -22 29t-25 19q-21 9 -43 16q-18 6 -35 13q-13 5 -21.5 15.5t-1.5 23.5q20 28 51 42q9 6 19 12q21 14 40 31q16 14 33 27v64q-7 6 -9 13q-8 36 -29 81.5
t-62 52.5q-33 1 -53 -21.5t-29 -54.5q57 -4 99.5 -43t42.5 -98q-3 -20 -25 -21.5t-43.5 8.5t-22.5 26q1 23 -6 43t-21.5 25.5t-36.5 -16.5q-10 -10 -30.5 -9t-37.5 10.5t-19 24.5q-1 78 43.5 134t128.5 46q68 -12 110 -52v116q0 20 22.5 21.5t45 -8.5t22.5 -26v-32h125z" />
    <glyph glyph-name="bn_g_na" horiz-adv-x="449" 
d="M318 266q0 2 -1 4q-9 42 -32.5 91.5t-71.5 57.5q-38 1 -60.5 -25t-32.5 -63q62 -2 109 -44t46 -107q-2 -19 -24 -21t-43.5 8t-22.5 27q1 27 -8.5 49.5t-27 28t-42.5 -19.5q-10 -9 -30 -8t-37.5 10.5t-19.5 24.5q-1 83 46.5 143t136.5 51q71 -12 115 -54v125q0 20 23 21.5
t45.5 -8.5t22.5 -27v-30h20q15 0 32 -7t26 -21q7 -14 -3.5 -21.5t-22.5 -7.5h-52v-482q0 -20 -23 -22t-45.5 8.5t-22.5 26.5v41q-3 2 -4 5q-10 15 -30 35.5t-44 30t-43 -6.5q-17 -15 -25 -36.5t0 -36.5t39 -10q16 3 33.5 -2t29.5 -17q10 -11 7 -21.5t-17 -13.5q-42 -7 -85 2
t-75 37q-30 31 -27.5 71t37.5 67q48 31 102 23t102 -40v164z" />
    <glyph glyph-name="bn_g_ba" horiz-adv-x="449" 
d="M318 80q-16 -11 -26 -16q-17 -9 -32 -20q29 -9 58 -25v61zM318 185v81q0 2 -1 4q-9 42 -32.5 91.5t-71.5 57.5q-38 1 -60.5 -25t-32.5 -63q62 -2 109 -44t46 -107q-2 -19 -24 -21t-43.5 8t-22.5 27q1 27 -8.5 49.5t-27 28t-42.5 -19.5q-10 -9 -30 -8t-37.5 10.5
t-19.5 24.5q-1 83 46.5 143t136.5 51q71 -12 115 -54v125q0 20 23 21.5t45.5 -8.5t22.5 -27v-30h20q15 0 32 -7t26 -21q7 -14 -3.5 -21.5t-22.5 -7.5h-52v-492q0 -13 1 -26q0 -3 -1 -5q0 -13 -16.5 -16t-36 1.5t-29.5 15.5l-10 14q-11 16 -24.5 30.5t-28.5 22.5
q-23 9 -47 17l-40 14q-13 5 -21 16t-1 24q22 30 55 45q11 6 21 13q24 16 45 35q18 17 38 31z" />
    <glyph glyph-name="bn_g_ma" horiz-adv-x="621" 
d="M318 118v148q0 2 -1 4q-9 42 -32.5 91.5t-71.5 57.5q-38 1 -60.5 -25t-32.5 -63q62 -2 109 -44t46 -107q-2 -19 -24 -21t-43.5 8t-22.5 27q1 27 -8.5 49.5t-27 28t-42.5 -19.5q-10 -9 -30 -8t-37.5 10.5t-19.5 24.5q-1 83 46.5 143t136.5 51q71 -12 115 -54v125
q0 20 23 21.5t45.5 -8.5t22.5 -27v-30h192q15 0 32 -7t26 -21q7 -14 -3.5 -21.5t-22.5 -7.5h-52q-8 -236 6 -471q0 -18 -19 -21t-40 4.5t-30 22.5q-29 28 -64 52q0 -27 -21 -50q-12 -11 -30 -17t-34 -5q-52 4 -73.5 40t0.5 83q17 28 42 37zM491 443h-82v-338q42 -18 83 -48
q-7 193 -1 386z" />
    <glyph glyph-name="bn_g_ra" horiz-adv-x="449" 
d="M318 83v183q0 2 -1 4q-9 42 -32.5 91.5t-71.5 57.5q-38 1 -60.5 -25t-32.5 -63q62 -2 109 -44t46 -107q-2 -19 -24 -21t-43.5 8t-22.5 27q1 27 -8.5 49.5t-27 28t-42.5 -19.5q-10 -9 -30 -8t-37.5 10.5t-19.5 24.5q-1 83 46.5 143t136.5 51q71 -12 115 -54v125
q0 20 23 21.5t45.5 -8.5t22.5 -27v-30h20q15 0 32 -7t26 -21q7 -14 -3.5 -21.5t-22.5 -7.5h-52v-421q0 -20 -22.5 -22t-45.5 9q-20 9 -23 22l-20 7q-46 19 -89.5 22t-69.5 -46q-10 -16 -34 -14t-43 14t-13 28q42 77 112.5 74.5t143.5 -29.5q7 -2 13 -4z" />
    <glyph glyph-name="bn_g_la" horiz-adv-x="449" 
d="M318 266q0 2 -1 4q-9 42 -32.5 91.5t-71.5 57.5q-38 1 -60.5 -25t-32.5 -63q62 -2 109 -44t46 -107q-2 -19 -24 -21t-43.5 8t-22.5 27q1 27 -8.5 49.5t-27 28t-42.5 -19.5q-10 -9 -30 -8t-37.5 10.5t-19.5 24.5q-1 83 46.5 143t136.5 51q71 -12 115 -54v125q0 20 23 21.5
t45.5 -8.5t22.5 -27v-30h20q15 0 32 -7t26 -21q7 -14 -3.5 -21.5t-22.5 -7.5h-52v-482q0 -20 -23 -22t-45.5 8.5t-22.5 26.5v23q-15 8 -32 29q-2 -17 -1 -34q0 -15 -14.5 -19t-33.5 0.5t-32 14.5q-8 5 -14 10l-12 12q0 -28 -8 -56q-7 -16 -30.5 -15t-43.5 13.5t-16 29.5
q10 37 9 76q0 18 1 37q1 6 7.5 9.5t11.5 3.5q51 5 91 -26q6 22 13 42q7 14 23.5 14.5t29.5 -3.5q22 -8 51 -23v154z" />
    <glyph glyph-name="bn_gh_na" horiz-adv-x="459" 
d="M329 125v319h-153q-14 -5 -25 -13t-19 -19q-10 -14 -15 -31q-4 -15 -6 -33.5t5 -33.5q11 -19 26 -15.5t27.5 19.5t15.5 31q5 16 27.5 15.5t43 -12.5t19.5 -30q-2 -8 -4 -14q6 -10 -3 -18q-62 -61 -101 -139q87 5 162 -26zM328 52q-15 6 -22 16q-18 27 -62 29.5t-85 -1.5
q-21 -2 -35 -2q-16 0 -33 6.5t-26 20.5q-1 3 -2 5q-8 9 -3 19q26 54 59 105q-46 13 -75 44q-26 31 -24.5 74t26.5 76h-26q-15 0 -32 7t-26 21q-8 14 3 21t23 7h451q16 0 33 -6.5t26 -20.5q7 -14 -4 -21.5t-22 -7.5h-53v-547q0 -20 -23 -22t-45.5 8.5t-22.5 26.5v41
q-3 2 -4 5q-10 15 -30 35.5t-44 30t-43 -6.5q-17 -15 -25 -36.5t0 -36.5t39 -10q16 3 33.5 -2t29.5 -17q10 -11 7 -21.5t-17 -13.5q-42 -7 -85 2t-75 37q-30 31 -27.5 71t37.5 67q48 31 102 23t102 -40v14z" />
    <glyph glyph-name="bn_gh_ba" horiz-adv-x="459" 
d="M215 98q-29 1 -56 -2q-21 -2 -35 -2q-16 0 -33 6.5t-26 20.5q-1 3 -2 5q-8 9 -3 19q26 54 59 105q-46 13 -75 44q-26 31 -24.5 74t26.5 76h-26q-15 0 -32 7t-26 21q-8 14 3 21t23 7h451q16 0 33 -6.5t26 -20.5q7 -14 -4 -21.5t-22 -7.5h-53v-496q0 -13 1 -26q0 -3 -1 -5
q0 -13 -16.5 -16t-36 1.5t-29.5 15.5l-10 14q-11 16 -24.5 30.5t-28.5 22.5q-23 9 -47 17l-40 14q-13 5 -21 16t-1 24q20 28 50 42zM278 142q4 3 8 7q18 17 38 31q3 2 5 3v261h-153q-14 -5 -25 -13t-19 -19q-10 -14 -15 -31q-4 -15 -6 -33.5t5 -33.5q11 -19 26 -15.5
t27.5 19.5t15.5 31q5 16 27.5 15.5t43 -12.5t19.5 -30q-2 -8 -4 -14q6 -10 -3 -18q-62 -61 -101 -139q58 3 111 -9zM270 41v0q29 -9 59 -26v63q-17 -12 -27 -17q-17 -9 -32 -20z" />
    <glyph glyph-name="bn_gh_ra" horiz-adv-x="459" 
d="M329 125v319h-153q-14 -5 -25 -13t-19 -19q-10 -14 -15 -31q-4 -15 -6 -33.5t5 -33.5q11 -19 26 -15.5t27.5 19.5t15.5 31q5 16 27.5 15.5t43 -12.5t19.5 -30q-2 -8 -4 -14q6 -10 -3 -18q-62 -61 -101 -139q87 5 162 -26zM328 52q-15 6 -22 16q-18 27 -62 29.5t-85 -1.5
q-21 -2 -35 -2q-16 0 -33 6.5t-26 20.5q-1 3 -2 5q-8 9 -3 19q26 54 59 105q-46 13 -75 44q-26 31 -24.5 74t26.5 76h-26q-15 0 -32 7t-26 21q-8 14 3 21t23 7h451q16 0 33 -6.5t26 -20.5q7 -14 -4 -21.5t-22 -7.5h-53v-462q0 -20 -23 -22t-45 9q-20 9 -23 22l-20 7
q-46 19 -89.5 22t-69.5 -46q-10 -16 -34 -14t-43 14t-13 28q42 77 112.5 74.5t143.5 -29.5q7 -2 13 -4v9z" />
    <glyph glyph-name="bn_ng_ka" horiz-adv-x="509" 
d="M165 156q32 -9 61 -25q-2 30 -2 60h-1l-1 -1l-22 -13q-19 -9 -35 -21zM365 421q10 1 17 7.5t11 15.5h-72q15 -23 44 -23zM489 500q15 0 32 -6.5t26 -20.5q8 -14 -3 -21.5t-23 -7.5h-30q1 -4 0 -9q-30 -78 -114 -69q-41 3 -80 23t-62 55h-67q6 -10 10 -21q98 -24 128 -122
q12 -7 18.5 -15.5t3.5 -17.5l-6 -22q81 -6 138 -58q26 -29 28.5 -68t-29.5 -67q-31 -21 -71 -8.5t-57 44.5q-14 35 6.5 52t55.5 15h3q-2 12 -15 21q-24 16 -53 14q-7 0 -13 1q-2 -50 3 -102q3 -35 4 -70q-1 -19 -23 -21t-43.5 8t-23.5 27l-1 7q-1 2 -2 3q-12 16 -25.5 31.5
t-29.5 23.5q-24 10 -49 18l-41 14q-4 2 -11.5 7.5t-12.5 12.5t-2 14q26 37 66 57q4 2 7 4q30 18 55 41q18 16 38 31q-4 5 -6 11q-2 4 -3 8q-4 14 -10.5 28t-15.5 22q1 -43 -43 -60q-51 -12 -95 18q-15 10 -25 29t-2 36q23 34 67 38q-2 9 -6 16h-65q-16 0 -33 7t-26 21
q-7 14 4 21t22 7h502z" />
    <glyph glyph-name="bn_ng_k_ra" horiz-adv-x="509" 
d="M165 156q32 -9 61 -25q-2 30 -2 60h-1l-1 -1l-22 -13q-19 -9 -35 -21zM365 421q10 1 17 7.5t11 15.5h-72q15 -23 44 -23zM212 65q-4 5 -8 11q-14 15 -30 23q-24 10 -49 18l-41 14q-4 2 -11.5 7.5t-12.5 12.5t-2 14q26 37 66 57q4 2 7 4q30 18 55 41q18 16 38 31
q-4 5 -6 11q-2 4 -3 8q-4 14 -10.5 28t-15.5 22q1 -43 -43 -60q-51 -12 -95 18q-15 10 -25 29t-2 36q23 34 67 38q-2 9 -6 16h-65q-16 0 -33 7t-26 21q-7 14 4 21t22 7h502q15 0 32 -6.5t26 -20.5q8 -14 -3 -21.5t-23 -7.5h-30q1 -4 0 -9q-30 -78 -114 -69q-41 3 -80 23
t-62 55h-67q6 -10 10 -21q98 -24 128 -122q12 -7 18.5 -15.5t3.5 -17.5l-6 -22q81 -6 138 -58q26 -29 28.5 -68t-29.5 -67q-31 -21 -71 -8.5t-57 44.5q-14 35 6.5 52t55.5 15h3q-2 12 -15 21q-24 16 -53 14q-7 0 -13 1q-2 -50 3 -102q3 -35 4 -70v-28q0 -20 -13.5 -22
t-54.5 9q-20 9 -23 22v7h-1q-46 19 -89.5 22t-69.5 -46q-10 -16 -34 -14t-43 14t-13 28q42 77 113 75q58 -3 118 -22z" />
    <glyph glyph-name="bn_ng_ga" horiz-adv-x="586" 
d="M196 325q7 16 7.5 32t-10.5 30l-4 6q-9 -6 -13 -17q-5 -15 -5 -35.5t6 -37.5q12 9 19 22zM479 444h-60q14 -23 33 -23q10 1 16.5 7.5t10.5 15.5zM335 444h-3q-5 -14 -23 -15q92 -47 91 -153q53 21 104 31q17 3 34.5 -2.5t29.5 -17.5q10 -11 7 -21t-17 -13
q-50 -9 -101.5 -30t-84.5 -59q-21 -26 -26 -63.5t10.5 -68t57.5 -34.5q16 -1 32.5 -7t26.5 -21q6 -14 -4 -21.5t-23 -6.5q-68 5 -129 46t-67 111q-84 -21 -168 -21q-15 0 -32.5 6.5t-26.5 21.5q-7 14 4 21t23 7q51 0 106.5 7t97.5 43q37 36 51 91t-17 101q-3 5 -9 9
q27 -57 -5.5 -104.5t-100.5 -40.5q-83 20 -91 106q-8 71 49 98h-111q-15 0 -32.5 6.5t-26.5 21.5q-7 14 4 21t23 7h578q16 0 33 -7t26 -21q7 -14 -3.5 -21t-22.5 -7h-23q-1 -4 -5 -16q-26 -71 -117 -63q-40 4 -68 24t-51 55z" />
    <glyph glyph-name="bn_ng_ma" horiz-adv-x="579" 
d="M248 391q2 1 8 7t6 12t-1 7l-2 -3q-10 -14 -11 -23zM176 10q16 2 30 12q12 15 11 31q-24 -1 -39 -23q-4 -6 -7 -11q-5 -6 -5.5 -9t10.5 0zM182 110q-15 4 -31 11q-69 41 -110 130q-21 45 -21 86q0 40 20 77q8 11 25 11q24 0 46 -17q10 -9 10 -19q0 -6 -3 -13
q-13 -23 -13 -50q0 -29 20 -78.5t60 -79.5q16 -10 38 -10q49 0 78 27q22 28 23 52q-22 -13 -65 -14q-9 0 -23 4t-24.5 12.5t-10.5 17.5l1 4q-3 4 -5 9.5l-4 10.5q-7 15 -11 28q-17 0 -33 6q-27 11 -27 31t42 20q-3 11 -3 26q0 12 3 25q16 56 78 56q51 0 86 -36
q21 -21 21 -44q0 -21 -23 -40q-31 -23 -66 -33l3 -6q2 -7 9 -19v-3q29 18 50 49q10 15 31 15t42 -13q14 -10 14 -21q0 -4 -1 -8q0 -18 1 -28.5t1 -26.5q0 -31 -7 -69.5t-58 -63.5q-39 -19 -77 -24q15 -1 40 -10q75 -29 145 -65q-17 208 -6 417h-57q-16 0 -33 7t-26 21
q-7 14 4 21t22 7h202q15 0 32.5 -6.5t26.5 -20.5q7 -14 -4 -21.5t-23 -7.5h-52q-14 -235 8 -470q1 -9 -11 -19q-9 -8 -25 -9t-32 8q-87 52 -172 83q0 -20 -6.5 -37.5t-27.5 -28.5q-52 -25 -108 -19q-56 10 -77 49.5t22 82.5q20 18 46 23q13 2 26 3z" />
    <glyph glyph-name="bn_ng_ra" horiz-adv-x="497" 
d="M312 400q-2 8 -6 9t-10 -6q-13 -18 -14 -41q12 6 22.5 15.5t7.5 22.5zM338 36q-81 -18 -163 18q-80 47 -129.5 151.5t-1.5 190.5q10 13 34 9t41 -17.5t8 -30.5q-33 -59 -0.5 -140t82.5 -119q31 -19 76 -10.5t71 33.5q29 34 30 77q-35 -20 -84 -21q-10 0 -26 4.5t-28 14
t-8 22.5q0 1 -1 1q0 1 -1 2q-2 3 -4.5 9l-4.5 11v1q-9 19 -16 38h-7q-16 0 -33 6.5t-26 20.5q-7 14 3 21.5t23 7.5q11 -1 23 0q-9 34 -2 66q14 49 56 58.5t87 -7.5q24 -10 43.5 -30.5t22.5 -45t-24 -45.5q-37 -27 -85 -41q3 -7 5 -13q4 -10 12 -24q2 -5 5 -10q42 27 67 77
q11 16 35 14t42.5 -14.5t12.5 -26.5v-1h-1q2 -3 2 -6q0 -18 1 -35q5 -58 -5 -111q-7 -39 -41 -66v-150q0 -20 -23 -22t-45 9q-20 9 -22 22q-10 3 -21 7q-46 19 -89.5 22t-69.5 -46q-10 -16 -34 -14t-43 14t-13 28q42 77 112.5 74.5t143.5 -29.5q7 -2 13 -4v50z" />
    <glyph glyph-name="bn_c_nya" horiz-adv-x="724" 
d="M587 130q11 12 11 24q-36 -4 -71 6l-4 -46q4 -2 11 -5q5 -2 10 -1t11 2q7 2 16 7t16 13zM576 327q-21 -1 -32 -16t-14 -35q2 -27 1 -55q8 -15 23 -13q8 5 19 5q22 7 33.5 25.5t7.5 41.5q-3 14 -12.5 30t-25.5 17zM200 263q-8 27 -27.5 46.5t-43.5 36.5q-8 -108 5 -214
q30 18 49.5 49t18.5 65q-1 5 -1 10v2zM20 444q-15 0 -32.5 6.5t-26.5 20.5q-7 15 4 22t23 7h716q16 0 33 -7t26 -21q7 -14 -4 -21t-22 -7h-604q0 -17 -1 -34q18 -5 32 -18q19 -17 40 -34l25 -20q65 75 165 85q80 6 109 -47q61 18 125 -13.5t76 -96.5q5 -61 -38 -89
q14 -13 21 -31q5 -16 -1.5 -31.5t-18.5 -26.5q-67 -54 -150 -26q-3 -32 -2 -55q0 -6 -2 -9q6 -17 -12.5 -21t-42 2.5t-32.5 20.5q-29 43 -76 28t-93 -45q-31 -19 -54 -28q-34 -10 -64 10q-6 4 -11.5 11.5t-5 15t10.5 11.5q35 14 66 35q21 13 44 25q48 23 102 22
q41 -1 80 -16q2 27 5 54q3 29 5 58l2 24l2 29q-1 8 1 12q1 18 1 35l-1 21q-2 35 -15 63l-1 -1h-2q-49 -10 -89 -41q-16 -14 -28.5 -34.5t-13.5 -42.5q8 8 15 17l27 38q10 13 33.5 9.5t40.5 -17t8 -31.5q-20 -35 -52 -65.5t-76 -24.5h-3q-1 0 -2 1q-17 -44 -53.5 -73.5
t-81.5 -35.5q-11 -2 -23 0q-20 -2 -42.5 7.5t-28.5 25.5q-27 147 -13 296l2 51h-22z" />
    <glyph glyph-name="bn_c_ra" horiz-adv-x="316" 
d="M200 213q-7 26 -27 46t-44 37q-7 -108 6 -214q34 20 53.5 56.5t11.5 74.5zM181 22q-16 -6 -34 -9q-11 -1 -22 1q-21 -2 -43.5 7t-28.5 26q-27 146 -13 296q3 51 4 101h-24q-15 0 -32 7t-26 21q-7 14 3.5 21t22.5 7h308q16 0 33 -6.5t26 -20.5q7 -14 -4 -21.5t-22 -7.5
h-194q-1 -42 -3 -84q19 -6 32 -18q19 -18 40 -34q34 -26 60 -56.5t28 -76.5q-1 -41 -20 -75v-190q0 -20 -23 -22t-45 9q-20 9 -23 22l-20 7q-46 19 -89.5 22t-69.5 -46q-10 -16 -34 -14t-43 14t-13 28q42 77 112.5 74.5t143.5 -29.5q7 -2 13 -4v51z" />
    <glyph glyph-name="bn_ch_ba" horiz-adv-x="435" 
d="M161 337q-2 1 -3 2q-17 7 -34 15q-5 -54 4 -106q28 8 51.5 25t17.5 42q-3 7 -12 11.5t-18 7.5q-3 2 -6 3zM198 -29q29 -9 54 -23q-2 28 -2 55q-10 -7 -20 -12q-17 -9 -32 -20zM183 54q-11 0 -22 -1h-21q-19 0 -38 13t-21.5 27t27.5 16h7l35 8q73 10 127 53q36 32 46 79
q3 20 -4 38q-5 -1 -14 -4t-19 -11q-15 -43 -63.5 -63t-89.5 -22q-7 0 -15 1q-19 -2 -39 5.5t-27 20.5q-28 90 -15 181q2 25 3 49h-20q-15 0 -32.5 7t-26.5 21q-7 14 4 21t23 7h427q15 0 32.5 -6.5t26.5 -20.5q7 -14 -4 -21.5t-22 -7.5h-317l-2 -35q7 -2 13 -5q16 -9 38 -18
q46 -17 82 -45q47 13 96 -10q31 -16 46.5 -45.5t8.5 -64.5q-30 -100 -122 -129q59 -13 103 -43t57 -81q5 -18 -17 -20t-45 7t-28 25q-5 15 -14 26v-128q0 -13 1 -26q0 -3 -1 -5q0 -13 -16.5 -16t-36 1.5t-29.5 15.5l-10 14q-11 16 -24.5 30.5t-28.5 22.5q-23 9 -47 17
l-40 14q-13 5 -21 16t-1 24q22 30 55 45q11 6 21 13z" />
    <glyph glyph-name="bn_ch_ra" horiz-adv-x="435" 
d="M161 337q-2 1 -3 2q-17 7 -34 15q-5 -54 4 -106q28 8 51.5 25t17.5 42q-3 7 -12 11.5t-18 7.5q-3 2 -6 3zM250 48q-47 7 -89 5h-21q-19 0 -38 13t-21.5 27t27.5 16h7l35 8q73 10 127 53q36 32 46 79q3 20 -4 38q-5 -1 -14 -4t-19 -11q-15 -43 -63.5 -63t-89.5 -22
q-7 0 -15 1q-19 -2 -39 5.5t-27 20.5q-28 90 -15 181q2 25 3 49h-20q-15 0 -32.5 7t-26.5 21q-7 14 4 21t23 7h427q15 0 32.5 -6.5t26.5 -20.5q7 -14 -4 -21.5t-22 -7.5h-317l-2 -35q7 -2 13 -5q16 -9 38 -18q46 -17 82 -45q47 13 96 -10q31 -16 46.5 -45.5t8.5 -64.5
q-30 -100 -122 -129q59 -13 103 -43t57 -81q5 -18 -17 -20t-45 7t-28 25q-7 19 -20 33v-81q0 -20 -23 -22t-45 9q-20 9 -23 22l-20 7q-46 19 -89.5 22t-69.5 -46q-10 -16 -34 -14t-43 14t-13 28q42 77 112.5 74.5t143.5 -29.5q7 -2 13 -4v55z" />
    <glyph glyph-name="bn_j_ja" horiz-adv-x="835" 
d="M277 383h-4q-3 -16 -5 -31v-4q-1 -10 -1 -22.5t5 -21.5q-1 3 3 5.5t10 5.5q3 1 5.5 2.5t3.5 3.5q8 9 8 21q4 16 25.5 16t42.5 -10.5t22 -25.5q0 -14 1 -29q3 -44 -3.5 -88.5t-42.5 -72.5q-1 0 -1 -1q-1 0 -1 -1q15 -85 93 -95q27 -3 62.5 5t52.5 31q16 26 15 59
q-30 -3 -59 4q-14 0 -23 3q-55 17 -71.5 64.5t-1.5 99.5q5 22 18 40q2 2 5 7q2 7 7 10q4 8 -2 17q-12 9 -10 10h-54q-50 2 -100 -2zM784 18q6 -2 14 -6q9 -6 15.5 -14t4.5 -17q-4 -10 -13.5 -12.5t-20.5 -1.5t-19 3q-62 18 -77.5 73.5t1.5 113.5q6 25 22 46q5 6 10 20
t3 26.5t-17 12.5q-34 -1 -69 -1q-59 2 -117 -4q-6 -1 -13 0q-6 -27 -3 -52q5 -23 17.5 -21t24 16.5t13.5 30.5q3 15 24.5 15t42.5 -10.5t23 -25.5q1 -19 3 -41q6 -43 2.5 -85.5t-37.5 -67.5q-85 -51 -182 -33q-124 22 -172 125q-40 0 -74 13q-88 31 -136.5 93t-26.5 158
q7 17 30 16t43 -13t17 -30q-32 -117 74 -170q33 -15 66 -6q5 4 12 5q11 6 18 18q15 27 16 61q-31 0 -59.5 10t-46.5 27q-26 28 -22.5 71t15.5 83h-170q-15 0 -32.5 6.5t-26.5 21.5q-7 14 4 21t23 7h827q15 0 32 -6.5t26 -20.5q7 -15 -3.5 -22t-22.5 -7h-559v-2q58 3 115 -1
q33 -2 65 -15t52 -41q22 -30 9 -63q-1 -3 -3 -6q75 5 148 2q37 -1 76 -18t57 -52q11 -25 6 -42.5t-15 -34.5q-12 -18 -19 -42q-10 -33 -8 -67q1 -18 7 -35q1 -3 3 -5q1 -1 3 -4z" />
    <glyph glyph-name="bn_j_j_ba" horiz-adv-x="835" 
d="M277 383h-4q-3 -16 -5 -31v-4q-1 -10 -1 -22.5t5 -21.5q-1 3 3 5.5t10 5.5q3 1 5.5 2.5t3.5 3.5q8 9 8 21q4 16 25.5 16t42.5 -10.5t22 -25.5q0 -14 1 -29q3 -44 -3.5 -88.5t-42.5 -72.5q-1 0 -1 -1q-1 0 -1 -1q15 -85 93 -95q27 -3 62.5 5t52.5 31q16 26 15 59
q-30 -3 -59 4q-14 0 -23 3q-55 17 -71.5 64.5t-1.5 99.5q5 22 18 40q2 2 5 7q2 7 7 10q4 8 -2 17q-12 9 -10 10h-54q-50 2 -100 -2zM621 -99q29 -6 59 -26v64q-17 -13 -27 -18q-17 -9 -32 -20zM680 98q0 29 9 59q6 25 22 46q5 6 10 20t3 26.5t-17 12.5q-34 -1 -69 -1
q-59 2 -117 -4q-6 -1 -13 0q-6 -27 -3 -52q5 -23 17.5 -21t24 16.5t13.5 30.5q3 15 24.5 15t42.5 -10.5t23 -25.5q1 -19 3 -41q6 -43 2.5 -85.5t-37.5 -67.5q-85 -51 -182 -33q-124 22 -172 125q-40 0 -74 13q-88 31 -136.5 93t-26.5 158q7 17 30 16t43 -13t17 -30
q-32 -117 74 -170q33 -15 66 -6q5 4 12 5q11 6 18 18q15 27 16 61q-31 0 -59.5 10t-46.5 27q-26 28 -22.5 71t15.5 83h-170q-15 0 -32.5 6.5t-26.5 21.5q-7 14 4 21t23 7h827q15 0 32 -6.5t26 -20.5q7 -15 -3.5 -22t-22.5 -7h-559v-2q58 3 115 -1q33 -2 65 -15t52 -41
q22 -30 9 -63q-1 -3 -3 -6q75 5 148 2q37 -1 76 -18t57 -52q11 -25 6 -42.5t-15 -34.5q-12 -18 -19 -42q-9 -33 -9 -67v-93v-161q0 -13 1 -26q0 -3 -1 -5q0 -13 -16.5 -16t-36 1.5t-29.5 15.5l-10 14q-11 16 -24.5 30.5t-28.5 22.5q-23 9 -47 17l-40 14q-13 5 -21 16t-1 24
q22 30 55 45q11 6 21 13q24 16 45 35q18 17 38 31l5 4v54z" />
    <glyph glyph-name="bn_j_jha" horiz-adv-x="758" 
d="M401 -39q29 -9 54 -23q-2 28 -2 55q-10 -7 -20 -12q-17 -9 -32 -20zM550 -15v-117q0 -13 1 -26q0 -3 -1 -5q0 -13 -16.5 -16t-36 1.5t-29.5 15.5l-10 14q-11 16 -24.5 30.5t-28.5 22.5q-23 9 -47 17l-40 14q-13 5 -21 16t-1 24q22 30 55 45q11 6 21 13q24 16 45 35
q18 17 38 31l4 2v61q0 40 9 80q4 17 14 37q12 23 15 45.5t-14 39.5q-10 8 -30 8.5t-40 -0.5q-13 -1 -23 -1h-14q-33 1 -65 -2h-14q-5 -24 -4 -48q4 -27 17.5 -28.5t27 13t16.5 34.5q4 16 25.5 15.5t42.5 -10.5t23 -25q0 -19 1 -39q3 -57 -4 -113.5t-49 -93.5
q-42 -30 -94 -29t-97 20q-218 88 -175 315q5 16 28 15.5t43.5 -13t17.5 -30.5q-42 -159 99 -237q34 -16 71.5 -10.5t53.5 45.5q14 42 15 87q-61 -3 -107 24q-46 31 -45 82t17 100h-200q-15 0 -32.5 7t-26.5 21q-7 14 4 21t23 7h750q15 0 32 -6.5t26 -20.5q7 -14 -3.5 -21.5
t-22.5 -7.5h-34q3 -7 1 -15q-41 -245 -18 -483l4 -63q0 -19 -21.5 -21t-44 8t-24.5 27l-2 28q-6 4 -11 9q-25 32 -70 51zM644 444h-329q1 -4 0 -8l-2 -6v-2q75 4 149 -2q38 -3 73 -26.5t48 -60.5q7 -23 2 -41.5t-14 -36.5q-11 -21 -16 -46q-4 -20 -5 -40v-128q42 -13 72 -33
q-10 211 22 430z" />
    <glyph glyph-name="bn_j_nya" horiz-adv-x="648" 
d="M294 322q4 -27 17.5 -28.5t27 13t16.5 34.5q-9 10 -16 21q-11 17 -26 31l-7 7q-1 0 -1 1q-13 -40 -11 -79zM495 366q-24 -2 -35.5 -20t-14.5 -40q1 -12 1 -24q1 -13 1 -27q11 -16 27 -16q9 6 21 5q20 10 32.5 29.5t9.5 41.5q-3 16 -13.5 33t-28.5 18zM509 159
q13 13 11 27q-38 -5 -74 6q-2 -25 -9 -48q8 -3 15 -7q-4 2 1 -1h6h4.5t3.5 0.5l6 1.5h2q8 2 17.5 7.5t16.5 13.5zM628 500q16 0 33 -6.5t26 -20.5q7 -14 -4 -21.5t-22 -7.5h-308q11 -15 26 -28q6 -6 13 -12q0 -1 1 -2l1 -1q62 37 140 6.5t94 -105.5q5 -64 -41 -93
q16 -13 22 -32q5 -16 -1 -32.5t-19 -27.5q-80 -62 -174 -19q-9 -12 -22 -22q-41 -31 -93 -30t-98 20q-217 88 -175 315q6 16 29 15.5t43.5 -13t17.5 -30.5q-42 -159 99 -237q34 -16 71.5 -10.5t53.5 45.5q14 42 14 87q-60 -3 -106 24q-47 31 -45.5 82t17.5 100h-201
q-16 1 -33 7.5t-26 20.5q-3 5 -3 10q0 7 7 11q10 7 22 7h641z" />
    <glyph glyph-name="bn_j_ba" horiz-adv-x="607" 
d="M401 -39q29 -9 54 -23q-2 28 -2 55q-10 -7 -20 -12q-17 -9 -32 -20zM459 163q0 40 9 80q4 17 14 37q12 23 15 45.5t-14 39.5q-10 8 -30 8.5t-40 -0.5q-13 -1 -23 -1h-14q-33 1 -65 -2h-14q-5 -24 -4 -48q4 -27 17.5 -28.5t27 13t16.5 34.5q4 16 25.5 15.5t42.5 -10.5
t23 -25q0 -19 1 -39q3 -57 -4 -113.5t-49 -93.5q-42 -30 -94 -29t-97 20q-218 88 -175 315q5 16 28 15.5t43.5 -13t17.5 -30.5q-42 -159 99 -237q34 -16 71.5 -10.5t53.5 45.5q14 42 15 87q-61 -3 -107 24q-46 31 -45 82t17 100h-200q-15 0 -32.5 7t-26.5 21q-7 14 4 21
t23 7h599q15 0 32 -6.5t26 -20.5q7 -14 -3.5 -21.5t-22.5 -7.5h-304q1 -4 0 -8l-2 -6v-2q75 4 149 -2q38 -3 73 -26.5t48 -60.5q7 -23 2 -41.5t-14 -36.5q-11 -21 -16 -46q-4 -20 -5 -40v-307q0 -13 1 -26q0 -3 -1 -5q0 -13 -16.5 -16t-36 1.5t-29.5 15.5l-10 14
q-11 16 -24.5 30.5t-28.5 22.5q-23 9 -47 17l-40 14q-13 5 -21 16t-1 24q22 30 55 45q11 6 21 13q24 16 45 35q18 17 38 31l4 2v61z" />
    <glyph glyph-name="bn_j_ra" horiz-adv-x="607" 
d="M463 84q-5 30 -5 81q0 49 7 78q4 17 14 37q12 23 16.5 45.5t-12.5 39.5q-10 8 -30 8.5t-40 -0.5q-13 -1 -23 -1h-14q-33 1 -65 -2h-14q-5 -24 -4 -48q4 -27 17.5 -28.5t27 13t16.5 34.5q4 16 25.5 15.5t42.5 -10.5t23 -25q0 -19 1 -39q3 -57 -4 -113.5t-49 -93.5
q-42 -30 -94 -29t-97 20q-218 88 -175 315q5 16 28 15.5t43.5 -13t17.5 -30.5q-42 -159 99 -237q34 -16 71.5 -10.5t53.5 45.5q14 42 15 87q-61 -3 -107 24q-46 31 -45 82t17 100h-200q-15 0 -32.5 7t-26.5 21q-7 14 4 21t23 7h599q15 0 32 -6.5t26 -20.5q7 -14 -3.5 -21.5
t-22.5 -7.5h-304q1 -4 0 -8l-2 -6v-2q75 4 149 -2q38 -3 73 -26.5t48 -60.5q7 -23 2 -41.5t-14 -36.5q-11 -21 -17 -44q-7 -28 -7 -56q0 -33 3 -62q3 -25 11 -59q14 -62 19 -106q2 -19 -24.5 -21t-49.5 8q-14 5 -20 13q-20 5 -43 14q-46 19 -89.5 22t-69.5 -46
q-10 -16 -34 -14t-43 14t-13 28q42 77 112.5 74.5t143.5 -26.5l31 -11q-10 44 -18 95z" />
    <glyph glyph-name="bn_jh_ra" horiz-adv-x="537" 
d="M251 355q-22 -25 -48 -47l-33 -27q-27 -22 -49 -46q8 -4 16 -7q49 -19 92 -51q13 -11 25 -24v6q-12 99 -3 196zM423 444h-67q2 -6 1 -12q-20 -96 -19 -194q33 -13 63 -33q-10 121 22 239zM222 95l-19 25q-22 24 -44 39q-31 19 -65 32q-24 10 -47 22q-5 2 -12.5 7t-12 12
t-1.5 12q26 42 60 70l39 33q31 28 57 59q17 20 35 38h-192q-16 0 -33 7t-26 21q-7 14 3.5 21t22.5 7h530q16 0 33 -6.5t26 -20.5q7 -14 -4 -21.5t-22 -7.5h-35q3 -7 1 -15q-41 -144 -18 -292l4 -63q0 -19 -21.5 -21t-44 8t-24.5 27l-2 28q-6 4 -11 9q-25 32 -58 53
q1 -18 3 -36q4 -60 5 -120q0 -19 -22.5 -21t-44 8t-24.5 21v1q-10 3 -20 7q-46 19 -89.5 22t-69.5 -46q-10 -16 -34 -14t-43 14t-13 28q42 77 113 75q59 -3 120 -22z" />
    <glyph glyph-name="bn_ny_ca" horiz-adv-x="514" 
d="M494 295v0q5 -64 -41 -93q16 -13 22 -32q5 -16 -1 -32.5t-19 -27.5q-61 -51 -137 -32q2 -28 3 -56q-2 -19 -23.5 -21t-43.5 8t-24 27v5v3q-2 2 -3 4q-15 21 -33 40t-40 29q-24 9 -48 17t-48 17q-5 2 -12.5 7.5t-12.5 12.5t-1 14q27 41 72 62q6 4 12 7q35 22 65 49
q21 19 43 35q2 10 6 18q-1 0 -1 1q-1 0 -1 1q-7 12 -22 27.5t-32.5 25.5t-32.5 3q-25 -15 -31.5 -43t11.5 -51q15 -22 0 -29t-39 -3t-36 17q-36 50 -22.5 102t79.5 64q73 6 137 -38v39t22.5 22t45.5 -8.5t23 -26.5v-45q56 -1 104.5 -33t58.5 -86zM361 359v0q-19 -1 -30 -14
v-32q0 -9 -6 -14q-8 -26 -11 -53q11 -14 26 -14q9 6 21 5q20 10 32.5 29.5t9.5 41.5q-3 16 -13.5 33t-28.5 18zM137 176v0h2q46 -12 85 -37q-4 45 -3 90l-14 -10l-26 -15q-24 -11 -44 -28zM375 152v0q13 13 11 27q-38 -5 -75 6q1 -27 3 -53q17 -3 27 -1q8 2 17.5 7.5
t16.5 13.5z" />
    <glyph glyph-name="bn_ny_cha" horiz-adv-x="543" 
d="M516 365v0q13 -25 3.5 -51.5t-30.5 -42.5q-14 -12 -32 -18q22 -28 15 -65q-20 -69 -80 -93q85 -22 109 -95q2 -17 -18.5 -19.5t-43.5 7t-29 26.5q-10 31 -52.5 39t-79.5 6h-10h-7q-16 -1 -33 6t-26 21q-5 10 -1.5 16t11.5 9t16 4h2h2l25 6q25 4 49.5 12.5t42.5 24.5
q26 24 33 58q1 6 1 12q-2 0 -3 -1v-1q-1 0 -2 -1h-1q-1 -5 -4 -10q-23 -38 -71.5 -42t-86.5 7q-8 2 -18 7q-15 4 -26.5 12.5t-12.5 19.5q-1 76 28 146q0 1 -1 1q-1 2 -2 3q-5 8 -14.5 18t-19.5 16.5t-17 4.5q-17 -10 -22 -30.5t7 -36.5q15 -21 0 -28.5t-38.5 -3.5t-35.5 17
q-31 41 -20 84t66 53q66 6 123 -35q10 24 25 43.5t40 28.5q39 14 83 8t72 -40q18 -27 12 -59q46 -4 72 -44zM316 428v0q-11 -16 -16 -32q-3 -9 -7 -17q-8 -16 -15 -33q14 -6 23 -15t22 -20q9 -7 18 -15q4 0 8 1q26 0 51.5 10.5t30.5 39.5q-10 -5 -20 -11q-10 -5 -32 -1.5
t-38.5 14t-9.5 25.5q10 16 18.5 37.5t4.5 40.5q-1 7 -3.5 6.5t-6.5 -4.5q-3 -4 -8 -7q-11 -8 -20 -19zM249 228v0q15 2 27.5 8.5t10.5 18.5q-2 7 -7.5 13t-11.5 11q-2 2 -4 3l-2 2q-2 1 -3 3q-8 -29 -10 -59z" />
    <glyph glyph-name="bn_ny_ja" horiz-adv-x="576" 
d="M548 374v0q13 -25 3.5 -51.5t-30.5 -42.5q-5 -5 -11 -8q27 -22 36 -51q5 -19 0.5 -34.5t-11.5 -30.5q-10 -19 -14 -40q-7 -35 -3 -70q2 -14 6 -26q3 -6 5 -8q30 -18 21.5 -36t-47.5 -9q-54 20 -69 67t-5 100q3 15 12 35q9 19 14 37.5t-1 30.5q-9 10 -25.5 11.5
t-33.5 -0.5q-10 0 -17 -1q-7 1 -14 1q-27 1 -53 -1q-16 -2 -31 2q-4 -16 -6 -34t5 -32q-1 1 -0.5 1h2.5q2 -1 5.5 -0.5t7.5 2.5q8 5 11.5 11.5t4.5 15.5q4 15 25.5 15t42.5 -10.5t22 -25.5q0 -12 1 -26q3 -42 -3.5 -84.5t-41.5 -67.5q-72 -38 -151 -10q-84 29 -131 87
t-26 150q6 16 29.5 15t43.5 -13t17 -30q-30 -106 67 -154q23 -10 48.5 -9.5t41.5 22.5q14 23 16 54q-38 -1 -70.5 13.5t-45.5 41.5q-16 40 -7.5 83t24.5 84q3 8 6 17q-9 6 -14 14q-5 9 -17 22t-25.5 21.5t-25.5 3.5q-21 -12 -26.5 -36t8.5 -44q16 -21 1 -28.5t-39 -3.5
t-36 17q-33 46 -20.5 93t72.5 58q81 5 147 -50q18 41 49 66.5t84 20.5q30 -4 59.5 -18t39.5 -45q4 -19 1 -38q46 -4 72 -44zM296 304v0q39 2 78 1q4 0 7 1q26 0 51.5 10.5t30.5 39.5q-10 -5 -20 -11q-10 -5 -32 -1.5t-38.5 14t-9.5 25.5q17 27 23 58q2 10 0 20q-2 17 -7 0
q-18 -8 -31 -24q-22 -35 -33 -77q-3 -11 -7 -22l-8 -24z" />
    <glyph glyph-name="bn_ny_jha" horiz-adv-x="595" 
d="M404 381q0 -2 -1 -4q1 -13 0 -27q9 -13 24 -13q10 6 22 5q17 8 27.5 22.5t7.5 31.5q-8 28 -25.5 32t-34 -9.5t-20.5 -37.5zM467 281q1 1 1 2q-35 -1 -68 8l-2 -32q15 -5 21 -4q22 4 36 14q6 5 12 12zM391 74q24 -9 45 -21q-7 73 7 146q-20 0 -40 5q-7 -28 -9 -56
q0 -6 -1 -10q-3 -31 -2 -64zM216 71l6 -2q43 -15 82 -38q-4 51 -3 103q-8 -7 -16 -13q-12 -9 -25 -17q-25 -13 -44 -33zM574 382q6 -52 -31 -76q7 -7 11 -16q13 -30 -10 -54q7 -9 4 -18q-37 -113 -17 -229l4 -46q0 -19 -21.5 -21t-43.5 7.5t-25 26.5q-1 10 -2 19q-5 3 -9 7
q-19 19 -40 33l2 -20q3 -39 4 -77q2 -6 0 -10v-6q-1 -19 -23 -21t-43.5 8t-23.5 27v10q-5 6 -9 13q-13 21 -29 40.5t-37 29.5q-23 11 -47 19q-25 9 -48 20q-5 2 -12.5 7t-12 12t-1.5 14q26 44 71 68l12 8q30 21 54 46q-27 9 -49 12q-5 1 -9 2q-62 13 -126 20q-24 4 -37 18
t-8 26.5t35 9.5q101 -9 198 -38q17 -5 36 -12l12 10q1 1 2 1q1 6 1 12q3 25 5 50q1 8 2 18l2 25q-2 7 1 12v27q-3 6 -2 12q0 2 1 3v2q-2 27 -12 48q-6 -1 -13 -3q-43 -8 -79 -33q-11 -10 -21 -23t-14 -29q6 6 12 13q13 14 24 30q11 12 35 8t40.5 -17.5t6.5 -30.5
q-21 -31 -52 -56t-72 -21q-36 5 -62.5 27t-22.5 62q12 63 68 93t116 37q80 9 108 -37q60 15 122.5 -13t74.5 -86z" />
    <glyph glyph-name="bn_tt_tta" horiz-adv-x="366" 
d="M234 56q-24 -13 -51 -23q-53 -16 -101 11q-25 10 -30 28q-1 2 -1 4v3q-4 7 -2 12q-22 176 -9 353h-20q-15 0 -32 7t-26 21q-7 14 3.5 21t22.5 7h191q2 7 4 13q8 21 11 43q1 9 2 12q1 2 1 2.5t-1.5 1t-4.5 0.5q-18 0 -36 -1q-65 -7 -129 4q-32 6 -64 19t-51 41
q-15 22 -17.5 47t20.5 43q11 7 28.5 5t33.5 -10t23 -17.5t-3 -17.5q-14 -12 -11 -29.5t21 -23.5q26 -6 53 -7t54 1q34 3 68 0q62 -5 97 -54q9 -16 7.5 -34.5t-7.5 -37.5h68q15 0 32.5 -6.5t26.5 -20.5q7 -14 -4 -21.5t-23 -7.5h-246q-15 -177 6 -353q16 7 31 17q35 24 63 56
q24 25 23 60q0 19 -6 37q-3 9 -9 18q-32 -1 -55 20q-9 10 -6.5 21t17.5 13q45 5 84 -14t56 -63q27 -70 -17 -126q6 -5 9 -10q21 -40 3 -78.5t-52 -63.5q-94 -56 -204 -46q-17 -1 -33.5 6t-25.5 21q-7 14 3 21t23 7h13q36 -1 74 3.5t67 27.5q20 15 38 38z" />
    <glyph glyph-name="bn_tt_ba" horiz-adv-x="366" 
d="M346 500q15 0 32.5 -6.5t26.5 -20.5q7 -14 -4 -21.5t-23 -7.5h-246q-15 -177 6 -353q16 7 31 17q35 24 63 56q24 25 23 60q0 19 -6 37q-3 9 -9 18q-32 -1 -55 20q-9 10 -6.5 21t17.5 13q45 5 84 -14t56 -63q28 -73 -21 -131q-54 -64 -132 -92q-53 -16 -101 11
q-25 10 -30 28q-1 2 -1 4v3q-4 7 -2 12q-22 176 -9 353h-20q-15 0 -32 7t-26 21q-7 14 3.5 21t22.5 7h191q2 7 4 13q8 21 11 43q1 9 2 12q1 2 1 2.5t-1.5 1t-4.5 0.5q-18 0 -36 -1q-65 -7 -129 4q-32 6 -64 19t-51 41q-15 22 -17.5 47t20.5 43q11 7 28.5 5t33.5 -10
t23 -17.5t-3 -17.5q-14 -12 -11 -29.5t21 -23.5q26 -6 53 -7t54 1q34 3 68 0q62 -5 97 -54q9 -16 7.5 -34.5t-7.5 -37.5h68zM325 -97q0 -13 1 -26q0 -3 -1 -5q0 -13 -16.5 -16t-36 1.5t-29.5 15.5l-10 14q-11 16 -24.5 30.5t-28.5 22.5q-23 9 -47 17l-40 14q-13 5 -21 16
t-1 24q22 30 55 45q11 6 21 13q24 16 45 35q18 17 38 31l4 2v0q0 20 22.5 21.5t45.5 -8.5t23 -26v-221zM176 -4v0q29 -9 54 -23q-2 28 -2 55q-10 -7 -20 -12q-17 -9 -32 -20z" />
    <glyph glyph-name="bn_tt_ra" horiz-adv-x="366" 
d="M235 57q-25 -14 -52 -24q-53 -16 -101 11q-25 10 -30 28q-1 2 -1 4v3q-4 7 -2 12q-22 176 -9 353h-20q-15 0 -32 7t-26 21q-7 14 3.5 21t22.5 7h191q2 7 4 13q8 21 11 43q1 9 2 12q1 2 1 2.5t-1.5 1t-4.5 0.5q-18 0 -36 -1q-65 -7 -129 4q-32 6 -64 19t-51 41
q-15 22 -17.5 47t20.5 43q11 7 28.5 5t33.5 -10t23 -17.5t-3 -17.5q-14 -12 -11 -29.5t21 -23.5q26 -6 53 -7t54 1q34 3 68 0q62 -5 97 -54q9 -16 7.5 -34.5t-7.5 -37.5h68q15 0 32.5 -6.5t26.5 -20.5q7 -14 -4 -21.5t-23 -7.5h-246q-15 -177 6 -353q16 7 31 17q35 24 63 56
q24 25 23 60q0 19 -6 37q-3 9 -9 18q-32 -1 -55 20q-9 10 -6.5 21t17.5 13q45 5 84 -14t56 -63q25 -64 -10 -116v-222q0 -20 -23 -22t-45 9q-20 9 -23 22l-20 7q-46 19 -89.5 22t-69.5 -46q-10 -16 -34 -14t-43 14t-13 28q42 77 112.5 74.5t143.5 -29.5q7 -2 13 -4v78z" />
    <glyph glyph-name="bn_tth_ra" horiz-adv-x="447" 
d="M324 156q21 63 0 119t-62 105q9 -38 3 -73.5t-41 -65.5q-52 -41 -112 -34q2 -35 16 -64t50 -40q44 -14 85 -3.5t61 56.5zM238 500h189q16 0 33 -6.5t26 -20.5q7 -14 -4 -21.5t-22 -7.5h-168q85 -82 126 -185q17 -52 3 -110q-5 -22 -15 -39v-178q0 -20 -23 -22t-45 9
q-20 9 -23 22l-20 7q-46 19 -89.5 22t-69.5 -46q-10 -16 -34 -14t-43 14t-13 28q42 77 112.5 74.5t143.5 -29.5q7 -2 13 -4v52q-38 -10 -79 -6q-65 6 -120 35q-101 58 -96 177q2 18 22 21q14 5 31.5 3t30.5 -11t30 7t29.5 38t14.5 33q1 51 -19 100q-1 1 -1 2h-138
q-16 0 -33 7t-26 21q-7 14 4 21t22 7h165l-11 13l-25 28q-29 34 -29 78q0 51 33.5 81t82.5 29q17 -1 33.5 -7t25.5 -21q7 -13 -3 -20.5t-23 -7.5q-26 0 -41 -19t-17 -44q-3 -32 15 -54q23 -30 45 -56z" />
    <glyph glyph-name="bn_dd_dda" horiz-adv-x="706" 
d="M356 131l-1 -1q-37 -27 -82 -27q-2 0 -26 0.5t-65 17.5q-162 66 -162 219q0 30 6 63q7 18 31 17q21 0 39.5 -11.5t18.5 -28.5v-4q-8 -32 -8 -60q0 -91 91 -142q21 -9 43 -9q9 0 28 2.5t32 34.5q12 36 12 69h-5q-48 0 -86 22q-42 27 -42 78q0 35 12 73h-172
q-15 0 -32.5 6.5t-26.5 21.5q-7 14 4 21t23 7h698q16 0 33 -7t26 -21q7 -14 -4 -21t-22 -7h-169q-1 -5 -3 -11q-16 -46 -15 -92q3 -27 17 -28.5t27.5 13t16.5 34.5q3 16 24.5 15.5t42.5 -10.5t23 -25q0 -19 1 -39q4 -57 -3.5 -113.5t-49.5 -93.5q-41 -30 -93 -29t-98 20
q-48 20 -84 46zM289 444l-6 -15q-13 -38 -13 -74v-5q2 -20 12 -20q9 0 18.5 10.5t12.5 26.5q3 19 27 18q20 0 40 -9.5t22 -26.5l2 -70q0 -32 -5 -74q-2 -12 -7 -24q25 -26 61 -46q35 -16 72.5 -10.5t53.5 45.5q14 42 14 87q-60 -3 -107 24q-42 28 -44 72.5t11 90.5h-164z
" />
    <glyph glyph-name="bn_dd_ra" 
d="M330 67q-15 -2 -30 -2q-52 1 -98 20q-217 88 -175 315q6 16 29 15.5t43 -13t18 -30.5q-42 -159 98 -237q35 -16 72.5 -10.5t53.5 45.5q14 42 14 87q-60 -3 -107 24q-42 28 -44 72.5t11 90.5h-195q-15 0 -32.5 6.5t-26.5 21.5q-7 14 4 21t23 7h460q16 0 33 -7t26 -21
q7 -14 -4 -21t-22 -7h-169q-1 -5 -3 -11q-16 -46 -15 -92q3 -27 17 -28.5t27.5 13t16.5 34.5q3 16 24.5 15.5t42.5 -10.5t23 -25q0 -19 1 -39q4 -57 -3 -113q-5 -34 -22 -61v-162q0 -20 -23 -22t-45 9q-20 9 -23 22l-20 7q-46 19 -89.5 22t-69.5 -46q-10 -16 -34 -14t-43 14
t-13 28q42 77 112.5 74.5t143.5 -29.5q7 -2 13 -4v41z" />
    <glyph glyph-name="bn_ddh_ra" horiz-adv-x="366" 
d="M235 57q-25 -14 -52 -24q-53 -16 -101 11q-25 10 -30 28q-1 2 -1 4v3q-4 7 -2 12q-22 176 -9 353h-20q-15 0 -32 7t-26 21q-7 14 3.5 21t22.5 7h358q15 0 32.5 -6.5t26.5 -20.5q7 -14 -4 -21.5t-23 -7.5h-246q-15 -177 6 -353q16 7 31 17q35 24 63 56q24 25 23 60
q0 19 -6 37q-3 9 -9 18q-32 -1 -55 20q-9 10 -6.5 21t17.5 13q45 5 84 -14t56 -63q25 -64 -10 -116v-222q0 -20 -23 -22t-45 9q-20 9 -23 22l-20 7q-46 19 -89.5 22t-69.5 -46q-10 -16 -34 -14t-43 14t-13 28q42 77 112.5 74.5t143.5 -29.5q7 -2 13 -4v78z" />
    <glyph glyph-name="bn_nn_tta" horiz-adv-x="591" 
d="M264 436q1 4 1 8l2 28q1 14 11.5 21t22.5 7h103q2 7 4 13q8 21 11 43q1 9 2 12q1 2 1 2.5t-1.5 1t-4.5 0.5q-18 0 -36 -1q-65 -7 -129 4q-32 6 -64 19t-51 41q-15 22 -17.5 47t20.5 43q11 7 28.5 5t33.5 -10t23 -17.5t-3 -17.5q-14 -12 -11 -29.5t21 -23.5q26 -6 53 -7
t54 1q34 3 68 0q62 -5 97 -54q9 -16 7.5 -34.5t-7.5 -37.5h68q15 0 32.5 -6.5t26.5 -20.5q7 -14 -4 -21.5t-23 -7.5h-246q-15 -177 6 -353q16 7 31 17q35 24 63 56q24 25 23 60q0 19 -6 37q-3 9 -9 18q-32 -1 -55 20q-9 10 -6.5 21t17.5 13q45 5 84 -14t56 -63
q28 -73 -21 -131q-54 -64 -132 -92q-53 -16 -101 11q-25 10 -30 28q-1 2 -1 4v3q-4 7 -2 12q-16 131 -13 262q-2 1 -3 3q-10 15 -30 35.5t-44 30t-43 -5.5q-17 -16 -25 -37.5t0 -36t39 -10.5q16 3 33.5 -2t29.5 -17q10 -11 7 -21t-17 -14q-42 -7 -85.5 2t-74.5 37
q-30 31 -27.5 71t37.5 67q48 32 103 24q55 -9 103 -43z" />
    <glyph glyph-name="bn_nn_ttha" horiz-adv-x="488" 
d="M364 156q22 62 1 118.5t-63 105.5q10 -38 4 -74t-41 -65q-52 -41 -112 -34q1 -35 15 -64t50 -40q45 -14 86 -3.5t60 56.5zM278 501l24 -1h166q15 0 32 -6.5t26 -20.5q7 -15 -3.5 -22t-22.5 -7h-167q84 -82 126 -185q16 -52 2.5 -110.5t-64.5 -88.5q-56 -28 -121 -21.5
t-120 34.5q-100 59 -95 177q1 19 22 22q13 5 31 3t30 -11q14 -9 30.5 6.5t29.5 38t14 32.5q2 52 -19 101q-2 5 -4 11q-26 14 -49 11q-18 -5 -27.5 -20.5t-7.5 -34.5q2 -8 5.5 -14.5t5.5 -9.5l1 -2q7 -2 17 -7t16.5 -13t3.5 -18q-3 -9 -13 -12t-21 -2t-18 4q-27 7 -50.5 25
t-32.5 44q-11 36 3.5 67t49.5 43q50 13 105 -2l-1 1l-25 28q-29 34 -29 78q0 51 33.5 81t82.5 29q17 -1 33.5 -7t25.5 -21q7 -13 -3 -20.5t-23 -7.5q-26 0 -41 -19t-17 -44q-3 -32 15 -54q22 -29 44 -55z" />
    <glyph glyph-name="bn_nn_dda" horiz-adv-x="553" 
d="M486 411v0q53 -39 45.5 -101.5t-55.5 -100.5q45 -72 -40 -129q-86 -57 -186 -33q-87 18 -157 76.5t-73 152.5q2 20 24 22t43.5 -8.5t23.5 -26.5q5 -120 121 -159q60 -20 115 12q32 18 49 42.5t-12 55.5q-6 7 -7 14q-6 10 9 18q34 16 48.5 51.5t-0.5 71.5q-7 -5 -14 -12
q-18 -23 -28 -51q-6 -16 -24.5 -16t-37.5 9t-25 20l-4 8q-12 24 -29 47t-44 28q-17 2 -25.5 -12t-9.5 -29q-1 -12 0 -24.5t8 -22.5l2 -2q12 -5 21 -13.5t6 -20.5q-3 -9 -13 -12t-21 -2t-18 3q-29 11 -51.5 33.5t-24.5 55.5q-1 38 15 66t56 35q98 10 164 -64q61 66 149 18z
" />
    <glyph glyph-name="bn_nn_dd_ra" horiz-adv-x="553" 
d="M366 48q-55 -16 -116 -1q-87 18 -157 76.5t-73 152.5q2 20 24 22t43.5 -8.5t23.5 -26.5q5 -120 121 -159q60 -20 115 12q32 18 49 42.5t-12 55.5q-6 7 -7 14q-6 10 9 18q34 16 48.5 51.5t-0.5 71.5q-7 -5 -14 -12q-18 -23 -28 -51q-6 -16 -24.5 -16t-37.5 9t-25 20l-4 8
q-12 24 -29 47t-44 28q-17 2 -25.5 -12t-9.5 -29q-1 -12 0 -24.5t8 -22.5l2 -2q12 -5 21 -13.5t6 -20.5q-3 -9 -13 -12t-21 -2t-18 3q-29 11 -51.5 33.5t-24.5 55.5q-1 38 15 66t56 35q98 10 164 -64q61 66 149 18q53 -39 45.5 -101.5t-55.5 -100.5q39 -62 -19 -113v-164
q0 -20 -23 -22t-45 9q-20 9 -23 22l-20 7q-46 19 -89.5 22t-69.5 -46q-10 -16 -34 -14t-43 14t-13 28q42 77 112.5 74.5t143.5 -29.5q7 -2 13 -4v55z" />
    <glyph glyph-name="bn_nn_ddha" horiz-adv-x="591" 
d="M264 436q1 4 1 8l2 28q1 14 11.5 21t22.5 7h270q15 0 32.5 -6.5t26.5 -20.5q7 -14 -4 -21.5t-23 -7.5h-246q-15 -177 6 -353q16 7 31 17q35 24 63 56q24 25 23 60q0 19 -6 37q-3 9 -9 18q-32 -1 -55 20q-9 10 -6.5 21t17.5 13q45 5 84 -14t56 -63q28 -73 -21 -131
q-54 -64 -132 -92q-53 -16 -101 11q-25 10 -30 28q-1 2 -1 4v3q-4 7 -2 12q-16 131 -13 262q-2 1 -3 3q-10 15 -30 35.5t-44 30t-43 -5.5q-17 -16 -25 -37.5t0 -36t39 -10.5q16 3 33.5 -2t29.5 -17q10 -11 7 -21t-17 -14q-42 -7 -85.5 2t-74.5 37q-30 31 -27.5 71t37.5 67
q48 32 103 24q55 -9 103 -43z" />
    <glyph glyph-name="bn_nn_nna" horiz-adv-x="464" 
d="M331 188q-5 86 -4 167q-15 24 -44 51.5t-63 40.5t-64 -6q-22 -15 -39 -46t-3 -58q12 -19 33 -22.5t42 1.5q16 3 33.5 -2.5t29.5 -17.5q10 -10 7 -20.5t-17 -13.5q-49 -9 -101.5 1.5t-90.5 45.5q-34 37 -29.5 83.5t42.5 80.5q60 46 132 32.5t134 -61.5q2 58 6 116
q2 16 24 15.5t43.5 -12t21.5 -30.5l-2 -33h22q16 0 33 -7t26 -21q7 -14 -4 -21t-22 -7h-57q-10 -203 14 -423q1 -19 -20 -21t-44 7.5t-26 26.5q-4 32 -6 63q-2 2 -3 4q-10 15 -30 35t-44 30t-43 -6q-17 -16 -25 -37.5t0 -36t39 -9.5q16 3 33.5 -2.5t29.5 -17.5
q10 -10 7 -20.5t-17 -13.5q-42 -7 -85 2t-75 37q-30 30 -27.5 70.5t37.5 67.5q48 31 102 23q50 -7 94 -35z" />
    <glyph glyph-name="bn_nn_ba" horiz-adv-x="464" 
d="M334 134l-2 28l-19 -11q-17 -9 -32 -20q29 -9 55 -23q0 3 -1 5q-1 11 -1 21zM328 266q-2 45 -1 89q-15 24 -44 51.5t-63 40.5t-64 -6q-22 -15 -39 -46t-3 -58q12 -19 33 -22.5t42 1.5q16 3 33.5 -2.5t29.5 -17.5q10 -10 7 -20.5t-17 -13.5q-49 -9 -101.5 1.5t-90.5 45.5
q-34 37 -29.5 83.5t42.5 80.5q60 46 132 32.5t134 -61.5q2 58 6 116q2 16 24 15.5t43.5 -12t21.5 -30.5l-2 -33h22q16 0 33 -7t26 -21q7 -14 -4 -21t-22 -7h-57q-10 -203 14 -423q1 -10 -4 -15q0 -12 -16 -15q-17 -3 -36.5 1.5t-29.5 15.5l-10 14q-11 16 -24.5 30.5
t-28.5 22.5q-23 9 -47 17l-40 14q-13 5 -21 16t-1 24q22 30 55 45q11 6 21 13q24 16 45 35q15 14 30 26z" />
    <glyph glyph-name="bn_nn_ma" horiz-adv-x="634" 
d="M420 444q-5 -99 -2 -202h1q1 -54 5 -109q40 -17 80 -46q-6 179 -2 357h-82zM614 500q15 0 32.5 -6.5t26.5 -20.5q7 -14 -4 -21.5t-23 -7.5h-53q-7 -221 6 -442q0 -18 -19 -21t-40 4.5t-30 22.5q-29 28 -64 52q0 -27 -21 -50q-12 -11 -30 -17t-34 -5q-52 4 -73.5 40
t0.5 83q18 30 45 38q-4 48 -5 93q-2 58 -1 113q-15 24 -44 51.5t-63 40.5t-64 -6q-22 -15 -39 -46t-3 -58q12 -19 33 -22.5t42 1.5q16 3 33.5 -2.5t29.5 -17.5q10 -10 7 -20.5t-17 -13.5q-49 -9 -101.5 1.5t-90.5 45.5q-34 37 -29.5 83.5t42.5 80.5q60 46 132 32.5
t134 -61.5q2 58 6 116q2 16 24 15.5t43.5 -12t21.5 -30.5l-2 -33h192z" />
    <glyph glyph-name="bn_nn_ra" horiz-adv-x="464" 
d="M444 500v0q16 0 33 -7t26 -21q7 -14 -4 -21t-22 -7h-57q-10 -203 14 -423q1 -19 -20 -21t-44 7.5t-26 26.5q-19 169 -17 321v0v0q-15 24 -44 51.5t-63 40.5t-64 -6q-22 -15 -39 -46t-3 -58q12 -19 33 -22.5t42 1.5q16 3 33.5 -2.5t29.5 -17.5q10 -10 7 -20.5t-17 -13.5
q-49 -9 -101.5 1.5t-90.5 45.5q-34 37 -29.5 83.5t42.5 80.5q60 46 132 32.5t134 -61.5q2 58 6 116q2 16 24 15.5t43.5 -12t21.5 -30.5l-2 -33h22zM339 85l6 -54q-10 3 -20 7q-46 19 -89.5 22t-69.5 -46q-10 -16 -34 -14t-43 14t-13 28q42 77 112.5 74.5t143.5 -29.5
q3 -1 7 -2z" />
    <glyph glyph-name="bn_t_ta" horiz-adv-x="455" 
d="M380 237v0q29 -19 45.5 -45.5t3.5 -60.5q-43 -93 -144 -105q-96 -6 -182 57t-83 165q4 16 26 15.5t43 -12.5t21 -30q-2 -56 43.5 -103t102.5 -35q29 9 55 33.5t30 52.5t-33 48q-19 10 -23 19q-7 11 0 22q2 3 5 6q11 15 20.5 33t5.5 37q-5 38 -40 33q-17 -2 -33.5 -10
t-20.5 -28v-8q15 3 33 -2.5t29.5 -16t7.5 -23.5q-13 -32 -44.5 -37t-62.5 10t-43 43q-34 86 51 119q46 14 98.5 6.5t86.5 -43.5q54 -72 2 -140zM435 500q16 0 33 -6.5t26 -20.5q7 -15 -4 -22t-22 -7h-448q-16 0 -33 7t-26 21q-7 14 4 21t22 7h448z" />
    <glyph glyph-name="bn_t_t_ba" horiz-adv-x="455" 
d="M380 237v0q29 -19 45.5 -45.5t3.5 -60.5q-43 -93 -144 -105q-96 -6 -182 57t-83 165q4 16 26 15.5t43 -12.5t21 -30q-2 -56 43.5 -103t102.5 -35q29 9 55 33.5t30 52.5t-33 48q-19 10 -23 19q-7 11 0 22q2 3 5 6q11 15 20.5 33t5.5 37q-5 38 -40 33q-17 -2 -33.5 -10
t-20.5 -28v-8q15 3 33 -2.5t29.5 -16t7.5 -23.5q-13 -32 -44.5 -37t-62.5 10t-43 43q-34 86 51 119q46 14 98.5 6.5t86.5 -43.5q54 -72 2 -140zM435 500q16 0 33 -6.5t26 -20.5q7 -15 -4 -22t-22 -7h-448q-16 0 -33 7t-26 21q-7 14 4 21t22 7h448zM357 -148q0 -13 1 -26
q0 -3 -1 -5q0 -13 -16.5 -16t-36 1.5t-29.5 15.5l-10 14q-11 16 -24.5 30.5t-28.5 22.5q-23 9 -47 17l-40 14q-13 5 -21 16t-1 24q22 30 55 45q11 6 21 13q24 16 45 35q18 17 38 31l4 2v0l91 -13v-221zM208 -55v0q29 -9 54 -23q-2 28 -2 55q-10 -7 -20 -12q-17 -9 -32 -20z
" />
    <glyph glyph-name="bn_t_tha" horiz-adv-x="507" 
d="M325 408q8 -21 8 -53q-1 -64 -39 -102q-20 -19 -49 -34q5 -1 9 -3q66 -27 122 -85v414q0 20 22.5 21.5t45.5 -8.5t23 -27v-31h20q15 0 32.5 -6.5t26.5 -20.5q7 -14 -4 -21.5t-23 -7.5h-52v-422q0 -20 -22.5 -21.5t-45.5 9t-23 26.5q-87 118 -213 151q-15 4 -29 9
q-11 4 -23 15q-9 10 -8 19t9 14t15 7t14 2q40 1 68.5 30.5t34.5 69.5q4 26 1 39q-2 10 -5 14q-7 -9 -23 -17t-31.5 -9t-19.5 14q0 5 -1 12q0 12 -3 24t-13 20q-3 3 -5 4l-2 2l-4 -4q-19 -14 -31 -36q21 -1 38 -13q15 -11 26.5 -33t4.5 -41q-29 -54 -83 -53.5t-71 63.5
q-3 13 -2 25q-9 5 -8.5 14t15.5 18q23 59 77 88q41 23 85 13q34 -10 42 -37q22 8 49 -2q29 -13 41 -39q2 -4 4 -11z" />
    <glyph glyph-name="bn_t_na" horiz-adv-x="508" 
d="M361 332q-12 -50 37 -53q1 27 -12 50q-8 12 -18 24q-5 -10 -7 -21zM488 500q16 0 33 -6.5t26 -20.5q7 -14 -4 -21.5t-22 -7.5h-501q-16 0 -33 7t-26 21q-7 14 4 21t22 7h501zM329 86q-48 -4 -90 11q-88 35 -137 109t-80 160q-7 21 11.5 26t42 -2.5t31.5 -22.5q3 -7 6 -15
q31 -97 95 -173q35 -42 88 -36q64 11 89 72q3 6 5 13q-54 10 -94 41.5t-25 89.5q20 57 69 55t93.5 -39t51.5 -84q16 -105 -63 -173q-1 -1 -2 -1v-215q0 -20 -23 -22t-45.5 8.5t-22.5 26.5v41q-3 2 -4 5q-10 15 -30 35.5t-44 30t-43 -6.5q-17 -15 -25 -36.5t0 -36.5t39 -10
q16 3 33.5 -2t29.5 -17q10 -11 7 -21.5t-17 -13.5q-42 -7 -85 2t-75 37q-30 31 -27.5 71t37.5 67q48 31 102 23t102 -40v43z" />
    <glyph glyph-name="bn_t_ba" horiz-adv-x="508" 
d="M361 332q-12 -50 37 -53q1 27 -12 50q-8 12 -18 24q-5 -10 -7 -21zM258 6q29 -9 54 -23q-2 28 -2 55q-10 -7 -20 -12q-17 -9 -32 -20zM488 500q16 0 33 -6.5t26 -20.5q7 -14 -4 -21.5t-22 -7.5h-501q-16 0 -33 7t-26 21q-7 14 4 21t22 7h501zM249 94q-5 1 -10 3
q-88 35 -137 109t-80 160q-7 21 11.5 26t42 -2.5t31.5 -22.5q3 -7 6 -15q31 -97 95 -173q35 -42 88 -36q64 11 89 72q3 6 5 13q-54 10 -94 41.5t-25 89.5q20 57 69 55t93.5 -39t51.5 -84q16 -105 -63 -173q-7 -5 -15 -10v-195q0 -13 1 -26q0 -3 -1 -5q0 -13 -16.5 -16
t-36 1.5t-29.5 15.5l-10 14q-11 16 -24.5 30.5t-28.5 22.5q-23 9 -47 17l-40 14q-13 5 -21 16t-1 24q22 30 55 45q11 6 21 13t20 15z" />
    <glyph glyph-name="bn_t_la" horiz-adv-x="508" 
d="M361 332q-12 -50 37 -53q1 27 -12 50q-8 12 -18 24q-5 -10 -7 -21zM488 500q16 0 33 -6.5t26 -20.5q7 -14 -4 -21.5t-22 -7.5h-501q-16 0 -33 7t-26 21q-7 14 4 21t22 7h501zM347 88q-7 -1 -13 -2q-51 -5 -95 11q-88 35 -137 109t-80 160q-7 21 11.5 26t42 -2.5
t31.5 -22.5q3 -7 6 -15q31 -97 95 -173q35 -42 88 -36q64 11 89 72q3 6 5 13q-54 10 -94 41.5t-25 89.5q20 57 69 55t93.5 -39t51.5 -84q14 -94 -47 -158v-236q0 -20 -23 -22t-45.5 8.5t-22.5 26.5v23q-15 8 -32 29q-2 -17 -1 -34q0 -15 -14.5 -19t-33.5 0.5t-32 14.5
q-8 5 -14 10l-12 12q0 -28 -8 -56q-7 -16 -30.5 -15t-43.5 13.5t-16 29.5q10 37 9 76q0 18 1 37q1 6 7.5 9.5t11.5 3.5q51 5 91 -26q6 22 13 42q7 14 23.5 14.5t29.5 -3.5q22 -8 51 -23v40z" />
    <glyph glyph-name="bn_t_ma" horiz-adv-x="659" 
d="M360 333q-12 -50 37 -53q1 27 -12 50q-7 12 -18 24q-5 -10 -7 -21zM236 10q16 2 30 12q12 15 11 31q-24 -1 -39 -23q-4 -6 -7 -11q-5 -6 -5.5 -9t10.5 0zM639 500q15 0 32.5 -6.5t26.5 -20.5q7 -14 -4 -21.5t-23 -7.5h-52q-14 -235 8 -470q1 -9 -11 -19q-9 -8 -25 -9
t-32 8q-91 52 -192 83q0 -20 -6.5 -37.5t-27.5 -28.5q-52 -25 -108 -19q-56 10 -77 49.5t22 82.5q20 18 46 23q-77 39 -121 109.5t-74 150.5q-6 21 12.5 25.5t42 -2.5t30.5 -22q3 -8 6 -15q31 -97 95 -173q35 -42 88 -36q65 11 90 72q2 6 4 13q-54 10 -93.5 41.5t-25.5 89.5
q21 57 69.5 55t93 -39t52.5 -84q15 -105 -63 -173q-27 -19 -62 -27q1 0 1 -1q4 -1 7 -2q85 -26 165 -62q-17 208 -6 417h-507q-16 0 -33 7t-26 21q-7 14 4 21t22 7h652z" />
    <glyph glyph-name="bn_t_ra" horiz-adv-x="429" 
d="M262 425q76 9 104 -36.5t28 -116.5t-8 -137q-6 -50 -6 -81v-5q2 -6 3 -13q1 -18 -20.5 -20.5t-44 7.5t-26.5 27q-6 27 -36 39.5t-57 17.5q-5 2 -9 3q-61 14 -123 21q-24 4 -37 18.5t-8.5 26.5t35.5 9q95 -9 187 -38q22 -8 48 -19q2 16 3 31q4 27 6 54q0 9 1 19
q3 33 3 69.5t-12 65.5h-1q-1 -1 -2 -1q-39 -9 -73 -30q-15 -10 -27 -25.5t-17 -34.5l3 3q3 3 6 7q12 15 23 31q10 13 34 9t41 -17.5t8 -30.5q-21 -33 -51 -59.5t-71 -21.5q-40 6 -65 32t-17 69q15 59 67.5 89t110.5 38zM409 500q15 0 32 -6.5t26 -20.5q7 -15 -3.5 -22
t-22.5 -7h-421q-15 0 -32.5 7t-26.5 21q-7 14 4 21t23 7h421z" />
    <glyph glyph-name="bn_th_ba" horiz-adv-x="424" 
d="M214 119q-60 49 -134 68q-15 4 -29 9q-11 4 -23 15q-9 10 -8 19t9 14t15 7t14 2q40 1 68.5 30.5t34.5 69.5q4 26 1.5 45.5t-8.5 21.5q-9 3 -19 4q1 -9 1 -18q2 -21 0.5 -42t-14.5 -37q-13 -12 -37 -7.5t-40.5 18t-5.5 28.5q8 10 8 26t-1 32q-1 9 -1 17t5 13q-6 13 4 20
t23 7q54 0 113.5 -20.5t59.5 -105.5q-1 -64 -39 -102q-20 -19 -49 -34q5 -1 9 -3q49 -20 92 -56q12 10 26 20l4 2v363q0 20 22.5 21.5t45.5 -8.5t23 -27v-31h20q15 0 32.5 -6.5t26.5 -20.5q7 -14 -4 -21.5t-23 -7.5h-52v-496q0 -13 1 -26q0 -3 -1 -5q0 -13 -16.5 -16
t-36 1.5t-29.5 15.5l-10 14q-11 16 -24.5 30.5t-28.5 22.5q-23 9 -47 17l-40 14q-13 5 -21 16t-1 24q22 30 55 45q11 6 21 13q4 3 8 5zM235 41v0q29 -9 58 -25v61q-16 -11 -26 -16q-17 -9 -32 -20z" />
    <glyph glyph-name="bn_th_ra" horiz-adv-x="424" 
d="M235 101q-68 63 -155 86q-15 4 -29 9q-11 4 -23 15q-9 10 -8 19t9 14t15 7t14 2q40 1 68.5 30.5t34.5 69.5q4 26 1.5 45.5t-8.5 21.5q-9 3 -19 4q1 -9 1 -18q2 -21 0.5 -42t-14.5 -37q-13 -12 -37 -7.5t-40.5 18t-5.5 28.5q8 10 8 26t-1 32q-1 9 -1 17t5 13q-6 13 4 20
t23 7q54 0 113.5 -20.5t59.5 -105.5q-1 -64 -39 -102q-20 -19 -49 -34q5 -1 9 -3q66 -27 122 -85v414q0 20 22.5 21.5t45.5 -8.5t23 -27v-31h20q15 0 32.5 -6.5t26.5 -20.5q7 -14 -4 -21.5t-23 -7.5h-52v-422q0 -20 -22.5 -21.5t-45.5 9.5q-19 8 -22 21q-10 3 -21 7
q-46 19 -89.5 22t-69.5 -46q-10 -16 -34 -14t-43 14t-13 28q42 77 113 75q48 -2 98 -16z" />
    <glyph glyph-name="bn_th_la" horiz-adv-x="424" 
d="M240 97q-70 66 -160 90q-15 4 -29 9q-11 4 -23 15q-9 10 -8 19t9 14t15 7t14 2q40 1 68.5 30.5t34.5 69.5q4 26 1.5 45.5t-8.5 21.5q-9 3 -19 4q1 -9 1 -18q2 -21 0.5 -42t-14.5 -37q-13 -12 -37 -7.5t-40.5 18t-5.5 28.5q8 10 8 26t-1 32q-1 9 -1 17t5 13q-6 13 4 20
t23 7q54 0 113.5 -20.5t59.5 -105.5q-1 -64 -39 -102q-20 -19 -49 -34q5 -1 9 -3q66 -27 122 -85v414q0 20 22.5 21.5t45.5 -8.5t23 -27v-31h20q15 0 32.5 -6.5t26.5 -20.5q7 -14 -4 -21.5t-23 -7.5h-52v-522q0 -20 -23 -22t-45.5 8.5t-22.5 26.5v23q-15 8 -32 29
q-2 -17 -1 -34q0 -15 -14.5 -19t-33.5 0.5t-32 14.5q-8 5 -14 10l-12 12q0 -28 -8 -56q-7 -16 -30.5 -15t-43.5 13.5t-16 29.5q10 37 9 76q0 18 1 37q1 6 7.5 9.5t11.5 3.5q51 5 91 -26q6 22 13 42q7 14 24 15q15 0 27 -3z" />
    <glyph glyph-name="bn_d_da" horiz-adv-x="507" 
d="M487 500q15 0 32.5 -6.5t26.5 -20.5q7 -14 -4 -21.5t-23 -7.5h-390v-92q64 43 136 13q30 -13 30 -39v-41l2 -47v-2q71 49 158 3q5 -3 10.5 -9t6.5 -12q-1 -11 -7 -36q-8 -34 -12 -69.5t10 -45.5q26 -15 23.5 -28t-21.5 -17t-41 6q-49 27 -54.5 65.5t4.5 82.5q2 10 3 21
q-11 -5 -20 -13q-21 -16 -40 -34q-3 -4 -8 -7l-4 -4q-15 -12 -36 -8.5t-35 14.5q-15 11 -20.5 22.5t-5.5 25.5q-2 39 -3 87q-1 15 -1 30q-8 -4 -14 -9q-24 -19 -46 -39q-3 -4 -6 -7q-15 -11 -36 -7.5t-35 13.5q-19 14 -23 29t-4 35v119h-20q-15 0 -32.5 7t-26.5 21
q-7 14 4 21t22 7h500z" />
    <glyph glyph-name="bn_d_d_ba" horiz-adv-x="507" 
d="M317 11q29 -9 54 -23q-2 28 -2 55q-10 -7 -20 -12q-17 -9 -32 -20zM375 152v45q-9 -5 -18 -13q-21 -16 -40 -34q-3 -4 -8 -7l-4 -4q-15 -12 -36 -8.5t-35 14.5q-15 11 -20.5 22.5t-5.5 25.5q-2 39 -3 87q-1 15 -1 30q-8 -4 -14 -9q-24 -19 -46 -39q-3 -4 -6 -7
q-15 -11 -36 -7.5t-35 13.5q-19 14 -23 29t-4 35v119h-20q-15 0 -32.5 7t-26.5 21q-7 14 4 21t22 7h500q15 0 32.5 -6.5t26.5 -20.5q7 -14 -4 -21.5t-23 -7.5h-390v-92q64 43 136 13q30 -13 30 -39v-41l2 -47v-2q71 49 152 3q5 -3 10.5 -9t6.5 -12v-300q0 -13 1 -26
q0 -3 -1 -5q0 -13 -16.5 -16t-36 1.5t-29.5 15.5l-10 14q-11 16 -24.5 30.5t-28.5 22.5q-23 9 -47 17l-40 14q-13 5 -21 16t-1 24q22 30 55 45q11 6 21 13q24 16 45 35q18 17 38 31z" />
    <glyph glyph-name="bn_d_dha" horiz-adv-x="475" 
d="M203 142q19 -6 39 -15q0 12 3 43q-30 -19 -42 -28zM254 271l2 8q5 23 8 55q-25 -6 -46 -21q-32 -23 -61 -51q-8 -7 -15 -14q-15 -12 -36 -8.5t-35 14.5q-22 15 -26.5 31t-4.5 38v121h-20q-16 0 -33 7t-26 21q-7 14 3.5 21t22.5 7h468q15 0 32 -6.5t27 -20.5
q7 -14 -4 -21.5t-23 -7.5h-357v-98q48 35 102 45t108 -23q5 -3 10.5 -9t5.5 -12q-1 -28 -9 -62q-1 -4 -2 -9l26 6q19 3 43 -5.5t29 -28.5q3 -28 -4 -63q-6 -29 -6 -56t14 -46q16 -21 1 -28t-39 -3t-36 16q-23 29 -25 59.5t3 61.5l2 24q-8 -3 -19 -3v-2q-9 -62 -1 -125
q2 -31 3 -61q1 -20 -22 -21.5t-45 8.5t-24 26v6q0 1 -1 2q-10 14 -21.5 27t-24.5 19q-21 9 -43 16q-18 6 -36 13q-13 5 -21 15.5t-1 24.5q20 27 50 41l20 12z" />
    <glyph glyph-name="bn_d_dh_ba" horiz-adv-x="475" 
d="M179 97l-24 8q-18 6 -36 13q-13 5 -21 15.5t-1 24.5q20 27 50 41l20 12l87 60l2 8q5 23 8 55q-25 -6 -46 -21q-32 -23 -61 -51q-8 -7 -15 -14q-15 -12 -36 -8.5t-35 14.5q-22 15 -26.5 31t-4.5 38v121h-20q-16 0 -33 7t-26 21q-7 14 3.5 21t22.5 7h468q15 0 32 -6.5
t27 -20.5q7 -14 -4 -21.5t-23 -7.5h-357v-98q48 35 102 45t108 -23q5 -3 10.5 -9t5.5 -12q-1 -28 -9 -62q-1 -4 -2 -9l26 6q19 3 43 -5.5t29 -28.5q3 -28 -4 -63q-6 -29 -6 -56t14 -46q16 -21 1 -28t-39 -3t-36 16q-23 29 -25 59.5t3 61.5l2 24q-8 -3 -19 -3v-2
q-9 -62 -1 -125q2 -26 3 -51v-13q0 -79 1 -90q0 -2 -1 -5q0 -11 -14.5 -13.5t-31.5 1.5t-25 13q-5 6 -10 13q-9 14 -20.5 27t-25.5 19q-20 8 -41 15l-35 12q-11 5 -18 14.5t-1 20.5q18 26 48 40q9 5 17 11zM226 134q8 7 17 14q1 9 2 22q-30 -19 -42 -28zM206 33v0
q25 -7 47 -20q-2 24 -2 48q-9 -5 -18 -11q-14 -7 -27 -17z" />
    <glyph glyph-name="bn_d_na" horiz-adv-x="397" 
d="M248 140q0 39 8 75q5 23 8 55q-25 -6 -46 -21q-32 -23 -61 -51q-8 -7 -15 -14q-15 -12 -36 -8.5t-35 14.5q-22 15 -26.5 31t-4.5 38v185h-20q-16 0 -33 7t-26 21q-7 14 3.5 21t22.5 7h390q15 0 32 -6.5t27 -20.5q7 -14 -4 -21.5t-23 -7.5h-279v-162q48 35 102 45t108 -23
q5 -3 10.5 -9t5.5 -12q-1 -28 -9 -62q-11 -45 -15 -102t20 -72q28 -15 25 -27.5t-22 -17.5t-41 5q-25 13 -40 32l-1 1q-5 6 -9 13q-9 11 -22 24q-20 20 -44 30t-43 -6q-17 -16 -25 -37.5t0 -36t39 -9.5q16 3 33.5 -2.5t29.5 -17.5q10 -10 7 -20.5t-17 -13.5q-42 -7 -85 2
t-75 37q-30 30 -27.5 70.5t37.5 67.5q48 31 102 23q38 -6 74 -24z" />
    <glyph glyph-name="bn_d_ba" horiz-adv-x="397" 
d="M265 222v48q-26 -6 -47 -21q-32 -23 -61 -51q-8 -7 -15 -14q-15 -12 -36 -8.5t-35 14.5q-22 15 -26.5 31t-4.5 38v185h-20q-16 0 -33 7t-26 21q-7 14 3.5 21t22.5 7h390q15 0 32 -6.5t27 -20.5q7 -14 -4 -21.5t-23 -7.5h-279v-162q48 35 102 45t109 -23q5 -3 10.5 -9
t5.5 -12v-321q0 -3 -1 -5q0 -13 -16.5 -16t-36 1.5t-29.5 15.5l-10 14q-11 16 -24.5 30.5t-28.5 22.5q-23 9 -47 17l-40 14q-13 5 -21 16t-1 24q22 30 55 45q11 6 21 13q24 16 45 35q18 17 38 31zM207 81q29 -9 58 -25v61q-16 -11 -26 -16q-17 -9 -32 -20z" />
    <glyph glyph-name="bn_d_bha" horiz-adv-x="447" 
d="M275 282q0 3 1 7q5 23 8 55q-25 -6 -46 -21q-32 -23 -61 -51q-8 -7 -15 -14q-15 -12 -36 -8.5t-35 14.5q-22 15 -26.5 31t-4.5 38v111h-40q-16 0 -33 7t-26 21q-7 14 3.5 21t22.5 7h440q15 0 32 -6.5t27 -20.5q7 -14 -4 -21.5t-23 -7.5h-309v-88q48 35 102 45t108 -23
q5 -3 10.5 -9t5.5 -12q-1 -28 -9 -62q-5 -19 -7 -40q34 -27 55 -80q21 -54 6.5 -109.5t-75.5 -87.5q-104 -52 -214.5 21.5t-110.5 198.5q4 18 26 17.5t43 -12t21 -31.5q-2 -41 24.5 -84.5t68.5 -64t84 6.5q28 19 40.5 51t8.5 65q-1 10 -2 16q0 -7 -2 -22q-6 -53 -64 -68
q-63 -6 -105.5 36t-18.5 103q11 17 34 15.5t42 -14t13 -30.5q-7 -12 -9 -27q-2 -16 3 -22q8 9 12 20q9 34 -1 68q-4 8 -8 15l-6 14t-2 17q2 7 7.5 10.5t12 4.5t10.5 1z" />
    <glyph glyph-name="bn_d_bh_ra" 
d="M260 329q2 16 4 35q-25 -6 -46 -21q-32 -23 -61 -51q-8 -7 -15 -14q-15 -12 -36 -8.5t-35 14.5q-22 15 -26.5 31t-4.5 38v91h-20q-16 0 -33 7t-26 21q-7 14 3.5 21t22.5 7h461q15 0 32 -6.5t27 -20.5q7 -14 -4 -21.5t-23 -7.5h-350v-68q48 35 102 45t108 -23
q5 -3 10.5 -9t5.5 -12q-1 -28 -9 -62q-1 -5 -2 -9q26 -11 49 -28q21 -17 28 -40.5t8 -49.5q7 -113 0 -227q-2 -19 -18.5 -21t-35.5 5.5t-28 14.5q3 -3 2.5 -2.5t-3.5 2.5t-7 5t-7 5.5t-5 3.5q-28 20 -60 34q-88 40 -168 -13q-15 -8 -38.5 -1t-36.5 21.5t5 27.5
q72 46 154.5 37.5t157.5 -50.5q2 59 0 117v15q1 45 -9 88l-1 2q5 -22 5 -44q0 -24 -8 -47t-28 -36q-48 -26 -104 -1.5t-83 66.5q-8 14 1 20t26.5 5t34 -7.5t23.5 -16.5q20 -31 32.5 -17t14.5 45q1 16 -1.5 33t-9.5 31q-1 1 -2 3q-5 7 -7.5 13.5t-1.5 15.5q2 8 9.5 11t16.5 3
h10z" />
    <glyph glyph-name="bn_d_ma" horiz-adv-x="557" 
d="M537 500q15 0 32 -6.5t27 -20.5q7 -14 -4 -21.5t-23 -7.5h-54q-5 -211 7 -422q0 -18 -19 -21t-40 4.5t-30 22.5q-29 28 -64 52q0 -27 -21 -50q-12 -11 -30 -17t-34 -5q-52 4 -73.5 40t0.5 83q15 25 37 35q0 40 8 79q5 23 8 55q-25 -6 -46 -21q-32 -23 -61 -51
q-8 -7 -15 -14q-15 -12 -36 -8.5t-35 14.5q-22 15 -26.5 31t-4.5 38v155h-20q-16 0 -33 7t-26 21q-7 14 3.5 21t22.5 7h550zM425 444h-295v-132q48 35 102 45t108 -23q5 -3 10.5 -9t5.5 -12q-1 -28 -9 -62q-10 -41 -14 -92q47 -18 94 -52q-6 169 -2 337z" />
    <glyph glyph-name="bn_d_ra" horiz-adv-x="397" 
d="M251 90q-1 5 -1 9q-6 60 6 116q5 23 8 55q-25 -6 -46 -21q-32 -23 -61 -51q-8 -7 -15 -14q-15 -12 -36 -8.5t-35 14.5q-22 15 -26.5 31t-4.5 38v185h-20q-16 0 -33 7t-26 21q-7 14 3.5 21t22.5 7h390q15 0 32 -6.5t27 -20.5q7 -14 -4 -21.5t-23 -7.5h-279v-162
q48 35 102 45t108 -23q5 -3 10.5 -9t5.5 -12q-1 -28 -9 -62q-11 -45 -15 -102t20 -72q28 -15 25 -27.5t-22 -17.5t-41 5q-16 9 -28 20q-16 5 -33 11q-46 19 -89.5 22t-69.5 -46q-10 -16 -34 -14t-43 14t-13 28q42 77 113 75q65 -3 134 -27z" />
    <glyph glyph-name="bn_dh_na" horiz-adv-x="387" 
d="M251 355q-22 -25 -48 -47l-33 -27q-27 -22 -49 -46q8 -4 16 -7q49 -19 92 -51q13 -11 25 -24v6q-12 99 -3 196zM224 92l-21 28q-22 24 -44 39q-31 19 -65 32q-24 10 -47 22q-5 2 -12.5 7t-12 12t-1.5 12q26 42 60 70l39 33q7 6 13 12q-25 8 -47 21t-33 38
q-7 17 -7.5 38.5t11.5 37.5q12 14 30 18t35 3q17 0 33.5 -6.5t25.5 -20.5q7 -14 -3 -21.5t-23 -6.5q-8 0 -12 -2t-5 -11q-2 -8 -1.5 -19.5t5.5 -17.5q1 -1 4 -3q7 -3 12 -4q8 -2 14 -3q3 3 5 6q17 20 35 38q28 29 50 41q4 15 24 15h81q16 0 33 -6.5t26 -20.5q7 -14 -4 -21.5
t-22 -7.5h-44q2 -6 1 -12q-30 -143 -13 -290q4 -55 5 -110v-100q0 -20 -23 -22t-45.5 8.5t-22.5 26.5v41q-3 2 -4 5q-10 15 -30 35.5t-44 30t-43 -6.5q-17 -15 -25 -36.5t0 -36.5t39 -10q16 3 33.5 -2t29.5 -17q10 -11 7 -21.5t-17 -13.5q-42 -7 -85 2t-75 37
q-30 31 -27.5 71t37.5 67q48 31 102 23q35 -5 68 -21z" />
    <glyph glyph-name="bn_dh_ra" horiz-adv-x="387" 
d="M251 355q-22 -25 -48 -47l-33 -27q-27 -22 -49 -46q8 -4 16 -7q49 -19 92 -51q13 -11 25 -24v6q-12 99 -3 196zM222 95l-19 25q-22 24 -44 39q-31 19 -65 32q-24 10 -47 22q-5 2 -12.5 7t-12 12t-1.5 12q26 42 60 70l39 33q7 6 13 12q-25 8 -47 21t-33 38
q-7 17 -7.5 38.5t11.5 37.5q12 14 30 18t35 3q17 0 33.5 -6.5t25.5 -20.5q7 -14 -3 -21.5t-23 -6.5q-8 0 -12 -2t-5 -11q-2 -8 -1.5 -19.5t5.5 -17.5q1 -1 4 -3q7 -3 12 -4q8 -2 14 -3q3 3 5 6q17 20 35 38q28 29 50 41q4 15 24 15h81q16 0 33 -6.5t26 -20.5q7 -14 -4 -21.5
t-22 -7.5h-44q2 -6 1 -12q-30 -143 -13 -290q4 -60 5 -120q0 -19 -22.5 -21t-44 8t-24.5 21v1q-10 3 -20 7q-46 19 -89.5 22t-69.5 -46q-10 -16 -34 -14t-43 14t-13 28q42 77 113 75q59 -3 120 -22z" />
    <glyph glyph-name="bn_n_jha" horiz-adv-x="653" 
d="M257 302q-10 15 -29 34q-20 20 -44 30t-43 -6q-17 -16 -25 -37.5t0 -36t39 -9.5q16 3 33.5 -2.5t29.5 -17.5q10 -10 7 -20.5t-17 -13.5q-42 -7 -85 2t-75 37q-30 30 -27.5 70.5t37.5 67.5q48 31 102 23q49 -7 93 -34q4 28 12 55h-245q-16 0 -33 7t-26 21q-7 14 4 21t22 7
h646q16 0 33 -6.5t26 -21.5q7 -14 -3.5 -21t-22.5 -7h-305q1 -4 0 -8l-2 -8q75 4 149 -2q38 -3 73 -26.5t48 -60.5q7 -23 2 -41.5t-14 -36.5q-11 -21 -16 -46q-8 -39 -4 -80q2 -21 8 -34q3 -7 5 -10t11.5 -6.5t15 -18t-7 -23t-40.5 -1.5q-63 23 -77.5 82t-0.5 119
q4 17 14 37q12 23 16.5 45.5t-12.5 39.5q-10 8 -30 8.5t-40 -0.5q-13 -1 -23 -1h-14q-33 1 -65 -2h-14q-5 -24 -4 -48q4 -27 17.5 -28.5t27 13t16.5 34.5q4 15 25.5 15t42.5 -10t22 -26l1 -29q5 -78 -12.5 -153t-105.5 -90q-171 -7 -276 130q-7 9 -3 15.5t12.5 9.5t16.5 3
q36 1 59 -27q27 -38 76 -64t95 -2q39 28 46 80q2 23 3 45q-60 -4 -108 23q-26 18 -37 41z" />
    <glyph glyph-name="bn_n_ttha" horiz-adv-x="469" 
d="M346 156q21 62 0 118.5t-63 105.5q10 -38 4 -74t-41 -65q-52 -41 -112 -34q2 -35 16 -64t50 -40q44 -14 85 -3.5t61 56.5zM260 500h189q16 0 33 -6.5t26 -20.5q7 -15 -4 -22t-22 -7h-168q85 -82 126 -185q17 -52 3 -110.5t-64 -88.5q-57 -28 -121.5 -21.5t-120.5 34.5
q-100 59 -95 177q1 19 22 22q14 5 31.5 3t30.5 -11q12 -9 28 5t28.5 35t16.5 34q-2 2 -5 6q-8 12 -26.5 26t-34.5 12q-12 -3 -17.5 -13.5t-4.5 -22.5q0 -1 1 -2q0 -3 1 -6t3 -6q12 -4 23.5 -13.5t8.5 -22.5q-3 -10 -13 -12.5t-21 -1.5t-18 3q-23 7 -43.5 22t-28.5 38
q-9 30 3.5 54t41.5 34q57 15 119 -14l-8 25h-160q-15 0 -32.5 7t-26.5 21q-7 14 4 21t23 7h186l-11 13l-25 28q-29 34 -29 78q0 51 33.5 81t82.5 29q17 -1 33.5 -7t25.5 -21q7 -13 -3 -20.5t-23 -7.5q-26 0 -41 -19t-17 -44q-3 -32 15 -54q23 -30 45 -56z" />
    <glyph glyph-name="bn_n_dda" horiz-adv-x="513" 
d="M265 444h-245q-16 0 -33 7t-26 21q-7 14 4 21t22 7h506q16 0 33 -6.5t26 -21.5q7 -14 -3.5 -21t-22.5 -7h-165q1 -4 0 -8l-6 -22q-17 -46 -16 -92q4 -27 17.5 -28.5t27 13t16.5 34.5q4 15 25.5 15t42.5 -10t22 -26l1 -29q5 -78 -12.5 -153t-105.5 -90q-171 -7 -276 130
q-7 9 -3 15.5t12.5 9.5t16.5 3q36 1 59 -27q27 -38 76 -64t95 -2q39 28 46 80q2 23 3 45q-60 -4 -108 23q-26 18 -37 42q-10 14 -29 33q-20 20 -44 30t-43 -6q-17 -16 -25 -37.5t0 -36t39 -9.5q16 3 33.5 -2.5t29.5 -17.5q10 -10 7 -20.5t-17 -13.5q-42 -7 -85 2t-75 37
q-30 30 -27.5 70.5t37.5 67.5q48 31 102 23q49 -7 93 -34q4 28 12 55z" />
    <glyph glyph-name="bn_n_dd_ra" horiz-adv-x="513" 
d="M381 50l-8 -2q-171 -7 -276 130q-7 9 -3 15.5t12.5 9.5t16.5 3q36 1 59 -27q27 -38 76 -64t95 -2q39 28 46 80q2 23 3 45q-60 -4 -108 23q-26 18 -37 42q-10 14 -29 33q-20 20 -44 30t-43 -6q-17 -16 -25 -37.5t0 -36t39 -9.5q16 3 33.5 -2.5t29.5 -17.5q10 -10 7 -20.5
t-17 -13.5q-42 -7 -85 2t-75 37q-30 30 -27.5 70.5t37.5 67.5q48 31 102 23q49 -7 93 -34q4 28 12 55h-245q-16 0 -33 7t-26 21q-7 14 4 21t22 7h506q16 0 33 -6.5t26 -21.5q7 -14 -3.5 -21t-22.5 -7h-165q1 -4 0 -8l-6 -22q-17 -46 -16 -92q4 -27 17.5 -28.5t27 13
t16.5 34.5q4 15 25.5 15t42.5 -10t22 -26l1 -29q5 -78 -12 -153q-3 -11 -7 -20v-171q0 -20 -23 -22t-45 9q-20 9 -23 22l-20 7q-46 19 -89.5 22t-69.5 -46q-10 -16 -34 -14t-43 14t-13 28q42 77 112.5 74.5t143.5 -29.5q7 -2 13 -4v42z" />
    <glyph glyph-name="bn_n_ta" horiz-adv-x="450" 
d="M253 299v5l-2 2q-11 20 -36 41.5t-50 17.5q-15 -7 -20.5 -26.5t-2.5 -34.5q1 -5 3.5 -11t7.5 -11q12 -4 23 -13t8 -22q-3 -10 -13 -12.5t-21 -1.5t-18 3q-54 16 -76 67q-11 32 -0.5 64t42.5 47q74 25 153 -24q1 27 3 54h-234q-16 0 -33 6.5t-26 20.5q-7 14 3 21.5t23 7.5
h443q16 0 33 -6.5t26 -20.5q7 -14 -3.5 -21.5t-23.5 -7.5h-117v-5q-8 -76 -1 -152q16 -9 32 -22q44 -37 51 -84q16 -105 -63 -173q-38 -27 -88 -32q-39 -4 -88 11q-67 21 -104.5 74.5t-61.5 118.5q-7 21 12 26t42.5 -2.5t30.5 -22.5q10 -27 33 -74t55 -65.5t77 2.5
q37 18 55 61q3 6 5 13q-54 10 -94 41.5t-25 89.5q14 39 40 50zM303 222q-12 -50 37 -53q1 27 -12 50q-8 12 -18 24q-5 -10 -7 -21z" />
    <glyph glyph-name="bn_n_t_ba" horiz-adv-x="450" 
d="M303 222q-12 -50 37 -53q1 27 -12 50q-8 12 -18 24q-5 -10 -7 -21zM243 -79q29 -9 54 -23q-2 28 -2 55q-10 -7 -20 -12q-17 -9 -32 -20zM198 -16q-5 1 -10 3q-67 21 -104.5 74.5t-61.5 118.5q-7 21 12 26t42.5 -2.5t30.5 -22.5q10 -27 33 -74t55 -65.5t77 2.5
q37 18 55 61q3 6 5 13q-54 10 -94 41.5t-25 89.5q14 39 40 50v5l-2 2q-11 20 -36 41.5t-50 17.5q-15 -7 -20.5 -26.5t-2.5 -34.5q1 -5 3.5 -11t7.5 -11q12 -4 23 -13t8 -22q-3 -10 -13 -12.5t-21 -1.5t-18 3q-54 16 -76 67q-11 32 -0.5 64t42.5 47q74 25 153 -24q1 27 3 54
h-234q-16 0 -33 6.5t-26 20.5q-7 14 3 21.5t23 7.5h443q16 0 33 -6.5t26 -20.5q7 -14 -3.5 -21.5t-23.5 -7.5h-117v-5q-8 -76 -1 -152q16 -9 32 -22q44 -37 51 -84q13 -84 -35 -144v-209q0 -13 1 -26q0 -3 -1 -5q0 -13 -16.5 -16t-36 1.5t-29.5 15.5l-10 14
q-11 16 -24.5 30.5t-28.5 22.5q-23 9 -47 17l-40 14q-13 5 -21 16t-1 24q22 30 55 45q3 1 5 3z" />
    <glyph glyph-name="bn_n_t_ra" horiz-adv-x="501" 
d="M224 292q-1 6 -1 12l-2 2q-11 20 -36 41.5t-50 17.5q-15 -7 -20.5 -26.5t-2.5 -34.5q1 -5 3.5 -11t7.5 -11q12 -4 23 -13t8 -22q-3 -10 -13 -12.5t-21 -1.5t-18 3q-54 16 -76 67q-11 32 -0.5 64t42.5 47q74 25 153 -24q1 27 4 53l-205 1q-16 0 -33 6.5t-26 20.5
q-7 14 3 21.5t23 7.5h494q16 0 33 -6.5t26 -20.5q7 -14 -3.5 -21.5t-23.5 -7.5h-198v-5q-6 -57 -4 -113l23 4q76 9 104 -36.5t28 -116.5t-8 -137q-6 -50 -6 -82v-4q2 -6 3 -13q1 -18 -20 -20.5t-44 7.5t-27 27q-6 27 -36 39.5t-57 17.5q-5 2 -9 3q-61 14 -123 21
q-24 4 -37 18.5t-8 26.5t35 9q96 -9 187 -38q23 -8 48 -19l4 31q3 27 5 53q0 10 1 20q4 33 3.5 69.5t-12.5 65.5h-1q-1 -1 -2 -1q-39 -9 -73 -30q-14 -10 -26.5 -25.5t-16.5 -34.5q1 2 2 3q3 3 6 7q12 15 23 31q11 13 34.5 9t40.5 -17.5t8 -30.5q-20 -33 -50.5 -59.5
t-71.5 -21.5q-40 6 -65 32t-17 69q16 59 68 89z" />
    <glyph glyph-name="bn_n_tha" horiz-adv-x="424" 
d="M315 278q9 -4 18 -9q16 -6 24 -17q53 -46 47 -111q-8 -40 -36 -62t-65 -31l54 -31q43 -27 89 -51q27 -15 24 -27.5t-22 -17t-40 5.5q-43 22 -84 48q-60 40 -127 68q-14 6 -25.5 18.5t-10 23t26.5 10.5q31 0 65 10t52 34q-50 -20 -98 9q-54 35 -34 97q11 24 35 34
q8 3 17 5l-2 20q-1 1 -1 2q-11 20 -36.5 41.5t-49.5 17.5q-16 -7 -21.5 -26.5t-2.5 -34.5q2 -5 4 -11t7 -11q12 -4 23 -13t8 -22q-3 -10 -12.5 -12.5t-21 -1.5t-18.5 3q-54 16 -76 67q-11 32 -0.5 64t42.5 47q75 25 153 -24q1 27 3 54h-204q-16 0 -33 6.5t-26 21.5
q-7 14 3.5 21t23.5 7h416q16 0 33 -6.5t26 -20.5q7 -14 -3.5 -21.5t-22.5 -7.5h-122q1 -2 1 -5q-9 -80 -1 -161zM258 199q6 5 11 13q3 9 3 18q-1 -1 -3 -2q-16 -12 -15 -32q1 1 4 3z" />
    <glyph glyph-name="bn_n_dha" horiz-adv-x="473" 
d="M201 142v0q19 -6 37 -15l-2 36v1v0l-10 -6q-13 -7 -25 -16zM122 283l1 -1q12 -4 23 -13t8 -22q-4 -10 -13.5 -12.5t-20.5 -1.5t-18 3q-54 16 -76 67q-11 32 -0.5 64t41.5 47q75 25 154 -24q1 27 3 54h-204q-16 0 -32.5 6.5t-25.5 20.5q-7 15 3 22t23 7h465
q17 0 33.5 -6.5t25.5 -20.5q7 -14 -3 -21.5t-23 -7.5h-171v-5q-6 -79 -4 -165q4 -1 7 -3l8 2q22 4 43 9q19 3 43 -5.5t29 -28.5q3 -28 -4 -63q-6 -29 -6 -56t14 -46q16 -21 1 -28t-39 -3t-36 16q-23 29 -25 59.5t3 61.5l2 24q-8 -3 -19 -3q-9 -63 -1 -127q2 -31 3 -61
q1 -20 -22 -21.5t-45 8.5t-24 26v6q0 1 -1 2q-10 14 -21.5 27t-24.5 19q-21 9 -43 16q-18 6 -36 13q-13 5 -21 15.5t-1 24.5q20 27 50 41l20 12q21 15 40 32q9 7 17 15q-1 28 -1 49q-12 19 -37 40.5t-49 17.5q-16 -7 -21 -26.5t-2 -34.5q1 -5 3 -11t7 -10z" />
    <glyph glyph-name="bn_n_dh_ra" horiz-adv-x="473" 
d="M201 142q19 -6 37 -15l-2 36v1l-10 -6q-13 -7 -25 -16zM225 64l-4 6q-12 13 -25 19q-21 9 -43 16q-18 6 -36 13q-13 5 -21 15.5t-1 24.5q20 27 50 41l20 12q21 15 40 32q9 7 17 15q-1 28 -1 49q-12 19 -37 40.5t-49 17.5q-16 -7 -21 -26.5t-2 -34.5q1 -5 3 -11t7 -10
l1 -1q12 -4 23 -13t8 -22q-4 -10 -13.5 -12.5t-20.5 -1.5t-18 3q-54 16 -76 67q-11 32 -0.5 64t41.5 47q75 25 154 -24q1 27 3 54h-204q-16 0 -32.5 6.5t-25.5 20.5q-7 15 3 22t23 7h465q17 0 33.5 -6.5t25.5 -20.5q7 -14 -3 -21.5t-23 -7.5h-171v-5q-6 -79 -4 -165
q4 -1 7 -3l8 2q22 4 43 9q19 3 43 -5.5t29 -28.5q3 -28 -4 -63q-6 -29 -6 -56t14 -46q16 -21 1 -28t-39 -3t-36 16q-23 29 -25 59.5t3 61.5l2 24q-8 -3 -19 -3q-9 -63 -1 -127q2 -31 3 -61v-30q0 -20 -13.5 -22t-54.5 9q-20 9 -23 22v7h-1q-46 19 -89.5 22t-69.5 -46
q-10 -16 -34 -14t-43 14t-13 28q42 77 113 75q58 -3 119 -23z" />
    <glyph glyph-name="bn_n_na" horiz-adv-x="400" 
d="M263 292q-4 3 -6 7q-9 16 -29.5 36t-44 30t-42.5 -6q-17 -16 -25 -37.5t-0.5 -36t38.5 -9.5q17 2 34.5 -3t29.5 -17q10 -11 7 -21t-18 -13q-41 -8 -84.5 1t-75.5 38q-30 30 -27 70.5t38 66.5q48 32 102.5 24t102.5 -42l2 -2l4 66h-259q-16 0 -33 7t-26 21q-7 14 3.5 21
t22.5 7h403q16 0 33 -7t26 -21q7 -14 -3.5 -21t-23.5 -7h-52v-5q-17 -201 10 -418q2 -19 -19.5 -21t-45 7.5t-25.5 26.5q-3 20 -5 38q-6 4 -9 9q-9 16 -29.5 36t-44 30t-42.5 -6q-17 -16 -25 -37.5t-0.5 -36t38.5 -9.5q17 2 34.5 -3t29.5 -17q10 -11 7 -21t-18 -13
q-41 -8 -84.5 1t-75.5 38q-30 30 -27 70.5t38 66.5q48 32 103 24q51 -8 97 -39v5q-3 41 -4 90v32z" />
    <glyph glyph-name="bn_n_ba" horiz-adv-x="400" 
d="M275 78q-3 28 -5 53q-9 -6 -17 -10q-17 -9 -32 -20q29 -9 54 -23zM370 21q1 -8 1 -39q0 -3 -1 -5q0 -13 -16.5 -16t-36 1.5t-29.5 15.5l-10 14q-11 16 -24.5 30.5t-28.5 22.5q-23 9 -47 17l-40 14q-13 5 -21 16t-1 24q22 30 55 45q11 6 21 13q24 16 45 35q13 12 27 23
q-1 14 -1 28v32q-4 3 -6 7q-9 16 -29.5 36t-44 30t-42.5 -6q-17 -16 -25 -37.5t-0.5 -36t38.5 -9.5q17 2 34.5 -3t29.5 -17q10 -11 7 -21t-18 -13q-41 -8 -84.5 1t-75.5 38q-30 30 -27 70.5t38 66.5q48 32 102.5 24t102.5 -42l2 -2l4 66h-259q-16 0 -33 7t-26 21
q-7 14 3.5 21t22.5 7h403q16 0 33 -7t26 -21q7 -14 -3.5 -21t-23.5 -7h-52v-5q-17 -201 10 -418z" />
    <glyph glyph-name="bn_n_ma" horiz-adv-x="571" 
d="M441 444h-81v-5q-12 -138 -2 -283q43 -18 85 -49q-6 169 -2 337zM264 351q2 46 5 93h-259q-16 0 -33 7t-26 21q-7 14 3.5 21t22.5 7h574q16 0 33 -7t26 -21q7 -14 -3.5 -21t-23.5 -7h-52q-5 -211 7 -422q0 -18 -19 -21t-40 4.5t-30 22.5q-29 28 -64 52q0 -27 -21 -50
q-12 -11 -30 -17t-34 -5q-52 4 -73.5 40t0.5 83q16 27 40 36v3q-3 41 -4 90v5q-4 3 -6 6q-9 16 -29.5 36t-44 30t-42.5 -6q-17 -16 -25 -37.5t-0.5 -36t38.5 -9.5q17 2 34.5 -3t29.5 -17q10 -11 7 -21t-18 -13q-41 -8 -84.5 1t-75.5 38q-30 30 -27 70.5t38 66.5
q48 32 102.5 24t102.5 -42z" />
    <glyph glyph-name="bn_n_ra" horiz-adv-x="470" 
d="M350 31l-20 7q-46 19 -89.5 22t-69.5 -46q-10 -16 -34 -14t-43 14t-13 28q42 77 112.5 74.5t143.5 -29.5q4 -1 7 -2q-6 56 -9 103q-1 24 -2 51q-4 4 -6 8q-15 24 -44 51.5t-63 40.5t-64 -6q-22 -15 -39 -46t-3 -58q12 -19 33 -22.5t42 1.5q16 3 33.5 -2.5t29.5 -17.5
q10 -10 7 -20.5t-17 -13.5q-49 -9 -101.5 1.5t-90.5 45.5q-34 37 -30 83.5t43 80.5q61 47 134.5 32t135.5 -64q1 49 6 111h-319q-17 0 -33.5 6.5t-25.5 20.5q-7 14 3 21.5t23 7.5h463q17 0 33.5 -6.5t25.5 -20.5q7 -14 -3 -21.5t-23 -7.5h-53v-4q-18 -201 10 -419
q1 -18 -20 -20t-43 8q-20 8 -27 22z" />
    <glyph glyph-name="bn_n_sa" horiz-adv-x="659" 
d="M381 444q-4 -2 -11 -4q-24 -7 -42 -33.5t-25 -48.5v-2q-3 -9 -5 -19t0.5 -18.5t13.5 -10.5q8 -2 16 -3q23 -3 45 -10q4 -1 7 -3q73 2 135 -39q3 -2 5 -4q-2 98 17 195h-156zM263 272l-1 1q-23 12 -38 31q-11 11 -14 26q-13 9 -26 15q-24 10 -43 -6q-17 -16 -25 -37.5
t-0.5 -36t38.5 -9.5q17 2 34.5 -3t29.5 -17q10 -11 7 -21t-18 -13q-41 -8 -84.5 1t-75.5 38q-30 30 -27 70.5t38 66.5q48 32 103 24q27 -4 54 -15q11 31 31 57h-236q-16 0 -33 7t-26 21q-7 14 3.5 21t22.5 7h662q16 0 33 -6.5t26 -20.5q7 -14 -3.5 -21t-23.5 -8h-43
q2 -6 1 -13q-29 -142 -13 -289q5 -60 6 -121q-2 -19 -23.5 -21t-43.5 8t-24 27q-1 56 -4 109q-17 35 -47 64q-7 7 -15 12q11 -26 5 -59q-27 -91 -111.5 -114.5t-138.5 64.5q-8 20 10 24.5t42 -2.5t33 -21l2 -4q2 -5 5 -9q7 3 13 7q31 20 46 53q6 15 10 32.5t-4 33.5
t-23 21.5t-31 7.5q-13 2 -26 5q-19 5 -34 13z" />
    <glyph glyph-name="bn_p_tta" horiz-adv-x="660" 
d="M183 295q52 41 116 42q-19 35 -48.5 63.5t-66.5 19.5q-21 -7 -34.5 -24t-24.5 -36q36 -24 58 -65zM329 280q-5 1 -9 0q-10 -1 -19 -6q-21 -11 -40 -25q-24 -19 -41 -44q-9 -12 -26.5 -10t-34.5 11t-23 19q-9 16 -16 33q-6 15 -14 29q-3 6 -5 11q-5 11 -11.5 18.5
t-19.5 8.5q-9 1 -23.5 7.5t-22.5 16.5t0 22q10 14 18 28q20 40 56 62q53 25 112 13q72 -15 122 -69l2 39l2 28q1 14 11.5 21t22.5 7h103q2 7 4 13q8 21 11 43q1 9 2 12q1 2 1 2.5t-1.5 1t-4.5 0.5q-18 0 -36 -1q-65 -7 -129 4q-32 6 -64 19t-51 41q-15 22 -17.5 47t20.5 43
q11 7 28.5 5t33.5 -10t23 -17.5t-3 -17.5q-14 -12 -11 -29.5t21 -23.5q26 -6 53 -7t54 1q34 3 68 0q62 -5 97 -54q9 -16 7.5 -34.5t-7.5 -37.5h68q15 0 32.5 -6.5t26.5 -20.5q7 -14 -4 -21.5t-23 -7.5h-246q-15 -177 6 -353q16 7 31 17q35 24 63 56q24 25 23 60q0 19 -6 37
q-3 9 -9 18q-32 -1 -55 20q-9 10 -6.5 21t17.5 13q45 5 84 -14t56 -63q28 -73 -21 -131q-54 -64 -132 -92q-53 -16 -101 11q-25 10 -30 28q-1 2 -1 4v3q-4 7 -2 12q-12 95 -14 189z" />
    <glyph glyph-name="bn_p_ta" horiz-adv-x="435" 
d="M412 168v0q14 -85 -44 -128.5t-138 -20.5q-67 24 -105 77.5t-61 118.5q-7 21 11.5 26t42 -2.5t31.5 -22.5q9 -27 32.5 -74t55 -70.5t67.5 20.5q8 11 13 23q-39 10 -64.5 34t-15.5 66q14 44 53 43t75.5 -28.5t46.5 -61.5zM162 332q37 27 82 35q-14 24 -33 42t-42 12
q-16 -5 -27 -18t-20 -28q24 -17 40 -43zM474 473q7 -14 -3.5 -21.5t-23.5 -7.5h-75q-7 -126 15 -252q1 -18 -19.5 -20t-43.5 7.5t-28 26.5q-9 51 -13 103q-5 -1 -11 -4q-1 -1 -2 -1q-15 -8 -29 -18q-24 -16 -41 -40q-9 -12 -27 -10.5t-34.5 10.5t-22.5 19q-7 13 -13 26
q-5 11 -11 23l-2 4q-7 13 -17 24q-1 1 -3 1q-9 1 -23.5 7.5t-22.5 16.5t0 22q8 11 14 21q20 36 57 58q21 11 47 11t48 -6q53 -13 90 -48q1 68 7 137q3 15 25 14.5t43.5 -12t21.5 -30.5l-2 -34h40q16 0 33 -6.5t26 -20.5z" />
    <glyph glyph-name="bn_p_t_ra" horiz-adv-x="534" 
d="M162 332q37 27 82 35q-14 24 -33 42t-42 12q-16 -5 -27 -18t-20 -28q24 -17 40 -43zM286 277q-2 16 -3 32q-5 -1 -11 -4q-1 -1 -2 -1q-15 -8 -29 -18q-24 -16 -41 -40q-9 -12 -27 -10.5t-34.5 10.5t-22.5 19q-7 13 -13 26q-5 11 -11 23l-2 4q-7 13 -17 24q-1 1 -3 1
q-9 1 -23.5 7.5t-22.5 16.5t0 22q8 11 14 21q20 36 57 58q21 11 47 11t48 -6q53 -13 90 -48q1 68 7 137q3 15 25 14.5t43.5 -12t21.5 -30.5l-2 -34h139q16 0 33 -6.5t26 -20.5q7 -14 -3.5 -21.5t-23.5 -7.5h-174q-4 -70 1 -139h3q74 8 101 -35q20 -33 25 -79q2 -26 2 -55
q0 -56 -7 -110q-5 -47 -6 -78v-4q2 -6 3 -13q1 -18 -20 -20.5t-44 7.5t-27 27q-5 25 -33.5 37t-54.5 17q-5 1 -9 2q-57 13 -116 20q-24 4 -37 18.5t-8 26.5t35 9q92 -9 180 -37q22 -6 44 -16q1 13 3 27q3 25 4 49l2 20q3 33 3 70q-1 32 -11 58q-1 -1 -2 -1q-42 -8 -75 -33
q-17 -14 -28 -35q-2 -4 -3 -7l1 1q12 14 22 30q11 13 34.5 9t40.5 -17.5t8 -30.5q-20 -32 -49 -57.5t-69 -20.5q-36 5 -60.5 27.5t-21.5 61.5q11 61 63 93q9 6 20 11z" />
    <glyph glyph-name="bn_p_na" 
d="M183 295q52 41 116 42q-19 35 -48.5 63.5t-66.5 19.5q-21 -7 -34.5 -24t-24.5 -36q36 -24 58 -65zM338 148q-5 72 -6 132q-7 1 -12 0q-10 -1 -19 -6q-21 -11 -40 -25q-24 -19 -41 -44q-9 -12 -26.5 -10t-34.5 11t-23 19q-9 16 -16 33q-6 15 -14 29q-3 6 -5 11
q-5 11 -11.5 18.5t-19.5 8.5q-9 1 -23.5 7.5t-22.5 16.5t0 22q10 14 18 28q20 40 56 62q53 25 112 13q72 -15 122 -69q2 78 7 156q2 16 24 15.5t43.5 -12t22.5 -30.5l-2 -34h21q16 0 32.5 -6.5t25.5 -20.5q7 -15 -3 -22t-23 -7h-56q-9 -203 14 -443q2 -19 -19.5 -21t-45 7.5
t-25.5 26.5l-4 43q-2 1 -3 4q-10 15 -30 35t-44 30t-43 -6q-17 -16 -25 -37.5t0 -36t39 -9.5q16 3 33.5 -2.5t29.5 -17.5q10 -10 7 -20.5t-17 -13.5q-42 -7 -85 2t-75 37q-30 30 -27.5 70.5t37.5 67.5q48 31 102 23q50 -7 95 -35z" />
    <glyph glyph-name="bn_p_pa" 
d="M183 295q52 41 116 42q-19 35 -48.5 63.5t-66.5 19.5q-21 -7 -34.5 -24t-24.5 -36q36 -24 58 -65zM220 47q37 27 82 35q-14 24 -33 42t-42 12q-16 -5 -27 -18t-20 -28q24 -17 40 -43zM337 140q-4 80 -5 140q-7 1 -12 0q-10 -1 -19 -6q-21 -11 -40 -25q-24 -19 -41 -44
q-9 -12 -26.5 -10t-34.5 11t-23 19q-9 16 -16 33q-6 15 -14 29q-3 6 -5 11q-5 11 -11.5 18.5t-19.5 8.5q-9 1 -23.5 7.5t-22.5 16.5t0 22q10 14 18 28q20 40 56 62q53 25 112 13q72 -15 122 -69q2 78 7 156q2 16 24 15.5t43.5 -12t22.5 -30.5l-2 -34h21q16 0 32.5 -6.5
t25.5 -20.5q7 -15 -3 -22t-23 -7h-56q-9 -203 14 -473q2 -19 -19.5 -21t-45 7.5t-25.5 26.5q-2 20 -3 40q-9 -1 -15 -4q-1 -1 -2 -1q-15 -8 -29 -18q-24 -16 -41 -40q-9 -12 -27 -10.5t-34.5 10.5t-22.5 19q-7 13 -13 26q-5 11 -11 23l-2 4q-7 13 -17 24q-1 1 -3 1
q-9 1 -23.5 7.5t-22.5 16.5t0 22q8 11 14 21q20 36 57 58q21 11 47 11t48 -6q53 -13 89 -48z" />
    <glyph glyph-name="bn_p_ra" 
d="M183 295q52 41 116 42q-19 35 -48.5 63.5t-66.5 19.5q-21 -7 -34.5 -24t-24.5 -36q36 -24 58 -65zM343 84q-9 105 -11 196q-7 1 -12 0q-10 -1 -19 -6q-21 -11 -40 -25q-24 -19 -41 -44q-9 -12 -26.5 -10t-34.5 11t-23 19q-9 16 -16 33q-6 15 -14 29q-3 6 -5 11
q-5 11 -11.5 18.5t-19.5 8.5q-9 1 -23.5 7.5t-22.5 16.5t0 22q10 14 18 28q20 40 56 62q53 25 112 13q72 -15 122 -69q2 78 7 156q2 16 24 15.5t43.5 -12t22.5 -30.5l-2 -34h21q16 0 32.5 -6.5t25.5 -20.5q7 -15 -3 -22t-23 -7h-56q-9 -203 14 -423q2 -19 -19.5 -21t-44.5 8
q-22 8 -25 23q-10 3 -21 7q-46 19 -89.5 22t-69.5 -46q-10 -16 -34 -14t-43 14t-13 28q42 77 112.5 74.5t143.5 -29.5q4 -1 8 -3z" />
    <glyph glyph-name="bn_p_la" 
d="M183 295q52 41 116 42q-19 35 -48.5 63.5t-66.5 19.5q-21 -7 -34.5 -24t-24.5 -36q36 -24 58 -65zM336 174q-3 55 -4 106q-7 1 -12 0q-10 -1 -19 -6q-21 -11 -40 -25q-24 -19 -41 -44q-9 -12 -26.5 -10t-34.5 11t-23 19q-9 16 -16 33q-6 15 -14 29q-3 6 -5 11
q-5 11 -11.5 18.5t-19.5 8.5q-9 1 -23.5 7.5t-22.5 16.5t0 22q10 14 18 28q20 40 56 62q53 25 112 13q72 -15 122 -69q2 78 7 156q2 16 24 15.5t43.5 -12t22.5 -30.5l-2 -34h21q16 0 32.5 -6.5t25.5 -20.5q7 -15 -3 -22t-23 -7h-56q-9 -203 14 -423q2 -19 -19.5 -21t-45 7.5
t-25.5 26.5l-2 24q-25 9 -42 29q-2 -16 -1 -33q0 -16 -14.5 -20t-33.5 0.5t-32 15.5q-8 4 -14 10l-12 12q0 -29 -8 -56q-7 -17 -30.5 -15.5t-43.5 13.5t-16 29q10 37 9 76q0 19 1 37q1 6 7.5 9.5t11.5 4.5q51 5 91 -27q6 22 13 43q7 14 23.5 14.5t29.5 -3.5q22 -8 51 -23z
" />
    <glyph glyph-name="bn_p_sa" horiz-adv-x="680" 
d="M162 267q37 27 82 35q-14 24 -33 42t-42 12q-16 -5 -27 -18t-20 -28q24 -17 40 -43zM402 444q-4 -2 -11 -4q-24 -7 -42 -33.5t-25 -48.5v-2q-3 -9 -5 -19t0.5 -18.5t13.5 -10.5q8 -2 16 -3q23 -3 45 -10q4 -1 7 -3q73 2 135 -39q3 -2 5 -4q-2 98 17 195h-156zM322 258
q-32 -8 -52 -19q-15 -8 -29 -18q-24 -16 -41 -40q-9 -12 -27 -10.5t-34.5 10.5t-22.5 19q-7 13 -13 26q-5 11 -11 23l-2 4q-7 13 -17 24q-1 1 -3 1q-9 1 -23.5 7.5t-22.5 16.5t0 22q8 11 14 21q20 36 57 58q21 11 47 11t48 -6q25 -6 47 -18q11 29 30 54h-247q-17 0 -33.5 7
t-25.5 21q-7 14 3 21t23 7h673q16 0 33 -6.5t26 -20.5q7 -14 -3.5 -21t-23.5 -8h-43q2 -6 1 -13q-29 -142 -13 -289q5 -60 6 -121q-2 -19 -23.5 -21t-43.5 8t-24 27q-1 56 -4 109q-17 35 -47 64q-7 7 -15 12q11 -26 5 -59q-27 -91 -111.5 -114.5t-138.5 64.5q-8 20 10 24.5
t42 -2.5t33 -21l2 -4q2 -5 5 -9q7 3 13 7q31 20 46 53q6 15 10 32.5t-4 33.5t-23 21.5t-31 7.5z" />
    <glyph glyph-name="bn_ph_tta" horiz-adv-x="578" 
d="M466 114v2q-2 3 -2.5 4t-0.5 0.5t0.5 -2t1.5 -2.5t1 -2zM52 444h-32q-16 0 -33 7t-26 21q-7 14 3.5 21t23.5 7h407l4 13q8 21 10 43q1 9 3 12v2.5t-1 1t-4 0.5q-19 0 -37 -1q-64 -6 -128 5q-32 5 -64 18.5t-51 40.5q-15 22 -17.5 47t19.5 43q11 7 28.5 5t33.5 -10
t23.5 -17.5t-2.5 -17.5q-14 -11 -11 -28.5t21 -24.5q26 -6 52 -7q28 -1 55 1q34 3 68 0q62 -4 97 -53q10 -20 6 -43q-3 -15 -7 -30h65q16 0 33 -6.5t26 -20.5q7 -14 -3.5 -21.5t-22.5 -7.5h-434q1 -1 2 -1q40 -33 43 -75q-6 -65 -47 -124q-24 -38 -38 -76q-10 -32 6 -41
t67 -14q31 -3 64 -11q-7 126 4 248q1 9 7 14q30 26 68.5 24.5t72.5 -15.5q72 -30 83 -106q11 -68 -54 -76q-36 -2 -60 19.5t-22 56.5q3 16 25 16q11 -1 21 -4v7q-3 14 -9 26t-17 19t-25 -5q-15 -179 7 -357q9 4 17 9q31 18 56 43l6 6q10 8 18.5 18t12.5 21q8 19 3 40
q0 3 -1 6q-11 -3 -25 1q-17 4 -32 12.5t-19.5 18.5t10.5 17q58 23 101.5 -1t53.5 -71.5t-32 -94.5q-30 -31 -79 -60.5t-98.5 -31t-79.5 51.5q-5 10 -1 17q-5 35 -8 70l-21 9q-13 6 -28 8l-14 2q-28 4 -57 9q-32 6 -63 20.5t-48 44.5q-14 29 -1 63t32 64q10 17 17 31
q2 6 5 12q21 37 27.5 76.5t-42.5 57.5q-7 3 -13 6z" />
    <glyph glyph-name="bn_ph_ra" horiz-adv-x="567" 
d="M298 30q-1 0 -1 1q-3 0 -5 1q-3 1 -5 2q-19 3 -38 5q-13 2 -26 3q-29 3 -58 7q-36 5 -76.5 18.5t-60.5 45.5q-16 33 -1 66.5t39 62.5q12 16 20 31q4 6 12 16q14 20 27 43.5t10 39.5q-7 17 -29.5 30.5t-39.5 17.5q-9 2 -20 8.5t-16 15.5h-10q-16 0 -33 7t-26 21
q-7 14 3.5 21t23.5 7h559q17 0 33.5 -7t25.5 -21q7 -14 -3 -21t-23 -7h-439q35 -18 61.5 -44t22.5 -56q-11 -42 -36 -77q-9 -15 -17 -30q-10 -18 -25 -36q-28 -33 -37 -70q-1 -15 14.5 -22.5t38 -9.5t41.5 -3q12 0 18 -1h4q36 -3 72 -11v281q0 13 15 29q26 29 67.5 28
t74.5 -19q74 -41 90 -127q5 -33 -3.5 -65t-48.5 -34q-85 5 -84 88q2 12 16 14.5t32 -2.5q-2 20 -7 39q-3 14 -13 28t-21 21q-5 3 -18 -8q-9 -7 -9 -12v-410q0 -20 -23 -22t-45 9q-20 9 -23 22l-20 7q-46 19 -89.5 22t-69.5 -46q-10 -16 -34 -14t-43 14t-13 28
q42 77 112.5 74.5t143.5 -29.5q7 -2 13 -4v34z" />
    <glyph glyph-name="bn_ph_la" horiz-adv-x="567" 
d="M298 30q-1 0 -1 1q-3 0 -5 1q-3 1 -5 2q-19 3 -38 5q-13 2 -26 3q-29 3 -58 7q-36 5 -76.5 18.5t-60.5 45.5q-16 33 -1 66.5t39 62.5q12 16 20 31q4 6 12 16q14 20 27 43.5t10 39.5q-7 17 -29.5 30.5t-39.5 17.5q-9 2 -20 8.5t-16 15.5h-10q-16 0 -33 7t-26 21
q-7 14 3.5 21t23.5 7h559q17 0 33.5 -7t25.5 -21q7 -14 -3 -21t-23 -7h-439q35 -18 61.5 -44t22.5 -56q-11 -42 -36 -77q-9 -15 -17 -30q-10 -18 -25 -36q-28 -33 -37 -70q-1 -15 14.5 -22.5t38 -9.5t41.5 -3q12 0 18 -1h4q36 -3 72 -11v281q0 13 15 29q26 29 67.5 28
t74.5 -19q74 -41 90 -127q5 -33 -3.5 -65t-48.5 -34q-85 5 -84 88q2 12 16 14.5t32 -2.5q-2 20 -7 39q-3 14 -13 28t-21 21q-5 3 -18 -8q-9 -7 -9 -12v-491q0 -20 -23 -22t-45.5 8.5t-22.5 26.5v23q-15 8 -32 29q-2 -17 -1 -34q0 -15 -14.5 -19t-33.5 0.5t-32 14.5
q-8 5 -14 10l-12 12q0 -28 -8 -56q-7 -16 -30.5 -15t-43.5 13.5t-16 29.5q10 37 9 76q0 18 1 37q1 6 7.5 9.5t11.5 3.5q51 5 91 -26q6 22 13 42q7 14 23.5 14.5t29.5 -3.5q22 -8 51 -23v25z" />
    <glyph glyph-name="bn_b_ja" horiz-adv-x="580" 
d="M174 331q-5 -2 -10 -5q-14 -6 -25 -16q19 -6 36 -15q-1 18 -1 36zM286 428q74 4 148 -2q39 -4 74 -27t48 -61q7 -22 2 -40.5t-14 -36.5q-11 -21 -16 -46q-8 -40 -4 -80q0 -3 1 -5q1 -16 7 -31q3 -6 6 -8q20 -10 25.5 -24.5t-7 -23.5t-40.5 -1q-63 22 -77.5 81t-0.5 120
q4 17 14 37q12 23 16.5 45t-12.5 40q-10 8 -30 8.5t-40 -1.5q-14 -1 -23 -1q-7 0 -15 1q-32 1 -64 -2q-7 -1 -14 0q-5 -24 -4 -48q4 -27 17.5 -28.5t27 13t16.5 34.5q4 15 25.5 15t42.5 -10t22 -26l1 -29q5 -78 -12.5 -153t-105.5 -90q-171 -7 -276 130q-7 9 -3 15.5
t12.5 9.5t16.5 3q36 1 59 -27q27 -38 76 -64t95 -2q39 28 46 80q2 23 3 45q-32 -2 -60 4q2 -26 3 -53q-1 -19 -23 -21t-44 8t-24 27v7q-1 0 -1 1q-10 14 -21.5 27t-24.5 19q-21 9 -43 16q-18 6 -36 13q-13 5 -21 15.5t-1 23.5q20 28 50 42q10 5 20 11q21 15 40 32
q16 15 34 28q6 4 13 6h-170q-16 0 -33 7t-26 21q-7 14 4 21t22 7h573q16 0 33 -6.5t26 -21.5q7 -14 -3.5 -21t-22.5 -7h-305q1 -4 0 -8z" />
    <glyph glyph-name="bn_b_da" horiz-adv-x="524" 
d="M167 302v39q-7 -4 -13 -7q-14 -6 -25 -16q20 -6 38 -16zM504 500q16 0 33 -6.5t26 -21.5q7 -14 -3.5 -21t-22.5 -7h-280v-162q48 35 102 45t108 -23q5 -3 10.5 -9t5.5 -12q-1 -28 -9 -62q-11 -45 -15 -102t20 -72q28 -15 25 -27.5t-22 -17.5t-41 5q-59 32 -64.5 92
t6.5 116q5 23 8 55q-25 -6 -46 -21q-32 -23 -61 -51q-8 -7 -15 -14q-15 -12 -36 -8.5t-35 14.5q-14 10 -21 20q-4 4 -7 9q-10 14 -21.5 27t-24.5 19q-21 9 -43 16q-18 6 -36 13q-13 5 -21 15.5t-1 23.5q20 28 50 42q10 5 20 11q21 15 40 32q15 14 31 26h-157q-16 0 -33 7
t-26 21q-7 14 4 21t22 7h530z" />
    <glyph glyph-name="bn_b_dha" horiz-adv-x="469" 
d="M186 444h-166q-15 0 -32 6.5t-26 20.5q-7 15 3.5 22t22.5 7h461q16 0 33 -7t26 -21q7 -14 -3.5 -21t-22.5 -7h-158q0 -3 -1 -6q-18 -71 -9 -167l8 2q22 4 43 9q19 3 43 -5.5t29 -28.5q3 -28 -4 -63q-6 -29 -6 -56t14 -46q16 -21 1 -28t-39 -3t-36 16q-23 29 -25 59.5
t3 61.5l2 24q-8 -3 -19 -3q-9 -63 -1 -127q2 -31 3 -61q1 -20 -22 -21.5t-45 8.5t-24 26v6q0 1 -1 2q-10 14 -21.5 27t-24.5 19q-21 9 -43 16q-18 6 -36 13q-13 5 -21 15.5t-1 24.5q20 27 50 41l20 12q9 6 17 13q-14 13 -31 20l-49 17q-26 8 -50 18q-5 2 -12.5 7.5
t-12.5 12.5t-1 14q28 42 74 63l12 8q36 22 66 50zM216 361l-16 -12l-27 -16q-26 -11 -45 -29q2 0 4 -1q47 -12 86 -38q-5 48 -2 96zM197 142v0q19 -6 37 -15l-2 36v1v0l-10 -6q-13 -7 -25 -16z" />
    <glyph glyph-name="bn_b_ra" horiz-adv-x="387" 
d="M251 355q-22 -25 -48 -47l-33 -27q-27 -22 -49 -46q8 -4 16 -7q49 -19 92 -51q13 -11 25 -24v6q-12 99 -3 196zM222 95l-19 25q-22 24 -44 39q-31 19 -65 32q-24 10 -47 22q-5 2 -12.5 7t-12 12t-1.5 12q26 42 60 70l39 33q31 28 57 59q17 20 35 38h-192q-16 0 -33 7
t-26 21q-7 14 3.5 21t22.5 7h380q16 0 33 -6.5t26 -20.5q7 -14 -4 -21.5t-22 -7.5h-44q2 -6 1 -12q-30 -143 -13 -290q4 -60 5 -120q0 -19 -22.5 -21t-44 8t-24.5 21v1q-10 3 -20 7q-46 19 -89.5 22t-69.5 -46q-10 -16 -34 -14t-43 14t-13 28q42 77 113 75q59 -3 120 -22z
" />
    <glyph glyph-name="bn_b_la" horiz-adv-x="387" 
d="M251 355q-22 -25 -48 -47l-33 -27q-27 -22 -49 -46q8 -4 16 -7q49 -19 92 -51q13 -11 25 -24v6q-12 99 -3 196zM227 88q-11 16 -24 32q-22 24 -44 39q-31 19 -65 32q-24 10 -47 22q-5 2 -12.5 7t-12 12t-1.5 12q26 42 60 70l39 33q31 28 57 59q17 20 35 38h-192
q-16 0 -33 7t-26 21q-7 14 3.5 21t22.5 7h380q16 0 33 -6.5t26 -20.5q7 -14 -4 -21.5t-22 -7.5h-44q2 -6 1 -12q-30 -143 -13 -290q4 -60 5 -120v-100q0 -20 -23 -22t-45.5 8.5t-22.5 26.5v23q-15 8 -32 29q-2 -17 -1 -34q0 -15 -14.5 -19t-33.5 0.5t-32 14.5q-8 5 -14 10
l-12 12q0 -28 -8 -56q-7 -16 -30.5 -15t-43.5 13.5t-16 29.5q10 37 9 76q0 18 1 37q1 6 7.5 9.5t11.5 3.5q51 5 91 -26q6 22 13 42q7 14 23.5 14.5t29.5 -3.5q9 -3 20 -8z" />
    <glyph glyph-name="bn_bh_ra" horiz-adv-x="469" 
d="M431 269q7 -114 -1 -227q-1 -20 -18 -21.5t-35.5 5.5t-26.5 13q-6 4 -9 7l-14 10q-27 19 -58 33q-88 39 -169 -13q-15 -8 -38.5 -1t-36.5 21.5t5 27.5q73 46 155.5 37.5t156.5 -50.5q1 58 1 116q1 59 -8 95q-2 10 -3 11q5 -22 5 -45q1 -23 -7.5 -46t-28.5 -37
q-47 -25 -103.5 -0.5t-83.5 66.5q-8 14 1 19.5t26.5 4.5t34 -7t23.5 -16q20 -31 33 -17.5t15 45.5q1 15 -1.5 32.5t-10.5 30.5l-2 4q-5 7 -7 13t-1 16q1 7 8.5 10.5t16.5 3.5t15 -1q71 -9 129 -50q22 -17 29 -40.5t8 -49.5zM20 444q-16 0 -33 7t-26 21q-7 14 3.5 21t23.5 7
h461q16 0 33 -6.5t26 -20.5q7 -14 -3 -21.5t-23 -7.5h-462z" />
    <glyph glyph-name="bn_bh_la" horiz-adv-x="483" 
d="M20 444q-16 0 -32.5 7t-25.5 21q-8 14 2.5 21t23.5 7h475q16 0 33 -7t26 -21q7 -14 -3.5 -21t-23.5 -7h-475zM409 103v-228q0 -20 -23 -22t-45.5 8.5t-22.5 26.5v23q-15 8 -32 29q-2 -17 -1 -34q0 -15 -14.5 -19t-33.5 0.5t-32 14.5q-8 5 -14 10l-12 12q0 -28 -8 -56
q-7 -16 -30.5 -15t-43.5 13.5t-16 29.5q10 37 9 76q0 18 1 37q1 6 7.5 9.5t11.5 3.5q51 5 91 -26q6 22 13 42q7 14 23.5 14.5t29.5 -3.5q22 -8 51 -23v38q-90 -15 -178 44q-121 80 -120 215q4 16 26 15.5t43 -12t21 -30.5q-2 -48 28.5 -97.5t79 -73t97.5 7.5q32 22 47 59
t10 75q-3 27 -17 56q5 -26 2 -53q-6 -65 -68 -81q-66 -8 -111.5 37.5t-20.5 110.5q10 16 34 14t43 -14t13 -27q-7 -15 -10 -34.5t9 -30.5q0 1 1 2q11 11 16 26q11 39 -2 79q-3 9 -8 17q-4 7 -7 14.5t-2 16.5q2 6 7 9t11.5 4t10.5 1q128 0 179 -118q20 -58 4 -118
q-13 -45 -47 -75z" />
    <glyph glyph-name="bn_m_na" horiz-adv-x="421" 
d="M270 332q32 51 40 112h-153q-7 -20 -2 -43.5t14 -48.5q27 -12 44 -31l8 -10q5 -5 10 -11l4 -4q22 14 35 36zM274 240q-47 -10 -93 22q-6 -21 -30 -36q-27 -14 -60 -5.5t-54.5 32.5t-15.5 57q15 47 60 54l-4 12q-15 34 -16 68h-41q-15 0 -32.5 6.5t-26.5 20.5q-7 15 4 22
t23 7h413q16 0 33 -7t26 -21q7 -14 -4 -21t-22 -7h-33v-4q-1 -46 -19 -97q-7 -19 -17 -35q-3 -146 16 -301q2 -19 -19.5 -21t-45 7.5t-25.5 26.5l-6 48q-6 4 -9 9q-9 16 -29.5 36t-44 30t-42.5 -6q-17 -16 -25 -37.5t-0.5 -36t38.5 -9.5q17 2 34.5 -3t29.5 -17q10 -11 7 -21
t-18 -13q-41 -8 -84.5 1t-75.5 38q-30 30 -27 70.5t38 66.5q48 32 103 24q52 -8 98 -39q-3 40 -4 79z" />
    <glyph glyph-name="bn_m_pha" horiz-adv-x="710" 
d="M212 245q-16 6 -31 17q-6 -21 -30 -36q-27 -14 -60 -5.5t-54.5 32.5t-15.5 57q15 47 60 54l-4 12q-15 34 -16 68h-41q-15 0 -32.5 6.5t-26.5 20.5q-7 15 4 22t23 7h702q17 0 33.5 -7t25.5 -21q7 -14 -3 -21t-23 -7h-322v-4q-1 -46 -19 -97q-17 -45 -48 -74l-2 -2
q-9 -15 -17 -30q-10 -18 -25 -36q-28 -33 -37 -70q-1 -15 14.5 -22.5t38 -9.5t41.5 -3q12 0 18 -1h4q36 -3 72 -11v281q0 13 15 29q26 29 67.5 28t74.5 -19q74 -41 90 -127q5 -33 -3.5 -65t-48.5 -34q-85 5 -84 88q2 12 16 14.5t32 -2.5q-2 20 -7 39q-3 14 -13 28t-21 21
q-5 3 -18 -8q-9 -7 -9 -12v-310q0 -10 -7.5 -15t-20.5 -7q-36 -5 -63 20q2 -2 1.5 -2.5t-3 0t-4.5 1.5q-3 1 -5 2q-19 3 -38 5q-13 2 -26 3q-29 3 -58 7q-36 5 -76.5 18.5t-60.5 45.5q-16 33 -1 66.5t39 62.5q1 2 3 3zM270 332q32 51 40 112h-153q-7 -20 -2 -43.5t14 -48.5
q27 -12 44 -31l8 -10q5 -5 10 -11l4 -4q22 14 35 36z" />
    <glyph glyph-name="bn_m_ba" horiz-adv-x="421" 
d="M270 332q32 51 40 112h-153q-7 -20 -2 -43.5t14 -48.5q27 -12 44 -31l8 -10q5 -5 10 -11l4 -4q22 14 35 36zM401 500q16 0 33 -7t26 -21q7 -14 -4 -21t-22 -7h-33v-4q-1 -46 -19.5 -97t-56.5 -81q-73 -49 -144 0q-6 -21 -30 -36q-27 -14 -60 -5.5t-54.5 32.5t-15.5 57
q15 47 60 54l-4 12q-15 34 -16 68h-41q-15 0 -32.5 6.5t-26.5 20.5q-7 15 4 22t23 7h413zM261 184l-16 -12l-27 -16q-26 -11 -45 -29q2 0 4 -1q47 -12 86 -38q-5 48 -2 96zM291 301q7 3 19 3q23 -1 42.5 -13.5t15.5 -29.5q-27 -102 -12 -208q4 -42 5 -84q0 -19 -22.5 -21
t-44.5 8t-24 27v9l-3 4q-16 21 -34 41t-41 30l-49 17q-26 8 -50 18q-5 2 -12.5 7.5t-12.5 12.5t-1 14q28 42 74 63l12 8q36 22 66 50q24 21 50 40q9 5 22 4z" />
    <glyph glyph-name="bn_m_b_ra" horiz-adv-x="421" 
d="M270 332q32 51 40 112h-153q-7 -20 -2 -43.5t14 -48.5q27 -12 44 -31l8 -10q5 -5 10 -11l4 -4q22 14 35 36zM261 184l-16 -12l-27 -16q-26 -11 -45 -29q2 0 4 -1q47 -12 86 -38q-5 48 -2 96zM208 247q-14 6 -27 15q-6 -21 -30 -36q-27 -14 -60 -5.5t-54.5 32.5t-15.5 57
q15 47 60 54l-4 12q-15 34 -16 68h-41q-15 0 -32.5 6.5t-26.5 20.5q-7 15 4 22t23 7h413q16 0 33 -7t26 -21q7 -14 -4 -21t-22 -7h-33v-4q-1 -46 -19 -97q-11 -30 -29 -53q19 -12 15 -29q-27 -102 -12 -208q4 -42 5 -84q0 -19 -22 -21q-20 -2 -38 5q-20 6 -41 14
q-46 19 -89.5 22t-69.5 -46q-10 -16 -34 -14t-43 14t-13 28q42 77 113 75q59 -3 121 -22q-6 6 -12 13q-18 20 -41 30l-49 17q-26 8 -50 18q-5 2 -12.5 7.5t-12.5 12.5t-1 14q28 42 74 63l12 8q29 18 55 40z" />
    <glyph glyph-name="bn_m_bha" horiz-adv-x="476" 
d="M270 332q32 51 40 112h-153q-7 -20 -2 -43.5t14 -48.5q27 -12 44 -31l8 -10q5 -5 10 -11l4 -4q22 14 35 36zM466 500q16 0 33 -7t26 -21q7 -14 -4 -21t-22 -7h-98v-4q-1 -46 -19.5 -97t-56.5 -81q-73 -49 -144 0q-6 -21 -30 -36q-27 -14 -60 -5.5t-54.5 32.5t-15.5 57
q15 47 60 54l-4 12q-15 34 -16 68h-41q-15 0 -32.5 6.5t-26.5 20.5q-7 15 4 22t23 7h478zM257 122q8 9 12 20q9 34 -1 68q-4 8 -8 15l-6 14t-2 17q2 7 7.5 10.5t12 4.5t10.5 1q119 0 162 -108q21 -54 6.5 -109.5t-75.5 -87.5q-104 -52 -214.5 21.5t-110.5 198.5
q4 18 26 17.5t43 -12t21 -31.5q-2 -41 24.5 -84.5t68.5 -64t84 6.5q28 19 40.5 51t8.5 65q-1 10 -2 16q0 -7 -2 -22q-6 -53 -64 -68q-63 -6 -105.5 36t-18.5 103q11 17 34 15.5t42 -14t13 -30.5q-7 -12 -9 -27q-2 -16 3 -22z" />
    <glyph glyph-name="bn_m_bh_ra" horiz-adv-x="542" 
d="M270 332q32 51 40 112h-153q-7 -20 -2 -43.5t14 -48.5q27 -12 44 -31l8 -10q5 -5 10 -11l4 -4q22 14 35 36zM522 500q16 0 33 -7t26 -21q7 -14 -4 -21t-22 -7h-154v-4q-1 -46 -19.5 -97t-56.5 -81q-73 -49 -144 0q-6 -21 -30 -36q-27 -14 -60 -5.5t-54.5 32.5t-15.5 57
q15 47 60 54l-4 12q-15 34 -16 68h-41q-15 0 -32.5 6.5t-26.5 20.5q-7 15 4 22t23 7h534zM467 253q21 -17 28 -40.5t8 -49.5q7 -113 0 -227q-2 -19 -18.5 -21t-35.5 5.5t-28 14.5q3 -3 2.5 -2.5t-3.5 2.5t-7 5t-7 5.5t-5 3.5q-28 20 -60 34q-88 40 -168 -13q-15 -8 -38.5 -1
t-36.5 21.5t5 27.5q72 46 154.5 37.5t157.5 -50.5q2 59 0 117v15q1 45 -9 88q-1 1 -1 2q5 -22 5 -44q0 -24 -8 -47t-28 -36q-48 -26 -104 -1.5t-83 66.5q-8 14 1 20t26.5 5t34 -7.5t23.5 -16.5q20 -31 32.5 -17t14.5 45q1 16 -1.5 33t-9.5 31q-1 1 -2 3q-5 7 -7.5 13.5
t-1.5 15.5q2 8 9.5 11t16.5 3t14 -1q72 -9 130 -50z" />
    <glyph glyph-name="bn_m_ma" horiz-adv-x="571" 
d="M249 119q-7 -12 -3 -25q1 -1 1 -2v-1q2 3 4 5l2 2q6 16 9 33q-8 -5 -13 -12zM551 500q16 0 33 -7t26 -21q7 -14 -4 -21t-22 -7h-58q5 -6 5 -13v-410q0 -20 -22.5 -21.5t-45 9t-22.5 26.5v20q-1 2 -2 3q-29 46 -84 75q1 -26 -5 -49t-24 -38q-64 -42 -131 2
q-25 18 -37.5 51t8.5 60q40 37 96 39q-2 21 -6 40q-38 -2 -75 24q-6 -21 -30 -36q-27 -14 -60 -5.5t-54.5 32.5t-15.5 57q15 47 60 54l-4 12q-15 34 -16 68h-41q-15 0 -32.5 6.5t-26.5 20.5q-7 15 4 22t23 7h563zM441 444h-40v-4q-1 -46 -19 -97q-17 -45 -48 -73
q12 -34 15 -71v-4q1 -4 1 -7q49 -15 91 -44v300zM270 332q32 51 40 112h-153q-7 -20 -2 -43.5t14 -48.5q27 -12 44 -31l8 -10q5 -5 10 -11l4 -4q22 14 35 36z" />
    <glyph glyph-name="bn_m_ra" horiz-adv-x="465" 
d="M160 149q19 17 28 40q-24 3 -46.5 -2.5t-27.5 -27.5q-1 -16 7 -20.5t19 -1t20 11.5zM329 193q-11 127 13 251h-180l-1 -4q-7 -24 -24 -41q-13 -14 -21 -32q-6 -9 -3 -19h1l1 -1q16 -2 31 -5q36 -6 70 -26t51 -54q10 -23 13 -45q25 -11 49 -24zM337 29v6q-1 44 -3 88
q0 1 -1 1q-26 22 -58 39q-27 -77 -124 -82q-32 0 -68.5 16t-51.5 48q-21 59 37 87q58 22 120 12q-4 17 -14.5 30t-28.5 16q-4 1 -10 2q-21 2 -42.5 7.5t-37.5 18.5q-16 11 -27.5 29t-4.5 39q9 20 23 36q9 10 16 22h-42q-16 0 -33 6.5t-26 20.5q-7 14 3.5 21.5t23.5 7.5h457
q16 0 32.5 -7t25.5 -21q7 -14 -3 -21t-23 -7h-43q2 -6 1 -12q-30 -143 -13 -290q4 -60 5 -120v-54q0 -20 -23 -22t-45 9q-20 9 -23 22l-20 7q-46 19 -89.5 22t-69.5 -46q-10 -16 -34 -14t-43 14t-13 28q42 77 112.5 74.5t143.5 -29.5z" />
    <glyph glyph-name="bn_m_la" horiz-adv-x="421" 
d="M270 332q32 51 40 112h-153q-7 -20 -2 -43.5t14 -48.5q27 -12 44 -31l8 -10q5 -5 10 -11l4 -4q22 14 35 36zM274 240q-47 -10 -93 22q-6 -21 -30 -36q-27 -14 -60 -5.5t-54.5 32.5t-15.5 57q15 47 60 54l-4 12q-15 34 -16 68h-41q-15 0 -32.5 6.5t-26.5 20.5q-7 15 4 22
t23 7h413q16 0 33 -7t26 -21q7 -14 -4 -21t-22 -7h-33v-4q-1 -46 -19 -97q-7 -19 -17 -35q-3 -146 16 -301q2 -19 -19.5 -21t-45 7.5t-25.5 26.5l-6 46q-18 15 -40 27q-2 -26 -1 -43q0 -16 -14.5 -20t-33.5 0.5t-32 15.5q-8 4 -14 10l-12 12q0 -29 -8 -56
q-7 -17 -30.5 -15.5t-43.5 13.5t-16 29q10 37 9 76q0 19 1 37q1 6 7.5 9.5t11.5 4.5q51 5 91 -27q6 22 13 43q7 14 23.5 14.5t29.5 -3.5q22 -8 51 -23q-2 35 -3 70z" />
    <glyph glyph-name="bn_y_ra" horiz-adv-x="429" 
d="M298 84v360h-157q35 -18 61.5 -44t22.5 -56q-11 -42 -36 -77q-9 -15 -17 -30q-10 -18 -25 -36q-28 -33 -37 -70q-1 -15 14.5 -22.5t38 -9.5t41.5 -3q12 0 18 -1h4q36 -3 72 -11zM298 30q-1 0 -1 1q-3 0 -5 1q-3 1 -5 2q-19 3 -38 5q-13 2 -26 3q-29 3 -58 7
q-36 5 -76.5 18.5t-60.5 45.5q-16 33 -1 66.5t39 62.5q12 16 20 31q4 6 12 16q14 20 27 43.5t10 39.5q-7 17 -29.5 30.5t-39.5 17.5q-9 2 -20 8.5t-16 15.5h-10q-16 0 -33 7t-26 21q-7 14 3.5 21t23.5 7h421q17 0 33.5 -7t25.5 -21q7 -14 -3 -21t-23 -7h-53v-508
q0 -20 -23 -22t-45 9q-20 9 -23 22l-20 7q-46 19 -89.5 22t-69.5 -46q-10 -16 -34 -14t-43 14t-13 28q42 77 112.5 74.5t143.5 -29.5q7 -2 13 -4v33z" />
    <glyph glyph-name="bn_l_ka" horiz-adv-x="632" 
d="M327 51q-1 6 -1 12l-3 81l-13 -10l-27 -16q-26 -11 -45 -29q2 0 4 -1q46 -12 85 -37zM411 188q5 -96 10 -163q4 -52 5 -94q-2 -19 -23.5 -21t-43.5 8t-24 27v9l-3 4q-16 21 -34 41t-41 30l-49 17q-26 8 -50 18q-5 2 -12.5 7.5t-12.5 12.5t-1 14q28 42 74 63l12 8
q36 22 66 50q16 14 34 28l-1 12q0 7 -1 14v1q-11 34 -32 64q-13 -49 -11 -99q0 -15 -14.5 -19t-34 0.5t-32.5 15.5q-10 5 -18 12q-18 18 -33 38l-10 12l-8 10v-12q2 -55 -12 -108q-7 -17 -30.5 -15.5t-43.5 13.5t-16 29q14 53 12 109q0 27 2 53q1 6 7 9.5t11 3.5
q69 6 119 -41q8 -8 15 -16q9 44 24 87q7 13 23.5 13.5t28.5 -3.5q30 -10 54 -29l6 -5q4 24 9 48h-312q-17 0 -33.5 7t-25.5 21q-7 14 3 21t23 7h625q16 0 33 -7t26 -21q7 -14 -3.5 -21t-23.5 -7h-220q3 -6 1 -13q-23 -109 -18 -179q57 -5 97 -18q46 -14 85 -58
q30 -33 32.5 -78t-34.5 -76q-33 -22 -75 -9t-60 48q-16 31 6.5 53.5t60.5 20.5q5 0 11 -1q-3 19 -22 32q-32 21 -71 20q-8 0 -26 2z" />
    <glyph glyph-name="bn_l_ga" horiz-adv-x="456" 
d="M328 -9l-10 9q-7 7 -10 15q-7 33 -25.5 73.5t-54.5 46.5q-28 1 -46 -19t-24 -44q48 -3 88.5 -40t40.5 -63q0 -22 -23.5 -23.5t-45.5 8.5t-22 27q0 12 -5.5 18.5t-17 11t-30.5 -14.5q-10 -10 -30 -9t-37 10.5t-19 25.5q-1 73 41.5 126t121.5 43q62 -11 103 -48
q-1 10 -1 20l-5 95q0 7 -1 14v1q-11 34 -32 64q-13 -49 -11 -99q0 -15 -14.5 -19t-34 0.5t-32.5 15.5q-10 5 -18 12q-18 18 -33 38l-10 12l-8 10v-12q2 -55 -12 -108q-7 -17 -30.5 -15.5t-43.5 13.5t-16 29q14 53 12 109q0 27 2 53q1 6 7 9.5t11 3.5q69 6 119 -41
q8 -8 15 -16q9 44 24 87q7 13 23.5 13.5t28.5 -3.5q30 -10 54 -29l6 -5q4 24 9 48h-312q-17 0 -33.5 7t-25.5 21q-7 14 3 21t23 7h449q16 0 33 -7t26 -21q7 -14 -3.5 -21t-23.5 -7h-44q3 -6 1 -13q-30 -143 -13 -290q5 -59 6 -130v-75q0 -19 -23 -21t-44.5 8t-22.5 27v41z
" />
    <glyph glyph-name="bn_l_dda" horiz-adv-x="541" 
d="M293 444h-273q-16 0 -33 7t-26 21q-7 14 4 21t22 7h534q16 0 33 -6.5t26 -21.5q7 -14 -3.5 -21t-22.5 -7h-165q1 -4 0 -8l-6 -22q-17 -46 -16 -92q4 -27 17.5 -28.5t27 13t16.5 34.5q4 15 25.5 15t42.5 -10t22 -26l1 -29q5 -78 -12.5 -153t-105.5 -90q-171 -7 -276 130
q-7 9 -3 15.5t12.5 9.5t16.5 3q36 1 59 -27q27 -38 76 -64t95 -2q39 28 46 80q2 23 3 45q-60 -4 -108 23q-25 17 -36 39q-17 22 -37 41q-12 -43 -10 -86q0 -13 -12.5 -16.5t-29.5 0.5t-28 13q-9 5 -16 11q-15 15 -28 33l-9 10l-7 9v-11q2 -47 -10 -93q-6 -15 -26.5 -13.5
t-38 12t-13.5 24.5q12 46 10 95q0 23 2 46q1 5 6 8t10 3q59 5 103 -36q7 -7 13 -14q7 39 20 76q6 11 20.5 11.5t24.5 -3.5q26 -8 49 -26l2 -2q4 27 12 52z" />
    <glyph glyph-name="bn_l_pa" horiz-adv-x="456" 
d="M213 136q-16 -5 -27 -18t-20 -28q24 -17 40 -43q37 27 82 35q-14 24 -33 42t-42 12zM323 141q-1 12 -1 23l-5 95q0 7 -1 14v1q-11 34 -32 64q-13 -49 -11 -99q0 -15 -14.5 -19t-34 0.5t-32.5 15.5q-10 5 -18 12q-18 18 -33 38l-10 12l-8 10v-12q2 -55 -12 -108
q-7 -17 -30.5 -15.5t-43.5 13.5t-16 29q14 53 12 109q0 27 2 53q1 6 7 9.5t11 3.5q69 6 119 -41q8 -8 15 -16q9 44 24 87q7 13 23.5 13.5t28.5 -3.5q30 -10 54 -29l6 -5q4 24 9 48h-312q-17 0 -33.5 7t-25.5 21q-7 14 3 21t23 7h449q16 0 33 -7t26 -21q7 -14 -3.5 -21
t-23.5 -7h-44q3 -6 1 -13q-30 -143 -13 -290q5 -59 6 -130v-40q0 -19 -23 -21t-44.5 8t-22.5 27v39h-1q-5 -1 -11 -4q-1 -1 -2 -1q-15 -8 -29 -18q-24 -16 -41 -40q-9 -12 -27 -10.5t-34.5 10.5t-22.5 19q-7 13 -13 26q-5 11 -11 23l-2 4q-7 13 -17 24q-1 1 -3 1
q-9 1 -23.5 7.5t-22.5 16.5t0 22q8 11 14 21q20 36 57 58q21 11 47 11t48 -6q52 -13 89 -47z" />
    <glyph glyph-name="bn_l_pha" horiz-adv-x="742" 
d="M307 348q5 13 3 24q-7 17 -29.5 30.5t-39.5 17.5q-9 2 -20 8.5t-16 15.5h-185q-16 0 -33 7t-26 21q-7 14 3.5 21t23.5 7h734q17 0 33.5 -7t25.5 -21q7 -14 -3 -21t-23 -7h-439q35 -18 61.5 -44t22.5 -56q-11 -42 -36 -77q-9 -15 -17 -30q-10 -18 -25 -36q-28 -33 -37 -70
q-1 -15 14.5 -22.5t38 -9.5t41.5 -3q12 0 18 -1h4q36 -3 72 -11v281q0 13 15 29q26 29 67.5 28t74.5 -19q74 -41 90 -127q5 -33 -3.5 -65t-48.5 -34q-85 5 -84 88q2 12 16 14.5t32 -2.5q-2 20 -7 39q-3 14 -13 28t-21 21q-5 3 -18 -8q-9 -7 -9 -12v-310q0 -10 -7.5 -15
t-20.5 -7q-36 -5 -63 20q2 -2 1.5 -2.5t-3 0t-4.5 1.5q-3 1 -5 2q-19 3 -38 5q-13 2 -26 3q-29 3 -58 7q-36 5 -76.5 18.5t-60.5 45.5q-16 33 -1 66.5t39 62.5q12 16 20 31v1q-15 12 -35 23q-2 -26 -1 -43q0 -16 -14.5 -20t-33.5 0.5t-32 15.5q-8 4 -14 10l-12 12
q0 -29 -8 -56q-7 -17 -30.5 -15.5t-43.5 13.5t-16 29q10 37 9 76q0 19 1 37q1 6 7.5 9.5t11.5 4.5q51 5 91 -27q6 22 13 43q7 14 23.5 14.5t29.5 -3.5q22 -8 51 -23z" />
    <glyph glyph-name="bn_l_ba" horiz-adv-x="456" 
d="M327 51q-1 6 -1 12l-3 81l-13 -10l-27 -16q-26 -11 -45 -29q2 0 4 -1q46 -12 85 -37zM411 188q5 -96 10 -163q4 -52 5 -94q-2 -19 -23.5 -21t-43.5 8t-24 27v9l-3 4q-16 21 -34 41t-41 30l-49 17q-26 8 -50 18q-5 2 -12.5 7.5t-12.5 12.5t-1 14q28 42 74 63l12 8
q36 22 66 50q16 14 34 28l-1 12q0 7 -1 14v1q-11 34 -32 64q-13 -49 -11 -99q0 -15 -14.5 -19t-34 0.5t-32.5 15.5q-10 5 -18 12q-18 18 -33 38l-10 12l-8 10v-12q2 -55 -12 -108q-7 -17 -30.5 -15.5t-43.5 13.5t-16 29q14 53 12 109q0 27 2 53q1 6 7 9.5t11 3.5
q69 6 119 -41q8 -8 15 -16q9 44 24 87q7 13 23.5 13.5t28.5 -3.5q30 -10 54 -29l6 -5q4 24 9 48h-312q-17 0 -33.5 7t-25.5 21q-7 14 3 21t23 7h449q16 0 33 -7t26 -21q7 -14 -3.5 -21t-23.5 -7h-44q3 -6 1 -13q-23 -109 -18 -179z" />
    <glyph glyph-name="bn_l_ma" horiz-adv-x="630" 
d="M318 228l-2 4q-11 34 -32 64q-13 -49 -11 -99q0 -15 -14.5 -19t-34 0.5t-32.5 15.5q-10 5 -18 12q-18 18 -33 38l-10 12l-8 10v-12q2 -55 -12 -108q-7 -17 -30.5 -15.5t-43.5 13.5t-16 29q14 53 12 109q0 27 2 53q1 6 7 9.5t11 3.5q69 6 119 -41q8 -8 15 -16q9 44 24 87
q7 13 23.5 13.5t28.5 -3.5q30 -10 54 -29l2 -2q4 44 13 87h-312q-17 0 -33.5 7t-25.5 21q-7 14 3 21t23 7h623q16 0 33 -7t26 -21q7 -14 -3.5 -21t-23.5 -7h-53q-7 -231 6 -462q0 -18 -19 -21t-40 4.5t-30 22.5q-29 28 -64 52q0 -27 -21 -50q-12 -11 -30 -17t-34 -5
q-52 4 -73.5 40t0.5 83q16 27 39 36q-3 53 -5 101zM499 444h-75q3 -6 1 -13q-30 -143 -13 -290l2 -25q43 -18 86 -49q-6 189 -1 377z" />
    <glyph glyph-name="bn_l_ra" horiz-adv-x="456" 
d="M329 30l-22 8q-46 19 -89.5 22t-69.5 -46q-10 -16 -34 -14t-43 14t-13 28q42 77 112.5 74.5t143.5 -29.5l12 -4l-2 36q-4 58 -6 109l-2 4q-11 34 -32 64q-13 -49 -11 -99q0 -15 -14.5 -19t-34 0.5t-32.5 15.5q-10 5 -18 12q-18 18 -33 38l-10 12l-8 10v-12
q2 -55 -12 -108q-7 -17 -30.5 -15.5t-43.5 13.5t-16 29q14 53 12 109q0 27 2 53q1 6 7 9.5t11 3.5q69 6 119 -41q8 -8 15 -16q9 44 24 87q7 13 23.5 13.5t28.5 -3.5q30 -10 54 -29l2 -2q4 44 13 87h-312q-17 0 -33.5 7t-25.5 21q-7 14 3 21t23 7h449q16 0 33 -7t26 -21
q7 -14 -3.5 -21t-23.5 -7h-44q3 -6 1 -13q-30 -143 -13 -290q5 -60 6 -120q0 -19 -23 -21t-44 8q-19 9 -22 22z" />
    <glyph glyph-name="bn_l_la" horiz-adv-x="456" 
d="M316 273v1q-11 34 -32 64q-13 -49 -11 -99q0 -15 -14.5 -19t-34 0.5t-32.5 15.5q-10 5 -18 12q-18 18 -33 38l-10 12l-8 10v-12q2 -55 -12 -108q-7 -17 -30.5 -15.5t-43.5 13.5t-16 29q14 53 12 109q0 27 2 53q1 6 7 9.5t11 3.5q69 6 119 -41q8 -8 15 -16q9 44 24 87
q7 13 23.5 13.5t28.5 -3.5q30 -10 54 -29l6 -5q4 24 9 48h-312q-17 0 -33.5 7t-25.5 21q-7 14 3 21t23 7h449q16 0 33 -7t26 -21q7 -14 -3.5 -21t-23.5 -7h-44q3 -6 1 -13q-30 -143 -13 -290q5 -60 6 -130q0 -19 -23 -21t-44.5 8t-22.5 27q-1 20 -2 38q-16 13 -36 24
q-2 -26 -1 -43q0 -16 -14.5 -20t-33.5 0.5t-32 15.5q-8 4 -14 10l-12 12q0 -29 -8 -56q-7 -17 -30.5 -15.5t-43.5 13.5t-16 29q10 37 9 76q0 19 1 37q1 6 7.5 9.5t11.5 4.5q51 5 91 -27q6 22 13 43q7 14 23.5 14.5t29.5 -3.5q22 -8 51 -23l-5 95q0 7 -1 14z" />
    <glyph glyph-name="bn_l_sa" horiz-adv-x="717" 
d="M273 315q-11 14 -24 26q-12 -43 -10 -86q0 -13 -12.5 -16.5t-29.5 0.5t-28 13q-9 5 -16 11q-15 15 -28 33l-9 10l-7 9v-11q2 -47 -10 -93q-6 -15 -26.5 -13.5t-38 12t-13.5 24.5q12 46 10 95q0 23 2 46q1 5 6 8t10 3q59 5 103 -36q7 -7 13 -14q7 39 20 76q6 11 20.5 11.5
t24.5 -3.5q24 -8 46 -24q11 26 28 48h-284q-16 0 -33 7t-26 21q-7 14 4 21t22 7h710q16 0 33 -6.5t26 -20.5q7 -14 -3.5 -21t-23.5 -8h-43q2 -6 1 -13q-29 -142 -13 -289q5 -60 6 -121q-2 -19 -23.5 -21t-43.5 8t-24 27q-1 56 -4 109q-17 35 -47 64q-7 7 -15 12
q11 -26 5 -59q-27 -91 -111.5 -114.5t-138.5 64.5q-8 20 10 24.5t42 -2.5t33 -21l2 -4q2 -5 5 -9q7 3 13 7q31 20 46 53q6 15 10 32.5t-4 33.5t-23 21.5t-31 7.5q-13 2 -26 5q-47 13 -73 45q-5 5 -9 11zM439 444q-4 -2 -11 -4q-24 -7 -42 -33.5t-25 -48.5v-2q-3 -9 -5 -19
t0.5 -18.5t13.5 -10.5q8 -2 16 -3q23 -3 45 -10q4 -1 7 -3q73 2 135 -39q3 -2 5 -4q-2 98 17 195h-156z" />
    <glyph glyph-name="bn_sha_ukaar" horiz-adv-x="529" 
d="M466 402v0q27 -20 36.5 -53t4.5 -66q-9 -52 -52 -78q32 -49 1 -88t-88.5 -60t-105.5 -16q-190 18 -242 195q-2 18 18.5 20t43.5 -7t28 -26q18 -102 117 -124q64 -11 116 28q25 19 35.5 38.5t-15.5 45.5q-7 7 -8 14q-1 5 1 9.5t9 7.5q34 15 48 49.5t0 69.5q-4 -2 -7 -5
q-25 -24 -35 -57q-6 -14 -26 -14.5t-39.5 8.5t-24.5 24q-4 4 -5 10q-4 23 -13 45q-15 -9 -25 -22q-10 -15 -1 -24t23 -16q5 -2 10 -5q11 -7 15 -19t-9 -19q-16 -7 -33 -3t-31 13q-3 1 -6 3q-11 6 -24 15q-7 -4 -14 -9q-13 -7 -22 -13q-13 -10 -29.5 -8.5t-30.5 8.5
q-5 2 -13.5 9t-12.5 15t4 15q13 10 27 19q9 5 18 11l1 1q12 7 21 18q0 1 0.5 1h0.5v0l-1 0.5t-2 2.5q-19 24 -46 44q-10 8 -20 17q-11 11 -7 21t18 13q36 5 63 -19l21 -18q9 -7 18 -15q15 12 32 22q10 5 19 11q2 2 4 3q9 5 22 4q19 -2 32 -9q28 -17 46 -40q59 48 135 3z" />
    <glyph glyph-name="bn_sh_ca" horiz-adv-x="595" 
d="M483 213q-7 26 -27 46t-44 37q-7 -108 6 -214q34 20 53.5 56.5t11.5 74.5zM323 348q-9 8 -18 17l-12 12q-1 0 -2 1l-1 1q-35 -17 -59 -45q-16 -24 -2 -39t36 -25l13 -8q11 -6 15 -18t-9 -20q-16 -7 -33.5 -2.5t-31.5 12.5l-8 6q-22 12 -45 29l-27 -18q-17 -10 -30 -20
q-11 -7 -28.5 -5.5t-33.5 9.5t-23.5 17.5t2.5 17.5q16 12 33 22q23 13 42 30l5 3q5 4 9 9t0 11q-14 18 -31 33l-39 36q-29 25 -57 52q-10 10 -7 20.5t18 13.5q17 3 34 -2.5t29 -16.5l47 -43q29 -24 55 -49q24 20 53 37q15 8 29 18q13 8 34 2.5t35 -17.5q7 -3 11 -7
q1 11 1 22v28q0 14 10.5 21t22.5 7h219q16 0 33 -6.5t26 -20.5q7 -14 -4 -21.5t-22 -7.5h-194q-1 -42 -3 -84q19 -6 32 -18q19 -18 40 -34q34 -26 60 -56.5t28 -76.5q-1 -61 -43 -107t-102 -55q-11 -1 -22 1q-21 -2 -43.5 7t-28.5 26q-27 146 -13 296v5z" />
    <glyph glyph-name="bn_sh_cha" horiz-adv-x="723" 
d="M449 337q-2 1 -3 2q-17 7 -34 15q-5 -54 4 -106q28 8 51.5 25t17.5 42q-3 7 -12 11.5t-18 7.5q-3 2 -6 3zM321 350q-8 7 -16 15l-12 12q-1 0 -2 1l-1 1q-35 -17 -59 -45q-16 -24 -2 -39t36 -25l13 -8q11 -6 15 -18t-9 -20q-16 -7 -33.5 -2.5t-31.5 12.5l-8 6
q-22 12 -45 29l-27 -18q-17 -10 -30 -20q-11 -7 -28.5 -5.5t-33.5 9.5t-23.5 17.5t2.5 17.5q16 12 33 22q23 13 42 30l5 3q5 4 9 9t0 11q-14 18 -31 33l-39 36q-29 25 -57 52q-10 10 -7 20.5t18 13.5q17 3 34 -2.5t29 -16.5l47 -43q29 -24 55 -49q24 20 53 37q15 8 29 18
q13 8 34 2.5t35 -17.5q7 -3 12 -7q1 11 1 22l1 28q0 14 11 21t23 7h340q15 0 32.5 -6.5t26.5 -20.5q7 -14 -4 -21.5t-22 -7.5h-317l-2 -35q7 -2 13 -5q16 -9 38 -18q46 -17 82 -45q47 13 96 -10q31 -16 46.5 -45.5t8.5 -64.5q-30 -100 -122 -129q59 -13 103 -43t57 -81
q5 -18 -17 -20t-45 7t-28 25q-17 50 -81 63t-119 10h-21q-19 0 -38 13t-21.5 27t27.5 16h7l35 8q73 10 127 53q36 32 46 79q3 20 -4 38q-5 -1 -14 -4t-19 -11q-15 -43 -63.5 -63t-89.5 -22q-7 0 -15 1q-19 -2 -39 5.5t-27 20.5q-21 68 -19 136z" />
    <glyph glyph-name="bn_sh_na" horiz-adv-x="457" 
d="M332 165q0 13 -1 26q-4 77 -5 155q-11 9 -21 19l-12 12q-1 0 -2 1l-1 1q-35 -17 -59 -45q-16 -24 -2 -39t36 -25l13 -8q11 -6 15 -18t-9 -20q-16 -7 -33.5 -2.5t-31.5 12.5l-8 6q-22 12 -45 29l-27 -18q-17 -10 -30 -20q-11 -7 -28.5 -5.5t-33.5 9.5t-23.5 17.5t2.5 17.5
q16 12 33 22q23 13 42 30l5 3q5 4 9 9t0 11q-14 18 -31 33l-39 36q-29 25 -57 52q-10 10 -7 20.5t18 13.5q17 3 34 -2.5t29 -16.5l47 -43q29 -24 55 -49q24 20 53 37q15 8 29 18q13 8 34 2.5t35 -17.5q7 -3 12 -7q3 72 17 142q5 16 28 15.5t43.5 -12.5t18.5 -30
q-4 -19 -7 -37h53q16 0 33 -6.5t26 -20.5q7 -14 -3 -21.5t-23 -7.5h-92q-9 -134 0 -270q5 -75 6 -152q0 -19 -23 -21t-44.5 8t-22.5 30l-1 37q-3 2 -4 5q-10 15 -30 35t-44 30t-43 -6q-17 -16 -25 -37.5t0 -36t39 -9.5q16 3 33.5 -2.5t29.5 -17.5q10 -10 7 -20.5t-17 -13.5
q-42 -7 -85 2t-75 37q-30 30 -27.5 70.5t37.5 67.5q48 31 102 23q52 -8 98 -38z" />
    <glyph glyph-name="bn_sh_ba" horiz-adv-x="457" 
d="M282 91q29 -9 54 -23q-2 28 -2 55q-10 -7 -20 -12q-17 -9 -32 -20zM329 225q-2 60 -3 121q-11 9 -21 19l-12 12q-1 0 -2 1l-1 1q-35 -17 -59 -45q-16 -24 -2 -39t36 -25l13 -8q11 -6 15 -18t-9 -20q-16 -7 -33.5 -2.5t-31.5 12.5l-8 6q-22 12 -45 29l-27 -18
q-17 -10 -30 -20q-11 -7 -28.5 -5.5t-33.5 9.5t-23.5 17.5t2.5 17.5q16 12 33 22q23 13 42 30l5 3q5 4 9 9t0 11q-14 18 -31 33l-39 36q-29 25 -57 52q-10 10 -7 20.5t18 13.5q17 3 34 -2.5t29 -16.5l47 -43q29 -24 55 -49q24 20 53 37q15 8 29 18q13 8 34 2.5t35 -17.5
q7 -3 12 -7q3 72 17 142q5 16 28 15.5t43.5 -12.5t18.5 -30q-4 -19 -7 -37h53q16 0 33 -6.5t26 -20.5q7 -14 -3 -21.5t-23 -7.5h-92q-9 -134 0 -270q5 -76 6 -152l1 -55q0 -13 -16.5 -16t-34.5 1.5t-28 15.5l-10 14q-11 16 -24.5 30.5t-28.5 22.5q-23 9 -47 17l-40 14
q-13 5 -21 16t-1 24q22 30 55 45q11 6 21 13q24 16 45 35q15 14 31 26z" />
    <glyph glyph-name="bn_sh_ma" horiz-adv-x="632" 
d="M334 119q-1 36 -3 72q-4 77 -5 155q-11 9 -21 19l-12 12q-1 0 -2 1l-1 1q-35 -17 -59 -45q-16 -24 -2 -39t36 -25l13 -8q11 -6 15 -18t-9 -20q-16 -7 -33.5 -2.5t-31.5 12.5l-8 6q-22 12 -45 29l-27 -18q-17 -10 -30 -20q-11 -7 -28.5 -5.5t-33.5 9.5t-23.5 17.5
t2.5 17.5q16 12 33 22q23 13 42 30l5 3q5 4 9 9t0 11q-14 18 -31 33l-39 36q-29 25 -57 52q-10 10 -7 20.5t18 13.5q17 3 34 -2.5t29 -16.5l47 -43q29 -24 55 -49q24 20 53 37q15 8 29 18q13 8 34 2.5t35 -17.5q7 -3 12 -7q3 72 17 142q5 16 28 15.5t43.5 -12.5t18.5 -30
q-4 -19 -7 -37h185q16 0 33 -6.5t26 -20.5q7 -14 -3 -21.5t-23 -7.5h-51q-8 -236 6 -472q0 -18 -19 -21t-40 4.5t-30 22.5q-29 28 -64 52q0 -27 -21 -50q-12 -11 -30 -17t-34 -5q-52 4 -73.5 40t0.5 83q18 30 45 38zM504 444h-83q-9 -134 0 -270l4 -71q40 -17 80 -46
q-7 194 -1 387z" />
    <glyph glyph-name="bn_sh_ra" horiz-adv-x="457" 
d="M336 81q-2 54 -5 110q-4 77 -5 155q-11 9 -21 19l-12 12q-1 0 -2 1l-1 1q-35 -17 -59 -45q-16 -24 -2 -39t36 -25l13 -8q11 -6 15 -18t-9 -20q-16 -7 -33.5 -2.5t-31.5 12.5l-8 6q-22 12 -45 29l-27 -18q-17 -10 -30 -20q-11 -7 -28.5 -5.5t-33.5 9.5t-23.5 17.5
t2.5 17.5q16 12 33 22q23 13 42 30l5 3q5 4 9 9t0 11q-14 18 -31 33l-39 36q-29 25 -57 52q-10 10 -7 20.5t18 13.5q17 3 34 -2.5t29 -16.5l47 -43q29 -24 55 -49q24 20 53 37q15 8 29 18q13 8 34 2.5t35 -17.5q7 -3 12 -7q3 72 17 142q5 16 28 15.5t43.5 -12.5t18.5 -30
q-4 -19 -7 -37h53q16 0 33 -6.5t26 -20.5q7 -14 -3 -21.5t-23 -7.5h-92q-9 -134 0 -270q5 -76 6 -152q0 -19 -23 -21t-44 8q-16 7 -21 19q-13 4 -28 10q-46 19 -89.5 22t-69.5 -46q-10 -16 -34 -14t-43 14t-13 28q42 77 112.5 74.5t143.5 -29.5z" />
    <glyph glyph-name="bn_sh_la" horiz-adv-x="457" 
d="M332 174q-1 9 -1 17q-4 77 -5 155q-11 9 -21 19l-12 12q-1 0 -2 1l-1 1q-35 -17 -59 -45q-16 -24 -2 -39t36 -25l13 -8q11 -6 15 -18t-9 -20q-16 -7 -33.5 -2.5t-31.5 12.5l-8 6q-22 12 -45 29l-27 -18q-17 -10 -30 -20q-11 -7 -28.5 -5.5t-33.5 9.5t-23.5 17.5t2.5 17.5
q16 12 33 22q23 13 42 30l5 3q5 4 9 9t0 11q-14 18 -31 33l-39 36q-29 25 -57 52q-10 10 -7 20.5t18 13.5q17 3 34 -2.5t29 -16.5l47 -43q29 -24 55 -49q24 20 53 37q15 8 29 18q13 8 34 2.5t35 -17.5q7 -3 12 -7q3 72 17 142q5 16 28 15.5t43.5 -12.5t18.5 -30
q-4 -19 -7 -37h53q16 0 33 -6.5t26 -20.5q7 -14 -3 -21.5t-23 -7.5h-92q-9 -134 0 -270q5 -76 6 -152q0 -19 -23 -21t-44.5 8t-22.5 30v17l-5 2q-15 9 -32 29q-2 -16 -1 -33q0 -16 -14.5 -20t-33.5 0.5t-32 15.5q-8 4 -14 10l-12 12q0 -29 -8 -56q-7 -17 -30.5 -15.5
t-43.5 13.5t-16 29q10 37 9 76q0 19 1 37q1 6 7.5 9.5t11.5 4.5q51 5 91 -27q6 22 13 43q7 14 23.5 14.5t29.5 -3.5q22 -8 51 -23z" />
    <glyph glyph-name="bn_ss_ka" horiz-adv-x="522" 
d="M181 309q16 5 31 12q-11 9 -13 20q-11 51 -50 86q-13 -17 -19.5 -40.5t2.5 -39.5q1 0 1 -1q5 -7 12.5 -16.5t17 -16t18.5 -4.5zM272 378q18 31 8 66h-59l2 -2q29 -30 49 -64zM512 500q16 0 33 -7t26 -21q7 -14 -3.5 -21t-22.5 -7h-178q25 -78 -33.5 -133.5t-137.5 -58.5
q-44 1 -87 27.5t-62 66.5q-18 48 3 98h-30q-15 0 -32 6.5t-26 20.5q-7 15 3.5 22t22.5 7h524zM216 190l-16 -12l-27 -16q-26 -11 -45 -29q2 0 4 -1q47 -12 86 -38q-5 48 -2 96zM316 236q38 -2 78 -15q50 -16 85 -51q30 -33 32.5 -78t-34.5 -76q-33 -22 -75 -9t-60 48
q-16 39 6.5 57.5t60.5 16.5q5 0 11 -1q-3 19 -22 32q-32 21 -71 20q-9 0 -19 2q-6 -61 3 -123q4 -42 5 -84q-2 -19 -23.5 -21t-43.5 8t-24 27v9l-3 4q-16 21 -34 41t-41 30l-49 17q-26 8 -50 18q-5 2 -12.5 7.5t-12.5 12.5t-1 14q28 42 74 63l12 8q36 22 66 50q24 21 50 40
q9 5 22 4q7 3 19 3q23 -1 42.5 -13.5t15.5 -29.5q-4 -16 -7 -31z" />
    <glyph glyph-name="bn_ss_k_ra" horiz-adv-x="560" 
d="M380 131q0 -56 -7 -110q-5 -47 -6 -78v-4q2 -6 3 -13q1 -18 -20 -20.5t-44 7.5t-27 27q-5 25 -33.5 37t-54.5 17q-5 1 -9 2q-57 13 -116 20q-24 4 -37 18.5t-8 26.5t35 9q92 -9 180 -37q22 -6 44 -16q1 13 3 27q3 25 4 49l2 20q3 33 3 70q-1 32 -11 58q-1 -1 -2 -1
q-42 -8 -75 -33q-17 -14 -28 -35q-2 -4 -3 -7l1 1q12 14 22 30q11 13 34.5 9t40.5 -17.5t8 -30.5q-20 -32 -49 -57.5t-69 -20.5q-36 5 -60.5 27.5t-21.5 61.5q11 61 62.5 92.5t110.5 39.5q74 8 101 -35q20 -33 26 -79q34 -2 69 -13q43 -14 74 -44q25 -28 27.5 -66t-28.5 -64
q-30 -21 -69.5 -9t-56.5 44q-14 34 6.5 50.5t53.5 14.5h3q-3 10 -14 18q-22 15 -50 13q-7 0 -14 1zM204 309q16 5 31 12q-11 9 -13 20q-11 51 -50 86q-13 -17 -19.5 -40.5t2.5 -39.5q1 0 1 -1q5 -7 12.5 -16.5t17 -16t18.5 -4.5zM295 378q18 31 8 66h-59l2 -2q29 -30 49 -64
zM540 500q16 0 33 -7t26 -21q7 -14 -3.5 -21t-22.5 -7h-183q25 -78 -33.5 -133.5t-137.5 -58.5q-44 1 -87 27.5t-62 66.5q-18 48 3 98h-53q-15 0 -32 6.5t-26 20.5q-7 15 3.5 22t22.5 7h552z" />
    <glyph glyph-name="bn_ss_tta" horiz-adv-x="476" 
d="M162 309q16 5 31 12q-11 9 -13 20q-11 51 -50 86q-13 -17 -19.5 -40.5t2.5 -39.5q1 0 1 -1q5 -7 12.5 -16.5t17 -16t18.5 -4.5zM253 378q18 31 8 66h-59l2 -2q29 -30 49 -64zM332 330l-10 -15q-46 -64 -78 -143q-30 -74 4 -140q13 5 25 13q33 20 60 48q21 20 29 47v3
q4 13 5 25q-29 -6 -55 12q-6 4 -11.5 11.5t-5 15t10.5 11.5q71 24 119.5 -10t20.5 -111q-22 -47 -73 -84t-102 -43q-59 -2 -93 39t-38 96q-2 67 30 131l8 16h-1q-44 1 -87 27.5t-62 66.5q-18 48 3 98h-11q-15 0 -32 6.5t-26 20.5q-7 15 3.5 22t22.5 7h303l4 12q8 21 10 43
q1 9 3 12q1 2 1 3t-1.5 1h-4.5q-18 0 -37 -1q-64 -6 -128 5q-32 6 -64 19t-51 40q-15 22 -17.5 47t19.5 43q11 7 28.5 5t34 -9.5t23.5 -17t-3 -17.5q-14 -12 -11 -29.5t21 -23.5q26 -7 52 -8q28 -1 55 1q34 4 68 0q62 -4 97 -53q9 -16 7.5 -35t-7.5 -37h66q16 0 33 -7
t26 -21q7 -14 -3.5 -21t-22.5 -7h-141q21 -64 -16 -114z" />
    <glyph glyph-name="bn_ss_tt_ra" horiz-adv-x="476" 
d="M456 500v0q16 0 33 -7t26 -21q7 -14 -3.5 -21t-22.5 -7h-141q25 -78 -33.5 -133.5t-137.5 -58.5q-44 1 -87 27.5t-62 66.5q-18 48 3 98h-11q-15 0 -32 6.5t-26 20.5q-7 15 3.5 22t22.5 7h468zM162 309v0q16 5 31 12q-11 9 -13 20q-11 51 -50 86q-13 -17 -19.5 -40.5
t2.5 -39.5q1 0 1 -1q5 -7 12.5 -16.5t17 -16t18.5 -4.5zM253 378v0q18 31 8 66h-59l2 -2q29 -30 49 -64zM248 32q13 5 25 13q33 20 60 48q21 20 29 47v3q4 13 5 25q-29 -6 -55 12q-6 4 -11.5 11.5t-5 15t10.5 11.5q71 24 119.5 -10t20.5 -111q-22 -47 -73 -84t-102 -43
q-59 -2 -93 39t-38 96q-2 67 29.5 130.5t70.5 119.5l11 17q11 13 34.5 9.5t40.5 -17.5t8 -31l-12 -18q-46 -64 -78 -143q-30 -74 4 -140zM291 500l4 12q8 21 10 43q1 9 3 12q1 2 1 3t-1.5 1h-4.5q-18 0 -37 -1q-64 -6 -128 5q-32 6 -64 19t-51 40q-15 22 -17.5 47t19.5 43
q11 7 28.5 5t34 -9.5t23.5 -17t-3 -17.5q-14 -12 -11 -29.5t21 -23.5q26 -7 52 -8q28 -1 55 1q34 4 68 0q62 -4 97 -53q9 -16 7.5 -35t-7.5 -37h-99zM325 -73v86l91 87v-234q0 -20 -23 -22t-45 9q-20 9 -23 22l-20 7q-46 19 -89.5 22t-69.5 -46q-10 -16 -34 -14t-43 14
t-13 28q42 77 112.5 74.5t143.5 -29.5q7 -2 13 -4z" />
    <glyph glyph-name="bn_ss_ttha" horiz-adv-x="532" 
d="M408 153q22 60 2.5 114.5t-59.5 102.5q-25 -69 -99 -101q0 -2 -1 -3q-9 -19 -19.5 -53t-9 -65.5t28.5 -44.5q46 -18 91.5 -8.5t65.5 58.5zM113 347q1 0 1 -1q5 -7 12.5 -16.5t17 -16t18.5 -4.5q16 5 31 12q-11 9 -13 20q-11 51 -50 86q-13 -17 -19.5 -40.5t2.5 -39.5z
M253 378q17 31 8 66h-59l2 -2q28 -30 49 -64zM320 500h192q16 0 33 -7t26 -21q7 -14 -3.5 -21t-22.5 -7h-171q42 -43 80 -94t53 -106q13 -60 -8 -116t-80 -81q-56 -21 -122 -10t-115 45q-42 32 -46.5 79t11.5 95q-38 9 -71 33t-48 57q-18 48 3 98h-11q-15 0 -32 6.5
t-26 20.5q-8 15 3 22t23 7h246l-11 13l-25 28q-29 34 -29 78q0 51 33.5 81t82.5 29q17 -1 33.5 -7t25.5 -21q7 -13 -3 -20.5t-23 -7.5q-26 0 -41 -19t-17 -44q-3 -32 15 -54q23 -30 45 -56z" />
    <glyph glyph-name="bn_ss_nna" horiz-adv-x="591" 
d="M184 258l-12 -21q-10 -18 -25 -36q-28 -33 -37 -70q-1 -15 14.5 -22.5t38 -9.5t41.5 -3q12 0 18 -1h4q36 -3 72 -11v72q-4 3 -6 7q-16 33 -44 62t-64 33zM389 429q53 7 107 -21q62 -32 74 -97q6 -64 -40 -92q16 -13 22 -32q5 -17 -1.5 -33t-18.5 -27q-42 -37 -95 -36
q-25 0 -48 6v-62q0 -10 -7.5 -15t-20.5 -7q-36 -5 -63 20q2 -2 1.5 -2.5t-3 0t-4.5 1.5q-3 1 -5 2q-19 3 -38 5q-13 2 -26 3q-29 3 -58 7q-36 5 -76.5 18.5t-60.5 45.5q-16 33 -1 66.5t39 62.5q12 16 20 31q4 6 12 16q14 20 27 43.5t10 39.5q-7 17 -29.5 30.5t-39.5 17.5
q-9 2 -20 8.5t-16 15.5h-10q-16 0 -33 7t-26 21q-7 14 3.5 21t23.5 7h351q17 0 33.5 -12t16.5 -26v-33zM389 201v-51q3 -1 6 -3q-4 2 1 -1h1q2 0 3 -1h2h4.5t3.5 0.5l6 1.5q1 1 2 1q7 2 17 7.5t17 12.5q13 14 11 27q-38 -4 -74 6zM298 444h-157q35 -18 61.5 -44t22.5 -56
q-5 -20 -14 -38q48 -14 87 -46v184zM389 319v-53q11 -18 28 -17q9 6 21 5q20 10 32.5 29.5t9.5 41.5q-3 15 -13.5 32t-28.5 18q-25 -1 -36 -21q-10 -16 -13 -35z" />
    <glyph glyph-name="bn_ss_pha" horiz-adv-x="665" 
d="M171 252q-41 3 -81 28q-43 26 -62 66q-18 48 3 98h-11q-15 0 -32 6.5t-26 20.5q-7 15 3.5 22t22.5 7h657q17 0 33.5 -7t25.5 -21q7 -14 -3 -21t-23 -7h-330q25 -78 -33 -133q-3 -3 -6 -5q-9 -21 -22 -39q-9 -15 -17 -30q-10 -18 -25 -36q-28 -33 -37 -70
q-1 -15 14.5 -22.5t38 -9.5t41.5 -3q12 0 18 -1h4q36 -3 72 -11v281q0 13 15 29q26 29 67.5 28t74.5 -19q74 -41 90 -127q5 -33 -3.5 -65t-48.5 -34q-85 5 -84 88q2 12 16 14.5t32 -2.5q-2 20 -7 39q-3 14 -13 28t-21 21q-5 3 -18 -8q-9 -7 -9 -12v-310q0 -10 -7.5 -15
t-20.5 -7q-36 -5 -63 20q2 -2 1.5 -2.5t-3 0t-4.5 1.5q-3 1 -5 2q-19 3 -38 5q-13 2 -26 3q-29 3 -58 7q-36 5 -76.5 18.5t-60.5 45.5q-16 33 -1 66.5t39 62.5q4 5 7 10zM162 309v0q16 5 31 12q-11 9 -13 20q-11 51 -50 86q-13 -17 -19.5 -40.5t2.5 -39.5q1 0 1 -1
q5 -7 12.5 -16.5t17 -16t18.5 -4.5zM253 378v0q18 31 8 66h-59l2 -2q29 -30 49 -64z" />
    <glyph glyph-name="bn_ss_ba" horiz-adv-x="376" 
d="M162 309q16 5 31 12q-11 9 -13 20q-11 51 -50 86q-13 -17 -19.5 -40.5t2.5 -39.5q1 0 1 -1q5 -7 12.5 -16.5t17 -16t18.5 -4.5zM253 378q18 31 8 66h-59l2 -2q29 -30 49 -64zM356 500q16 0 33 -7t26 -21q7 -14 -3.5 -21t-22.5 -7h-41q25 -78 -33.5 -133.5t-137.5 -58.5
q-44 1 -87 27.5t-62 66.5q-18 48 3 98h-11q-15 0 -32 6.5t-26 20.5q-7 15 3.5 22t22.5 7h368zM216 190l-16 -12l-27 -16q-26 -11 -45 -29q2 0 4 -1q47 -12 86 -38q-5 48 -2 96zM246 307q7 3 19 3q23 -1 42.5 -13.5t15.5 -29.5q-27 -102 -12 -208q4 -42 5 -84
q-2 -19 -23.5 -21t-43.5 8t-24 27v9l-3 4q-16 21 -34 41t-41 30l-49 17q-26 8 -50 18q-5 2 -12.5 7.5t-12.5 12.5t-1 14q28 42 74 63l12 8q36 22 66 50q24 21 50 40q9 5 22 4z" />
    <glyph glyph-name="bn_ss_ma" horiz-adv-x="526" 
d="M204 119q-7 -12 -3 -25q1 -1 1 -2v-1q2 3 4 5l2 2q6 16 9 33q-8 -5 -13 -12zM506 500q16 0 33 -7t26 -21q7 -14 -4 -21t-22 -7h-58q5 -6 5 -13v-410q0 -20 -22.5 -21.5t-45 9t-22.5 26.5v20q-1 2 -2 3q-29 46 -84 75q1 -26 -5 -49t-24 -38q-64 -42 -131 2
q-25 18 -37.5 51t8.5 60q40 37 96 39q-3 30 -10 57q-15 -2 -30 -3q-44 1 -87 27.5t-62 66.5q-18 48 3 98h-11q-15 0 -32 6.5t-26 20.5q-7 15 3.5 22t22.5 7h518zM348 444q25 -78 -33 -133q-16 -15 -32 -26q18 -40 21 -86v-4q1 -4 1 -7q49 -15 91 -44v300h-48zM162 309v0
q16 5 31 12q-11 9 -13 20q-11 51 -50 86q-13 -17 -19.5 -40.5t2.5 -39.5q1 0 1 -1q5 -7 12.5 -16.5t17 -16t18.5 -4.5zM253 378v0q18 31 8 66h-59l2 -2q29 -30 49 -64z" />
    <glyph glyph-name="bn_ss_ra" horiz-adv-x="429" 
d="M184 258l-12 -21q-10 -18 -25 -36q-28 -33 -37 -70q-1 -15 14.5 -22.5t38 -9.5t41.5 -3q12 0 18 -1h4q36 -3 72 -11v72q-4 3 -6 7q-16 33 -44 62t-64 33zM298 260v184h-157q35 -18 61.5 -44t22.5 -56q-5 -20 -14 -38q48 -14 87 -46zM298 30q-1 0 -1 1q-3 0 -5 1
q-3 1 -5 2q-19 3 -38 5q-13 2 -26 3q-29 3 -58 7q-36 5 -76.5 18.5t-60.5 45.5q-16 33 -1 66.5t39 62.5q12 16 20 31q4 6 12 16q14 20 27 43.5t10 39.5q-7 17 -29.5 30.5t-39.5 17.5q-9 2 -20 8.5t-16 15.5h-10q-16 0 -33 7t-26 21q-7 14 3.5 21t23.5 7h421q17 0 33.5 -7
t25.5 -21q7 -14 -3 -21t-23 -7h-53v-509q0 -20 -23 -22t-45 9q-20 9 -23 22l-20 7q-46 19 -89.5 22t-69.5 -46q-10 -16 -34 -14t-43 14t-13 28q42 77 112.5 74.5t143.5 -29.5q7 -2 13 -4v34z" />
    <glyph glyph-name="bn_s_ka" horiz-adv-x="542" 
d="M267 353q40 34 63 91h-104q17 -14 27 -33q17 -30 14 -58zM581 472q7 -14 -4 -21t-23 -7h-126q0 -4 -1 -7q-39 -117 -134 -161.5t-212 -42.5q-16 -1 -32.5 6t-25.5 21q-7 14 3 21t23 7q51 0 98 10q13 24 23 53.5t3 53.5t-44 30q-13 2 -28 9h-81q-16 0 -33 6.5t-26 20.5
q-7 15 4 22t22 7h535q15 0 32.5 -7t26.5 -21zM236 190l-16 -12l-27 -16q-26 -11 -45 -29q2 0 4 -1q47 -12 86 -38q-5 48 -2 96zM336 236q38 -2 78 -15q50 -16 85 -51q30 -33 32.5 -78t-34.5 -76q-33 -22 -75 -9t-60 48q-16 39 6.5 57.5t60.5 16.5q5 0 11 -1q-3 19 -22 32
q-32 21 -71 20q-9 0 -19 2q-6 -61 3 -123q4 -42 5 -84q-2 -19 -23.5 -21t-43.5 8t-24 27v9l-3 4q-16 21 -34 41t-41 30l-49 17q-26 8 -50 18q-5 2 -12.5 7.5t-12.5 12.5t-1 14q28 42 74 63l12 8q36 22 66 50q24 21 50 40q9 5 22 4q7 3 19 3q23 -1 42.5 -13.5t15.5 -29.5
q-4 -16 -7 -31z" />
    <glyph glyph-name="bn_s_k_ra" horiz-adv-x="610" 
d="M430 136q0 -56 -7 -110q-5 -47 -6 -78v-4q2 -6 3 -13q1 -18 -20 -20.5t-44 7.5t-27 27q-5 25 -33.5 37t-54.5 17q-5 1 -9 2q-57 13 -116 20q-24 4 -37 18.5t-8 26.5t35 9q92 -9 180 -37q22 -6 44 -16q1 13 3 27q3 25 4 49l2 20q3 33 3 70q-1 32 -11 58q-1 -1 -2 -1
q-42 -8 -75 -33q-17 -14 -28 -35q-2 -4 -3 -7l1 1q12 14 22 30q11 13 34.5 9t40.5 -17.5t8 -30.5q-20 -32 -49 -57.5t-69 -20.5q-36 5 -60.5 27.5t-21.5 61.5q11 61 62.5 92.5t110.5 39.5q74 8 101 -35q20 -33 26 -79q34 -2 69 -13q43 -14 74 -44q25 -28 27.5 -66t-28.5 -64
q-30 -21 -69.5 -9t-56.5 44q-14 34 6.5 50.5t53.5 14.5h3q-3 10 -14 18q-22 15 -50 13q-7 0 -14 1zM267 353q40 34 63 91h-104q17 -14 27 -33q17 -30 14 -58zM649 472q7 -14 -4 -21t-23 -7h-194q0 -4 -1 -7q-39 -117 -134 -161.5t-212 -42.5q-16 -1 -32.5 6t-25.5 21
q-7 14 3 21t23 7q51 0 98 10q13 24 23 53.5t3 53.5t-44 30q-13 2 -28 9h-81q-16 0 -33 6.5t-26 20.5q-7 15 4 22t22 7h603q15 0 32.5 -7t26.5 -21z" />
    <glyph glyph-name="bn_s_kha" horiz-adv-x="602" 
d="M582 500q15 0 32.5 -6.5t26.5 -20.5q7 -14 -4 -21.5t-23 -7.5h-52v-536q0 -14 -12 -19t-28 -2q-30 1 -50 20q-85 103 -214 124q-21 3 -34 15t-12.5 24t19.5 15q2 2 6 4q33 13 66 35t44 59q14 67 -36 85q20 -45 -4 -86t-82 -50q-37 -4 -64 20q-9 30 -6.5 31t17.5 3
q21 3 39.5 19.5t23 38t-17.5 39.5q-14 10 -15.5 23t17.5 17q64 11 131.5 -12t88.5 -91q11 -55 -17 -94t-73 -64q66 -27 122 -72v555q0 20 22.5 21.5t45.5 -8.5t23 -27v-31h20zM267 353q40 34 63 91h-104q17 -14 27 -33q17 -30 14 -58zM427 472q7 -14 0 -35
q-39 -117 -134 -161.5t-212 -42.5q-16 -1 -32.5 6t-25.5 21q-7 14 3 21t23 7q51 0 98 10q13 24 23 53.5t3 53.5t-44 30q-13 2 -28 9h-81q-16 0 -33 6.5t-26 20.5q-7 15 4 22t22 7h381q15 0 32.5 -7t26.5 -21z" />
    <glyph glyph-name="bn_s_tta" horiz-adv-x="512" 
d="M267 353q40 34 63 91h-104q17 -14 27 -33q17 -30 14 -58zM371 335q-1 -1 -1 -2l-12 -18q-46 -64 -78 -143q-30 -74 4 -140q13 5 25 13q33 20 60 48q21 20 29 47v3q4 13 5 25q-29 -6 -55 12q-6 4 -11.5 11.5t-5 15t10.5 11.5q71 24 119.5 -10t20.5 -111q-22 -47 -73 -84
t-102 -43q-59 -2 -93 39t-38 96q-2 67 30 131q2 5 5 11q-61 -15 -130 -14q-16 -1 -32.5 6t-25.5 21q-7 14 3 21t23 7q51 0 98 10q13 24 23 53.5t3 53.5t-44 30q-13 2 -28 9h-81q-16 0 -33 6.5t-26 20.5q-7 15 4 22t22 7h360l4 12q8 21 10 43q1 9 3 12q1 2 1 3t-1.5 1h-4.5
q-18 0 -37 -1q-64 -6 -128 5q-32 6 -64 19t-51 40q-15 22 -17.5 47t19.5 43q11 7 28.5 5t34 -9.5t23.5 -17t-3 -17.5q-14 -12 -11 -29.5t21 -23.5q26 -7 52 -8q28 -1 55 1q34 4 68 0q62 -4 97 -53q9 -16 7.5 -35t-7.5 -37h46q15 0 32.5 -7t26.5 -21q7 -14 -4 -21t-23 -7h-92
q-23 -66 -61 -109z" />
    <glyph glyph-name="bn_s_tt_ra" horiz-adv-x="512" 
d="M267 353q40 34 63 91h-104q17 -14 27 -33q17 -30 14 -58zM347 500l4 12q8 21 10 43q1 9 3 12q1 2 1 3t-1.5 1h-4.5q-18 0 -37 -1q-64 -6 -128 5q-32 6 -64 19t-51 40q-15 22 -17.5 47t19.5 43q11 7 28.5 5t34 -9.5t23.5 -17t-3 -17.5q-14 -12 -11 -29.5t21 -23.5
q26 -7 52 -8q28 -1 55 1q34 4 68 0q62 -4 97 -53q9 -16 7.5 -35t-7.5 -37h46q15 0 32.5 -7t26.5 -21q7 -14 -4 -21t-23 -7h-92q-23 -66 -61 -109q-1 -1 -1 -2l-12 -18q-46 -64 -78 -143q-30 -74 4 -140q13 5 25 13q33 20 60 48q21 20 29 47v3q4 13 5 25q-29 -6 -55 12
q-6 4 -11.5 11.5t-5 15t10.5 11.5q71 24 119.5 -10t20.5 -111q-11 -24 -30 -45v-186q0 -20 -23 -22t-45 9q-20 9 -23 22l-20 7q-46 19 -89.5 22t-69.5 -46q-10 -16 -34 -14t-43 14t-13 28q42 77 112.5 74.5t143.5 -29.5q7 -2 13 -4v58q-27 -12 -54 -15q-59 -2 -93 39t-38 96
q-2 67 30 131q2 5 5 11q-61 -15 -130 -14q-16 -1 -32.5 6t-25.5 21q-7 14 3 21t23 7q51 0 98 10q13 24 23 53.5t3 53.5t-44 30q-13 2 -28 9h-81q-16 0 -33 6.5t-26 20.5q-7 15 4 22t22 7h360z" />
    <glyph glyph-name="bn_s_ta" horiz-adv-x="498" 
d="M267 353q40 34 63 91h-104q17 -14 27 -33q17 -30 14 -58zM537 472q7 -14 -4 -21t-23 -7h-82q0 -4 -1 -7q-39 -117 -134 -161.5t-212 -42.5q-16 -1 -32.5 6t-25.5 21q-7 14 3 21t23 7q51 0 98 10q13 24 23 53.5t3 53.5t-44 30q-13 2 -28 9h-81q-16 0 -33 6.5t-26 20.5
q-7 15 4 22t22 7h491q15 0 32.5 -7t26.5 -21zM320 45q37 18 55 61q3 6 5 13q-54 10 -94 41.5t-25 89.5q20 57 69 55t93.5 -39t51.5 -84q16 -105 -63 -173q-38 -27 -88 -32q-39 -4 -88 11q-67 21 -104.5 74.5t-61.5 118.5q-7 21 12 26t42.5 -2.5t30.5 -22.5q10 -27 33 -74
t55 -65.5t77 2.5zM351 223q-12 -50 37 -53q1 27 -12 50q-8 12 -18 24q-5 -10 -7 -21z" />
    <glyph glyph-name="bn_s_t_ra" horiz-adv-x="465" 
d="M430 136q0 -56 -7 -110q-5 -47 -6 -78v-4q2 -6 3 -13q1 -18 -20 -20.5t-44 7.5t-27 27q-5 25 -33.5 37t-54.5 17q-5 1 -9 2q-57 13 -116 20q-24 4 -37 18.5t-8 26.5t35 9q92 -9 180 -37q22 -6 44 -16q1 13 3 27q3 25 4 49l2 20q3 33 3 70q-1 32 -11 58q-1 -1 -2 -1
q-42 -8 -75 -33q-17 -14 -28 -35q-2 -4 -3 -7l1 1q12 14 22 30q11 13 34.5 9t40.5 -17.5t8 -30.5q-20 -32 -49 -57.5t-69 -20.5q-36 5 -60.5 27.5t-21.5 61.5q11 61 62.5 92.5t110.5 39.5q74 8 101 -35q20 -33 25 -79q2 -26 2 -55zM267 353q40 34 63 91h-104q17 -14 27 -33
q17 -30 14 -58zM504 472q7 -14 -4 -21t-23 -7h-49q0 -4 -1 -7q-39 -117 -134 -161.5t-212 -42.5q-16 -1 -32.5 6t-25.5 21q-7 14 3 21t23 7q51 0 98 10q13 24 23 53.5t3 53.5t-44 30q-13 2 -28 9h-81q-16 0 -33 6.5t-26 20.5q-7 15 4 22t22 7h458q15 0 32.5 -7t26.5 -21z
" />
    <glyph glyph-name="bn_s_tha" horiz-adv-x="484" 
d="M302 246q9 8 15 19q4 12 5 24q-2 -1 -5 -3q-22 -16 -20 -44q2 2 5 4zM514 -17q27 -15 24 -27.5t-22 -17t-41 5.5q-48 25 -95 55q-69 46 -145 77q-14 6 -25.5 18.5t-10 23t26.5 10.5q40 0 85 16t61 52l-1 -1q-1 -1 -3 -2q-55 -31 -112 -4q-45 20 -49.5 57t20.5 68t70 34
q38 0 76 -18q27 -6 38 -23q60 -47 52 -123q-10 -46 -43 -70.5t-77 -32.5l69 -41q50 -30 102 -57zM267 353q40 34 63 91h-104q17 -14 27 -33q17 -30 14 -58zM523 472q7 -14 -4 -21t-23 -7h-68q0 -4 -1 -7q-39 -117 -134 -161.5t-212 -42.5q-16 -1 -32.5 6t-25.5 21
q-7 14 3 21t23 7q51 0 98 10q13 24 23 53.5t3 53.5t-44 30q-13 2 -28 9h-81q-16 0 -33 6.5t-26 20.5q-7 15 4 22t22 7h477q15 0 32.5 -7t26.5 -21z" />
    <glyph glyph-name="bn_s_na" horiz-adv-x="438" 
d="M267 353q40 34 63 91h-104q17 -14 27 -33q17 -30 14 -58zM291 275q-94 -44 -210 -42q-16 -1 -32.5 6t-25.5 21q-7 14 3 21t23 7q51 0 98 10q13 24 23 53.5t3 53.5t-44 30q-13 2 -28 9h-81q-16 0 -33 6.5t-26 20.5q-7 15 4 22t22 7h431q15 0 32.5 -7t26.5 -21
q7 -14 -4 -21t-23 -7h-22q0 -4 -1 -7q-17 -51 -44 -88q-6 -159 15 -328q2 -19 -19.5 -21t-45 7.5t-25.5 26.5l-6 48q-6 4 -9 9q-9 16 -29.5 36t-44 30t-42.5 -6q-17 -16 -25 -37.5t-0.5 -36t38.5 -9.5q17 2 34.5 -3t29.5 -17q10 -11 7 -21t-18 -13q-41 -8 -84.5 1t-75.5 38
q-30 30 -27 70.5t38 66.5q48 32 103 24q52 -8 98 -39q-3 43 -4 85v15z" />
    <glyph glyph-name="bn_s_pha" horiz-adv-x="727" 
d="M234 253q-71 -21 -153 -20q-16 -1 -32.5 6t-25.5 21q-7 14 3 21t23 7q51 0 98 10q13 24 23 53.5t3 53.5t-44 30q-13 2 -28 9h-81q-16 0 -33 6.5t-26 20.5q-7 15 4 22t22 7h720q17 0 33.5 -7t25.5 -21q7 -14 -3 -21t-23 -7h-312q0 -4 -1 -7q-16 -48 -41 -84q0 -4 -1 -9
q-11 -42 -36 -77q-9 -15 -17 -30q-10 -18 -25 -36q-28 -33 -37 -70q-1 -15 14.5 -22.5t38 -9.5t41.5 -3q12 0 18 -1h4q36 -3 72 -11v281q0 13 15 29q26 29 67.5 28t74.5 -19q74 -41 90 -127q5 -33 -3.5 -65t-48.5 -34q-85 5 -84 88q2 12 16 14.5t32 -2.5q-2 20 -7 39
q-3 14 -13 28t-21 21q-5 3 -18 -8q-9 -7 -9 -12v-310q0 -10 -7.5 -15t-20.5 -7q-36 -5 -63 20q2 -2 1.5 -2.5t-3 0t-4.5 1.5q-3 1 -5 2q-19 3 -38 5q-13 2 -26 3q-29 3 -58 7q-36 5 -76.5 18.5t-60.5 45.5q-16 33 -1 66.5t39 62.5q4 6 8 11zM267 353q40 34 63 91h-104
q17 -14 27 -33q17 -30 14 -58z" />
    <glyph glyph-name="bn_s_ba" horiz-adv-x="438" 
d="M276 190l-16 -12l-27 -16q-26 -11 -45 -29q2 0 4 -1q47 -12 86 -38q-5 48 -2 96zM306 307q7 3 19 3q23 -1 42.5 -13.5t15.5 -29.5q-27 -102 -12 -208q4 -42 5 -84q-2 -19 -23.5 -21t-43.5 8t-24 27v9l-3 4q-16 21 -34 41t-41 30l-49 17q-26 8 -50 18q-5 2 -12.5 7.5
t-12.5 12.5t-1 14q28 42 74 63l12 8q36 22 66 50q24 21 50 40q9 5 22 4zM267 353q40 34 63 91h-104q17 -14 27 -33q17 -30 14 -58zM477 472q7 -14 -4 -21t-23 -7h-22q0 -4 -1 -7q-39 -117 -134 -161.5t-212 -42.5q-16 -1 -32.5 6t-25.5 21q-7 14 3 21t23 7q51 0 98 10
q13 24 23 53.5t3 53.5t-44 30q-13 2 -28 9h-81q-16 0 -33 6.5t-26 20.5q-7 15 4 22t22 7h431q15 0 32.5 -7t26.5 -21z" />
    <glyph glyph-name="bn_s_ma" horiz-adv-x="588" 
d="M266 119q-7 -12 -3 -25q1 -1 1 -2v-1q2 3 4 5l2 2q6 16 9 33q-8 -5 -13 -12zM568 500q16 0 33 -7t26 -21q7 -14 -4 -21t-22 -7h-58q5 -6 5 -13v-410q0 -20 -22.5 -21.5t-45 9t-22.5 26.5v20q-1 2 -2 3q-29 46 -84 75q1 -26 -5 -49t-24 -38q-64 -42 -131 2
q-25 18 -37.5 51t8.5 60q40 37 96 39q-4 35 -12 65v1q-85 -33 -186 -31q-16 -1 -32.5 6t-25.5 21q-7 14 3 21t23 7q51 0 98 10q13 24 23 53.5t3 53.5t-44 30q-13 2 -28 9h-81q-16 0 -33 6.5t-26 20.5q-7 15 4 22t22 7h581zM458 444h-30q0 -4 -1 -7q-29 -88 -90 -135
q25 -47 29 -103v-4q1 -4 1 -7q49 -15 91 -44v300zM267 353q40 34 63 91h-104q17 -14 27 -33q17 -30 14 -58z" />
    <glyph glyph-name="bn_s_ra" horiz-adv-x="472" 
d="M194 444q-4 -2 -11 -4q-24 -7 -42 -33.5t-25 -48.5v-2q-3 -9 -5 -19t0.5 -18.5t13.5 -10.5q8 -2 16 -3q23 -3 45 -10q4 -1 7 -3q73 2 135 -39q3 -2 5 -4q-2 98 17 195h-156zM344 36q-1 55 -4 108q-17 35 -47 64q-7 7 -15 12q11 -26 5 -59q-27 -91 -111.5 -114.5
t-138.5 64.5q-8 20 10 24.5t42 -2.5t33 -21l2 -4q2 -5 5 -9q7 3 13 7q31 20 46 53q6 15 10 32.5t-4 33.5t-23 21.5t-31 7.5q-13 2 -26 5q-47 13 -73.5 44.5t-9.5 81.5q11 32 32 59h-39q-17 0 -33.5 7t-25.5 21q-7 14 3 21t23 7h465q16 0 33 -6.5t26 -20.5q7 -14 -3.5 -21
t-23.5 -8h-43q2 -6 1 -13q-29 -142 -13 -289q5 -60 6 -120v-90q0 -20 -23 -22t-45 9q-20 9 -23 22l-20 7q-46 19 -89.5 22t-69.5 -46q-10 -16 -34 -14t-43 14t-13 28q42 77 112.5 74.5t143.5 -29.5l14 -4z" />
    <glyph glyph-name="bn_s_la" horiz-adv-x="438" 
d="M267 353q40 34 63 91h-104q17 -14 27 -33q17 -30 14 -58zM294 184q-2 38 -3 76v15q-94 -44 -210 -42q-16 -1 -32.5 6t-25.5 21q-7 14 3 21t23 7q51 0 98 10q13 24 23 53.5t3 53.5t-44 30q-13 2 -28 9h-81q-16 0 -33 6.5t-26 20.5q-7 15 4 22t22 7h431q15 0 32.5 -7
t26.5 -21q7 -14 -4 -21t-23 -7h-22q0 -4 -1 -7q-17 -51 -44 -88q-6 -159 15 -328q2 -19 -19.5 -21t-45 7.5t-25.5 26.5l-6 46q-18 15 -40 27q-2 -26 -1 -43q0 -16 -14.5 -20t-33.5 0.5t-32 15.5q-8 4 -14 10l-12 12q0 -29 -8 -56q-7 -17 -30.5 -15.5t-43.5 13.5t-16 29
q10 37 9 76q0 19 1 37q1 6 7.5 9.5t11.5 4.5q51 5 91 -27q6 22 13 43q7 14 23.5 14.5t29.5 -3.5q22 -8 51 -23z" />
    <glyph glyph-name="bn_ha_ukaar" horiz-adv-x="405" 
d="M385 500q15 0 32.5 -7t26.5 -21q7 -14 -4 -21t-23 -7h-397q-15 0 -32 6.5t-26 21.5q-8 14 3 21t23 7h397zM412 -40v0q27 -15 24 -27.5t-22 -17t-40 4.5q-59 31 -114 67q-82 54 -173 92q-15 5 -26 17.5t-9.5 23t26.5 11.5q75 6 144 40q4 2 8 3q14 6 28.5 14t23.5 20
q16 20 11 46v0q-1 -1 -2 -1q-10 -4 -32 -1t-38 12.5t-10 26.5q3 6 7 12q7 13 12 27.5t1 28.5q-2 5 -3 8q0 1 -0.5 1.5l-1 1t-1.5 -0.5h-4q-29 -2 -56 -16q21 -15 30 -38q8 -23 5 -52t-23 -44q-65 -35 -119 1t-30 111q6 15 15 27q-6 11 0.5 19.5t27.5 8.5q63 44 137 38
q56 -5 95 -44q27 -32 17 -66q28 -6 48 -34q21 -32 15.5 -67t-35.5 -59q-66 -48 -156 -68q51 -28 100 -58q58 -36 120 -68z" />
    <glyph glyph-name="bn_ha_rikaar" horiz-adv-x="496" 
d="M160 331q11 18 15 39q2 16 3 33q-17 1 -32 -13q-17 -16 -24.5 -41t6.5 -46h1q0 1 1 1q0 1 2 2l10 7.5t11 9.5t7 8zM352 499q3 1 7 1h117q15 0 32.5 -6.5t26.5 -20.5q7 -15 -4 -22t-23 -7h-117q-4 0 -9 1q-4 -1 -7 -1h-108l1 -7q1 -8 1 -17v-6q55 -38 69 -94q5 1 11 2
q22 4 43 9q18 4 42 -5t29 -29q3 -27 -4 -63q-5 -29 -5.5 -55.5t13.5 -45.5q16 -21 1.5 -28.5t-39 -3.5t-36.5 17q-22 29 -24.5 59t2.5 61l2 24h-2q-5 -1 -11 -2q-9 -2 -18 -2q-1 -6 -2 -13q-16 -60 -63 -90t-106 -39q57 -31 112 -65q66 -41 135 -77q27 -15 24.5 -27.5
t-21.5 -17t-41 4.5q-66 35 -129 75q-93 62 -195 104q-14 6 -25.5 18.5t-10 23t26.5 10.5q42 -1 88 7t78 37q41 41 38 94q-6 -12 -17 -21q-65 -56 -144 -21q-64 35 -59.5 92.5t56.5 90.5h-67q-15 0 -32 6.5t-26 21.5q-8 14 3 21t23 7h355q4 0 9 -1z" />
    <glyph glyph-name="bn_h_nna" horiz-adv-x="363" 
d="M160 331q11 18 15 39q2 16 3 33q-17 1 -32 -13q-17 -16 -24.5 -41t6.5 -46h1q0 1 1 1q0 1 2 2l10 7.5t11 9.5t7 8zM222 28q-80 49 -166 85q-14 6 -25.5 18.5t-10 23t26.5 10.5q42 -1 88 7t78 37q41 41 38 94q-6 -12 -17 -21q-65 -56 -144 -21q-64 35 -59.5 92.5
t56.5 90.5h-67q-15 0 -32 6.5t-26 21.5q-8 14 3 21t23 7h355q15 0 32.5 -7t26.5 -21q7 -14 -4 -21t-23 -7h-108l1 -7q1 -8 1 -17v-6q88 -62 71 -169q-16 -60 -63 -90t-106 -39q57 -31 112 -65q66 -41 135 -77q27 -15 24.5 -27.5t-21.5 -17t-41 4.5l-67 37v-105
q0 -20 -23 -22t-45.5 8.5t-22.5 26.5v41q-3 2 -4 5q-10 15 -30 35.5t-44 30t-43 -6.5q-17 -15 -25 -36.5t0 -36.5t39 -10q16 3 33.5 -2t29.5 -17q10 -11 7 -21.5t-17 -13.5q-42 -7 -85 2t-75 37q-30 31 -27.5 71t37.5 67q48 31 102 23t102 -40v21z" />
    <glyph glyph-name="bn_h_na" horiz-adv-x="541" 
d="M160 331q11 18 15 39q2 16 3 33q-17 1 -32 -13q-17 -16 -24.5 -41t6.5 -46h1q0 1 1 1q0 1 2 2l10 7.5t11 9.5t7 8zM521 500q16 0 33 -6.5t26 -20.5q7 -14 -4 -21.5t-22 -7.5h-287l1 -7q1 -8 1 -17v-6q51 -36 67 -87q36 10 76 7q58 -6 90 -40q24 -30 17.5 -66t-35.5 -60
q-34 -26 -77 -20q-20 4 -29.5 21t-11.5 36q-1 17 17 28.5t40 14.5q-5 9 -12 15q-11 9 -26 12t-28 3q-10 0 -13 -13q-2 -8 -4 -20q-16 -60 -63 -90t-106 -39q57 -31 112 -65q66 -41 135 -77q27 -15 24.5 -27.5t-21.5 -17t-41 4.5q-66 35 -129 75q-93 62 -195 104
q-14 6 -25.5 18.5t-10 23t26.5 10.5q42 -1 88 7t78 37q41 41 38 94q-6 -12 -17 -21q-65 -56 -144 -21q-64 35 -59.5 92.5t56.5 90.5h-67q-15 0 -32 6.5t-26 21.5q-8 14 3 21t23 7h533z" />
    <glyph glyph-name="bn_h_ma" horiz-adv-x="647" 
d="M193 107q27 -2 36 22q-7 -1 -14 -3q-3 -1 -8 -3.5t-9.5 -6t-6 -6t1.5 -3.5zM248 327q5 -24 2 -51q47 -36 65 -95q1 -1 1 -2v-1q41 -9 78 -27q-1 3 -1 6q-4 67 -5 135q-98 14 -136 33zM390 358l1 11q3 38 10 75h-139q-16 0 -33 -1h-28q28 -34 70 -55q40 -19 119 -30z
M116 263q23 -3 35 12q-5 7 -4 14q-5 0 -10 -2q-3 0 -9 -3.5t-11.5 -8t-6.5 -8t6 -4.5zM479 293q-1 -75 5 -150q4 -61 5 -122q-2 -19 -23.5 -21t-43.5 8t-24 27q0 17 -1 34q-26 43 -75 54q-1 -43 -40 -63q-40 -15 -95.5 -5t-78.5 50q-14 35 6.5 52.5t54 23t59.5 5.5
q-4 18 -12 34q-3 -2 -8 -4q-42 -16 -100 -6t-82 53q-15 37 8 55t59.5 23.5t63.5 5.5q-6 26 -18.5 48t-31.5 30q-7 2 -16 6.5t-16 12.5h-55q-16 0 -33 7t-26 21q-7 14 3 21t23 7h640q17 0 33.5 -6.5t25.5 -21.5q7 -14 -3 -21t-23 -7h-164q1 -3 0 -6q-9 -40 -13 -80q8 1 17 3
q22 4 43 9q18 4 42 -5t29 -29q3 -27 -3 -66q-6 -46 -6.5 -77.5t13.5 -50.5q16 -21 1.5 -28.5t-39 -3.5t-36.5 17q-22 29 -24.5 64t2.5 86l2 24h-2q-5 -1 -11 -2q-15 -4 -32 -6z" />
    <glyph glyph-name="bn_h_ra" horiz-adv-x="363" 
d="M160 331q11 18 15 39q2 16 3 33q-17 1 -32 -13q-17 -16 -24.5 -41t6.5 -46h1q0 1 1 1q0 1 2 2l10 7.5t11 9.5t7 8zM250 10q-93 61 -194 103q-14 6 -25.5 18.5t-10 23t26.5 10.5q42 -1 88 7t78 37q41 41 38 94q-6 -12 -17 -21q-65 -56 -144 -21q-64 35 -59.5 92.5
t56.5 90.5h-67q-15 0 -32 6.5t-26 21.5q-8 14 3 21t23 7h355q15 0 32.5 -7t26.5 -21q7 -14 -4 -21t-23 -7h-108l1 -7q1 -8 1 -17v-6q88 -62 71 -169q-16 -60 -63 -90t-106 -39q57 -31 112 -65q66 -41 135 -77q27 -15 24.5 -27.5t-21.5 -17t-41 4.5q-20 10 -39 21v-33
q0 -20 -23 -22t-45 9q-20 9 -23 22l-20 7q-46 19 -89.5 22t-69.5 -46q-10 -16 -34 -14t-43 14t-13 28q42 77 112.5 74.5t143.5 -29.5q7 -2 13 -4v27z" />
    <glyph glyph-name="bn_h_la" horiz-adv-x="363" 
d="M160 331q11 18 15 39q2 16 3 33q-17 1 -32 -13q-17 -16 -24.5 -41t6.5 -46h1q0 1 1 1q0 1 2 2l10 7.5t11 9.5t7 8zM218 30q-78 48 -162 83q-14 6 -25.5 18.5t-10 23t26.5 10.5q42 -1 88 7t78 37q41 41 38 94q-6 -12 -17 -21q-65 -56 -144 -21q-64 35 -59.5 92.5
t56.5 90.5h-67q-15 0 -32 6.5t-26 21.5q-8 14 3 21t23 7h355q15 0 32.5 -7t26.5 -21q7 -14 -4 -21t-23 -7h-108l1 -7q1 -8 1 -17v-6q88 -62 71 -169q-16 -60 -63 -90t-106 -39q57 -31 112 -65q66 -41 135 -77q27 -15 24.5 -27.5t-21.5 -17t-41 4.5q-36 19 -71 40v-115
q0 -20 -23 -22t-45.5 8.5t-22.5 26.5v23q-15 8 -32 29q-2 -17 -1 -34q0 -15 -14.5 -19t-33.5 0.5t-32 14.5q-8 5 -14 10l-12 12q0 -28 -8 -56q-7 -16 -30.5 -15t-43.5 13.5t-16 29.5q10 37 9 76q0 18 1 37q1 6 7.5 9.5t11.5 3.5q51 5 91 -26q6 22 13 42q7 14 23.5 14.5
t29.5 -3.5q22 -8 51 -23v20z" />
    </font>
</defs>
</svg>
